SplineFontDB: 3.2
FontName: ChessTepoztlan
FullName: ChessTepoztlan
FamilyName: ChessTepoztlan
Weight: Regular
Copyright: Donated to the public domain 2022 by Sam Trenholme
UComments: "2022-4-14: Created with FontForge (http://fontforge.org)"
Version: 001.000
ItalicAngle: 0
UnderlinePosition: 0
UnderlineWidth: 0
Ascent: 500
Descent: 500
InvalidEm: 0
LayerCount: 2
Layer: 0 0 "Back" 1
Layer: 1 0 "Fore" 0
XUID: [1021 900 -2068765213 18787]
FSType: 0
OS2Version: 0
OS2_WeightWidthSlopeOnly: 0
OS2_UseTypoMetrics: 1
CreationTime: 1650005861
ModificationTime: 1650032157
PfmFamily: 17
TTFWeight: 400
TTFWidth: 5
LineGap: 0
VLineGap: 0
Panose: 0 0 0 0 0 0 0 0 0 0
OS2TypoAscent: 500
OS2TypoAOffset: 0
OS2TypoDescent: -500
OS2TypoDOffset: 0
OS2TypoLinegap: 500
OS2WinAscent: 500
OS2WinAOffset: 0
OS2WinDescent: 500
OS2WinDOffset: 0
HheadAscent: 500
HheadAOffset: 0
HheadDescent: -500
HheadDOffset: 0
OS2SubXSize: 648
OS2SubYSize: 699
OS2SubXOff: 0
OS2SubYOff: 139
OS2SupXSize: 648
OS2SupYSize: 699
OS2SupXOff: 0
OS2SupYOff: 479
OS2StrikeYSize: 49
OS2StrikeYPos: 258
OS2CapHeight: 340
OS2XHeight: 256
OS2Vendor: 'PfEd'
MarkAttachClasses: 1
DEI: 91125
LangName: 1033
Encoding: ISO8859-1
UnicodeInterp: none
NameList: AGL For New Fonts
DisplaySize: -48
AntiAlias: 1
FitToEm: 0
WinInfo: 0 26 12
BeginPrivate: 0
EndPrivate
TeXData: 1 0 0 1048576 524288 349525 682885 1048576 349525 783286 444596 497025 792723 393216 433062 380633 303038 157286 324010 404750 52429 2506097 1059062 262144
BeginChars: 256 38

StartChar: space
Encoding: 32 32 0
Width: 1000
Flags: HW
LayerCount: 2
Fore
SplineSet
0 0 m 1024
EndSplineSet
EndChar

StartChar: exclam
Encoding: 33 33 1
Width: 1000
Flags: HW
LayerCount: 2
Fore
SplineSet
950 -450 m 1
 1000 -450 l 1
 1000 -500 l 1
 950 -500 l 1
 950 -450 l 1
EndSplineSet
EndChar

StartChar: quotedbl
Encoding: 34 34 2
Width: 1000
Flags: HW
LayerCount: 2
Fore
SplineSet
0 -450 m 1
 1000 -450 l 1
 1000 -500 l 1
 0 -500 l 5
 0 -450 l 1
EndSplineSet
EndChar

StartChar: numbersign
Encoding: 35 35 3
Width: 1000
Flags: HW
LayerCount: 2
Fore
SplineSet
0 -450 m 1
 50 -450 l 1
 50 -500 l 1
 0 -500 l 5
 0 -450 l 1
EndSplineSet
EndChar

StartChar: dollar
Encoding: 36 36 4
Width: 1000
Flags: HW
LayerCount: 2
Fore
SplineSet
950 500 m 5
 1000 500 l 5
 1000 -500 l 5
 950 -500 l 5
 950 500 l 5
0 0 m 1024
EndSplineSet
EndChar

StartChar: percent
Encoding: 37 37 5
Width: 1000
Flags: HW
LayerCount: 2
Fore
SplineSet
0 500 m 5
 50 500 l 5
 50 -500 l 5
 0 -500 l 5
 0 500 l 5
0 0 m 1024
EndSplineSet
EndChar

StartChar: parenleft
Encoding: 40 40 6
Width: 1000
Flags: HW
LayerCount: 2
Fore
SplineSet
0 450 m 1
 0 500 l 5
 1000 500 l 1
 1000 450 l 1
 0 450 l 1
EndSplineSet
EndChar

StartChar: parenright
Encoding: 41 41 7
Width: 1000
Flags: HW
LayerCount: 2
Fore
SplineSet
0 450 m 1
 0 500 l 5
 50 500 l 1
 50 450 l 1
 0 450 l 1
EndSplineSet
EndChar

StartChar: B
Encoding: 66 66 8
Width: 1000
Flags: H
LayerCount: 2
Fore
SplineSet
74.0498046875 424.150390625 m 1
 148.099609375 500 l 1
 158.150390625 500 l 1
 168.150390625 500 l 1
 159.200195312 490.849609375 l 2
 154.299804688 485.849609375 119.099609375 449.849609375 81.0498046875 410.849609375 c 2
 11.900390625 340 l 1
 5.9501953125 340 l 1
 0 340 l 1
 0 344.150390625 l 1
 0 348.299804688 l 1
 74.0498046875 424.150390625 l 1
308.75 499.200195312 m 2
 313.450195312 499.549804688 317.799804688 499.900390625 318.5 499.950195312 c 0
 319.650390625 500 319.5 499.799804688 317.25 497.549804688 c 0
 315.849609375 496.25 246.400390625 428.75 162.900390625 347.549804688 c 2
 11 200 l 1
 5.5 200 l 1
 0 200 l 1
 0 205.5 l 1
 0 210.950195312 l 1
 77.400390625 285.599609375 l 2
 119.950195312 326.650390625 186.25 390.150390625 224.75 426.700195312 c 0
 263.25 463.25 296 494.349609375 297.5 495.799804688 c 2
 300.299804688 498.5 l 1
 308.75 499.200195312 l 2
214.75 284.799804688 m 1
 429.25 500 l 1
 439.25 500 l 1
 449.25 500 l 1
 427.700195312 478.400390625 l 2
 415.799804688 466.5 317.200195312 367.549804688 208.549804688 258.5 c 2
 10.9501953125 60.25 l 1
 5.4501953125 60.099609375 l 1
 -0.0498046875 59.9501953125 l 1
 0.099609375 64.75 l 1
 0.25 69.5498046875 l 1
 214.75 284.799804688 l 1
547.450195312 477.900390625 m 1
 569.25 499.950195312 l 1
 579.200195312 500 l 1
 589.200195312 500 l 1
 584.450195312 495.099609375 l 2
 581.900390625 492.400390625 570.400390625 480.799804688 558.950195312 469.299804688 c 2
 538.150390625 448.400390625 l 1
 541.75 444.799804688 l 2
 553.200195312 433.5 559.549804688 417.25 558.849609375 401.25 c 0
 558.349609375 389.950195312 554.799804688 381.099609375 547.25 372.299804688 c 0
 542.150390625 366.349609375 540.900390625 363.549804688 540.900390625 358 c 0
 540.950195312 355.950195312 541.299804688 352.950195312 541.75 351.349609375 c 0
 542.549804688 348.349609375 545.849609375 341.049804688 547.200195312 339.25 c 0
 547.900390625 338.299804688 551.549804688 341.849609375 628.849609375 419.150390625 c 2
 709.75 500 l 1
 719.75 500 l 1
 729.75 500 l 1
 643.049804688 413.299804688 l 2
 560.099609375 330.349609375 556.400390625 326.549804688 557.099609375 325.549804688 c 0
 560.950195312 320.049804688 576.400390625 304.549804688 591.75 290.700195312 c 0
 597 286 604.650390625 278.650390625 608.799804688 274.349609375 c 2
 616.349609375 266.599609375 l 1
 733.049804688 383.299804688 l 1
 849.75 500 l 1
 859.75 500 l 1
 869.75 500 l 1
 747.549804688 377.799804688 l 1
 625.349609375 255.599609375 l 1
 630.75 248.450195312 l 2
 643.25 231.700195312 655.900390625 211.200195312 667.299804688 189.099609375 c 2
 671.200195312 181.450195312 l 1
 830.5 340.75 l 1
 989.75 500 l 1
 994.900390625 500 l 1
 1000 500 l 1
 1000 495.099609375 l 1
 1000 490.25 l 1
 838.799804688 329.049804688 l 1
 677.599609375 167.900390625 l 1
 680.849609375 160.549804688 l 2
 690.950195312 137.549804688 700.599609375 111 708.049804688 85.599609375 c 2
 709.700195312 79.9501953125 l 1
 849.700195312 219.950195312 l 1
 989.75 360 l 1
 994.900390625 360 l 1
 1000 360 l 1
 1000 355.150390625 l 1
 1000 350.25 l 1
 856.950195312 207.200195312 l 1
 713.900390625 64.150390625 l 1
 715.950195312 55.4501953125 l 2
 723.200195312 24.2001953125 727.75 -6.7998046875 728.799804688 -32.400390625 c 2
 729.150390625 -40.599609375 l 1
 859.450195312 89.7001953125 l 1
 989.75 220 l 1
 994.900390625 220 l 1
 1000 220 l 1
 1000 215.099609375 l 1
 1000 210.25 l 1
 864.549804688 74.7998046875 l 1
 729.049804688 -60.7001953125 l 1
 728.75 -64.4501953125 l 2
 726.650390625 -90.650390625 723 -107 715.950195312 -121.950195312 c 0
 710.950195312 -132.549804688 706.650390625 -137.950195312 693.5 -150.049804688 c 0
 687.099609375 -155.950195312 683.25 -161.049804688 681.150390625 -166.349609375 c 0
 679.900390625 -169.400390625 679.799804688 -170.400390625 679.799804688 -175.75 c 0
 679.849609375 -183.049804688 680.900390625 -186.799804688 685.75 -196.75 c 0
 689.299804688 -204.049804688 695.049804688 -213.75 695.799804688 -213.75 c 0
 696.049804688 -213.700195312 762.200195312 -147.700195312 842.75 -67 c 2
 989.25 79.75 l 1
 994.650390625 79.900390625 l 1
 1000 80.0498046875 l 1
 1000 75.400390625 l 2
 999.950195312 72.099609375 999.75 70.4501953125 999.25 69.75 c 0
 998.799804688 69.25 931.900390625 2.150390625 850.5 -79.25 c 2
 702.549804688 -227.299804688 l 1
 704.049804688 -231.599609375 l 2
 710.25 -249.599609375 703.799804688 -261.849609375 676.700195312 -283.549804688 c 0
 673.450195312 -286.150390625 658.200195312 -297.849609375 642.799804688 -309.549804688 c 2
 614.849609375 -330.75 l 1
 621.299804688 -331.150390625 l 2
 624.849609375 -331.349609375 647.099609375 -332.650390625 670.75 -334 c 2
 713.75 -336.400390625 l 1
 821.950195312 -227.849609375 l 2
 881.5 -168.099609375 943.450195312 -105.900390625 959.700195312 -89.650390625 c 2
 989.25 -60 l 1
 994.599609375 -60 l 1
 1000 -60 l 1
 1000 -64.650390625 l 1
 1000 -69.2998046875 l 1
 866.5 -203.25 l 2
 793.099609375 -276.900390625 733.099609375 -337.25 733.150390625 -337.299804688 c 0
 733.200195312 -337.349609375 738.549804688 -337.799804688 745 -338.200195312 c 0
 799.650390625 -341.950195312 821.599609375 -346.299804688 833.099609375 -355.650390625 c 2
 835.799804688 -357.849609375 l 1
 838.799804688 -355.049804688 l 2
 842.650390625 -351.5 986.25 -213.299804688 994.150390625 -205.549804688 c 2
 1000 -199.799804688 l 1
 1000 -208.799804688 l 1
 1000 -217.849609375 l 1
 921.25 -294.700195312 l 2
 843.200195312 -370.900390625 842.549804688 -371.549804688 842.900390625 -373.150390625 c 0
 843.099609375 -374.049804688 843.25 -379.700195312 843.25 -385.75 c 0
 843.25 -394.75 843.099609375 -397.349609375 842.349609375 -400 c 0
 837.950195312 -416.049804688 825.400390625 -423.099609375 793.5 -427.5 c 0
 789.25 -428.099609375 785.299804688 -428.650390625 784.75 -428.799804688 c 0
 784.200195312 -428.900390625 767.400390625 -444.950195312 747.400390625 -464.5 c 2
 711.049804688 -500 l 1
 705.5 -500 l 1
 700 -500 l 1
 700 -494.5 l 1
 700 -489.049804688 l 1
 729.950195312 -460.150390625 l 2
 746.400390625 -444.25 759.849609375 -431.200195312 759.799804688 -431.150390625 c 0
 759.75 -431.099609375 755 -431.349609375 749.200195312 -431.75 c 0
 733.549804688 -432.799804688 712.200195312 -433.900390625 694.25 -434.549804688 c 0
 678.75 -435.099609375 651.150390625 -434.849609375 641.299804688 -434.099609375 c 2
 636.799804688 -433.75 l 1
 603.799804688 -466.849609375 l 1
 570.849609375 -500 l 1
 560.849609375 -500 l 1
 550.849609375 -500 l 1
 584.700195312 -466 l 2
 603.299804688 -447.299804688 618.5 -431.75 618.5 -431.5 c 0
 618.5 -431.200195312 618.049804688 -431 617.5 -431 c 0
 615.299804688 -431 600.799804688 -426.950195312 595.200195312 -424.75 c 0
 580.049804688 -418.799804688 568.5 -411 551.349609375 -395.099609375 c 0
 546.950195312 -391.049804688 543.25 -387.700195312 543.049804688 -387.599609375 c 0
 542.849609375 -387.549804688 517.450195312 -412.799804688 486.549804688 -443.75 c 2
 430.400390625 -500 l 1
 420.549804688 -499.900390625 l 1
 410.75 -499.75 l 1
 471.650390625 -438.700195312 l 1
 532.599609375 -377.599609375 l 1
 528.150390625 -373.400390625 l 2
 525.75 -371.099609375 520 -365.650390625 515.400390625 -361.349609375 c 2
 507.099609375 -353.5 l 1
 486.599609375 -376.099609375 l 2
 472.799804688 -391.349609375 464.849609375 -399.75 462.25 -401.75 c 0
 442.900390625 -416.900390625 408.200195312 -428.599609375 362.75 -435.25 c 2
 353.75 -436.549804688 l 1
 322 -468.299804688 l 1
 290.25 -500 l 1
 280.25 -500 l 1
 270.25 -500 l 1
 300.75 -469.450195312 l 1
 331.25 -438.900390625 l 1
 326.25 -439.200195312 l 2
 285.799804688 -441.75 253 -440.25 224.5 -434.5 c 2
 217.25 -433.049804688 l 1
 183.75 -466.5 l 1
 150.25 -500 l 1
 140.25 -500 l 1
 130.25 -500 l 1
 166 -464.25 l 2
 185.650390625 -444.599609375 201.599609375 -428.450195312 201.5 -428.349609375 c 0
 201.349609375 -428.25 199.099609375 -427.200195312 196.5 -426.049804688 c 0
 187.700195312 -422.25 180.200195312 -416.599609375 176.700195312 -411.200195312 c 0
 174.849609375 -408.299804688 172.200195312 -400.950195312 170.450195312 -394 c 0
 168.799804688 -387.200195312 168.75 -375.349609375 170.349609375 -370.25 c 0
 174.450195312 -357.400390625 186.349609375 -348 205.900390625 -342.299804688 c 0
 225.049804688 -336.700195312 248.450195312 -333.900390625 282.849609375 -333.150390625 c 2
 297.400390625 -332.849609375 l 1
 321.349609375 -308.900390625 l 1
 345.25 -285 l 1
 343.5 -283.599609375 l 2
 339.700195312 -280.650390625 330.049804688 -271.950195312 327.400390625 -269.049804688 c 0
 318.25 -259.200195312 314.75 -252.049804688 314.799804688 -243.25 c 0
 314.799804688 -234.599609375 317.900390625 -226.549804688 327.200195312 -211 c 0
 333 -201.349609375 338.150390625 -190.75 339.799804688 -185.25 c 0
 340.799804688 -181.799804688 341.150390625 -179.549804688 341.200195312 -175.650390625 c 0
 341.200195312 -172.849609375 341.049804688 -170.400390625 340.849609375 -170.200195312 c 0
 340.650390625 -169.950195312 266.150390625 -244.099609375 175.349609375 -334.900390625 c 2
 10.25 -500 l 1
 5.099609375 -500 l 1
 0 -500 l 1
 0 -495.150390625 l 1
 0 -490.25 l 1
 166.849609375 -323.400390625 l 1
 333.700195312 -156.549804688 l 1
 332.349609375 -154.799804688 l 2
 331.599609375 -153.849609375 328.099609375 -150.5 324.599609375 -147.349609375 c 0
 316.700195312 -140.299804688 314.150390625 -137.5 310.349609375 -131.75 c 0
 306.349609375 -125.650390625 302.950195312 -118.450195312 300.049804688 -109.650390625 c 0
 297.599609375 -102.299804688 294.349609375 -87.900390625 293.700195312 -81.349609375 c 0
 293.549804688 -79.5 293.25 -77.900390625 293.049804688 -77.75 c 0
 292.849609375 -77.650390625 229.150390625 -141.099609375 151.450195312 -218.799804688 c 2
 10.25 -360 l 1
 5.150390625 -360 l 1
 0 -360 l 1
 0 -355.150390625 l 1
 0 -350.25 l 1
 145.849609375 -204.400390625 l 1
 291.700195312 -58.5498046875 l 1
 291.549804688 -50.900390625 l 2
 291.200195312 -25.4501953125 295.200195312 10.349609375 302.049804688 42.75 c 0
 303.849609375 51.25 310.349609375 77.7001953125 311.25 80.25 c 0
 311.450195312 80.7998046875 243.799804688 13.4501953125 160.950195312 -69.400390625 c 2
 10.25 -220 l 1
 5.099609375 -220 l 1
 0 -220 l 1
 0 -215.150390625 l 1
 0 -210.25 l 1
 160.25 -50 l 1
 320.450195312 110.25 l 1
 322.950195312 117.25 l 1
 341 168.599609375 364.549804688 214.5 390.450195312 248.849609375 c 0
 403.75 266.5 411.950195312 275.349609375 430.25 291.75 c 0
 454.950195312 313.849609375 469.75 330.799804688 476.25 344.25 c 0
 479.200195312 350.349609375 480.150390625 354.25 479.900390625 359.25 c 0
 479.599609375 364.099609375 478.299804688 367 474.200195312 371.599609375 c 0
 472.650390625 373.349609375 470.799804688 375.599609375 470.049804688 376.599609375 c 0
 469.349609375 377.650390625 468.650390625 378.5 468.5 378.5 c 0
 468.349609375 378.5 430.099609375 340.299804688 383.5 293.650390625 c 0
 336.900390625 246.950195312 233.849609375 143.799804688 154.549804688 64.400390625 c 2
 10.2998046875 -80 l 1
 5.150390625 -80 l 1
 0 -80 l 1
 0 -75.2001953125 l 1
 0 -70.400390625 l 1
 231.349609375 161.299804688 l 2
 456 386.299804688 462.75 393.099609375 462.5 394.650390625 c 0
 462.349609375 395.549804688 462.25 399.950195312 462.299804688 404.5 c 0
 462.349609375 411.700195312 462.5 413.349609375 463.650390625 417.650390625 c 0
 468.900390625 437.400390625 482.900390625 452.450195312 500.25 457.049804688 c 0
 506.099609375 458.599609375 514.650390625 458.549804688 520.950195312 457 c 2
 525.700195312 455.799804688 l 1
 547.450195312 477.900390625 l 1
517.5 427.799804688 m 0
 516.549804688 427.849609375 514.049804688 428.049804688 512 428.200195312 c 0
 507.400390625 428.5 504.700195312 428 500.599609375 425.950195312 c 0
 492.150390625 421.799804688 487.049804688 412.150390625 488.5 402.900390625 c 0
 488.799804688 401 488.900390625 399.25 488.75 399 c 0
 488.200195312 398.099609375 491.549804688 392.450195312 494.25 389.799804688 c 0
 499.200195312 384.799804688 507 382.25 513.799804688 383.400390625 c 0
 529.450195312 386 538.150390625 403 531 417 c 0
 528.5 421.900390625 521.400390625 427.599609375 517.5 427.799804688 c 0
518.099609375 311.5 m 0
 515.599609375 312.150390625 508.049804688 312.599609375 506 312.200195312 c 0
 496.5 310.349609375 486.849609375 305.549804688 475 296.75 c 0
 445.150390625 274.549804688 407.349609375 227.25 379.150390625 176.75 c 0
 376.349609375 171.799804688 373.400390625 166.299804688 372.599609375 164.5 c 0
 371.75 162.700195312 368.849609375 156.400390625 366.099609375 150.5 c 0
 363.349609375 144.599609375 360.150390625 137.5 359 134.75 c 0
 355.299804688 126 355 125.299804688 353.75 123.5 c 0
 348.650390625 116.099609375 330.950195312 56.5498046875 322.799804688 19.5 c 0
 319.150390625 2.849609375 316.150390625 -15.400390625 315.299804688 -26 c 0
 315.099609375 -28.0498046875 314.849609375 -31.0498046875 314.700195312 -32.7001953125 c 0
 314.5 -34.400390625 314.599609375 -35.5 314.849609375 -35.349609375 c 0
 315.349609375 -35.0498046875 315.450195312 -54.75 314.950195312 -55.25 c 0
 314.200195312 -55.9501953125 316.150390625 -69.650390625 318 -77.0498046875 c 0
 322.349609375 -94.5498046875 330.5 -109.450195312 344.700195312 -125.950195312 c 0
 349.049804688 -130.950195312 354.299804688 -135.700195312 355.049804688 -135.200195312 c 0
 355.299804688 -135.049804688 357.349609375 -136.150390625 359.650390625 -137.650390625 c 0
 361.900390625 -139.200195312 364.599609375 -140.799804688 365.650390625 -141.299804688 c 0
 366.700195312 -141.799804688 367.450195312 -142.450195312 367.299804688 -142.799804688 c 0
 367 -143.549804688 375.5 -147.400390625 384.599609375 -150.700195312 c 0
 400.25 -156.349609375 421.650390625 -161.25 443.700195312 -164.25 c 0
 457.200195312 -166.049804688 463.549804688 -166.650390625 464.049804688 -166.150390625 c 0
 464.549804688 -165.650390625 481.299804688 -167.099609375 482.75 -167.799804688 c 0
 483.349609375 -168.049804688 495.299804688 -168.25 511.5 -168.25 c 0
 541.200195312 -168.200195312 548.700195312 -167.849609375 570.75 -165.25 c 0
 587.200195312 -163.299804688 611 -158.950195312 612.650390625 -157.549804688 c 0
 613 -157.25 616.799804688 -156.049804688 621.049804688 -154.799804688 c 0
 627.349609375 -153 635.650390625 -150.150390625 641.75 -147.700195312 c 0
 642.650390625 -147.349609375 642.650390625 -147.400390625 642.049804688 -148.150390625 c 0
 641.400390625 -148.950195312 641.5 -148.950195312 643.299804688 -148.200195312 c 0
 648.200195312 -146.25 657.650390625 -141.299804688 661.799804688 -138.549804688 c 0
 676.049804688 -129.150390625 690.599609375 -111.650390625 697.549804688 -95.5 c 0
 699.700195312 -90.5498046875 699.75 -90.2998046875 698.900390625 -90.7998046875 c 0
 698.549804688 -91.0498046875 698.450195312 -90.900390625 698.599609375 -90.4501953125 c 0
 700.75 -84.7998046875 703.25 -74.7998046875 704.25 -67.75 c 0
 704.450195312 -66.349609375 704.849609375 -65 705.099609375 -64.650390625 c 0
 705.799804688 -63.7998046875 706.450195312 -55.400390625 706.5 -47.5 c 0
 706.549804688 -27.7001953125 703.049804688 -2.7001953125 695.950195312 28 c 0
 692.849609375 41.5 692.549804688 42.599609375 692.049804688 42.2998046875 c 0
 691.599609375 42 687.700195312 56.900390625 687.900390625 58.400390625 c 0
 688.099609375 59.7998046875 680.700195312 85.7998046875 676.150390625 99.75 c 0
 672.5 110.900390625 666.150390625 127.25 661.5 137.5 c 0
 659.799804688 141.200195312 658.150390625 144.849609375 657.849609375 145.650390625 c 0
 657.549804688 146.400390625 657.049804688 146.900390625 656.700195312 146.799804688 c 0
 656.049804688 146.549804688 649.75 159.099609375 650.099609375 160.049804688 c 0
 650.700195312 161.700195312 634.150390625 190.650390625 622.099609375 209 c 0
 614.150390625 221.099609375 604.549804688 234.599609375 604.049804688 234.25 c 0
 603.549804688 233.950195312 595.200195312 244.900390625 595.400390625 245.599609375 c 0
 595.549804688 246.150390625 590.400390625 252.549804688 583.450195312 260.5 c 0
 567.599609375 278.700195312 552.900390625 292.299804688 539.349609375 301.299804688 c 0
 536.700195312 303.099609375 534.25 304.400390625 534 304.25 c 0
 533.700195312 304.049804688 531.5 304.900390625 529.099609375 306.150390625 c 0
 526.700195312 307.349609375 523.700195312 308.75 522.400390625 309.25 c 0
 521.099609375 309.75 520.150390625 310.299804688 520.25 310.5 c 0
 520.400390625 310.700195312 519.400390625 311.150390625 518.099609375 311.5 c 0
531.5 -187 m 0
 505.150390625 -186.150390625 466.049804688 -187.25 460.75 -188.950195312 c 0
 459.950195312 -189.25 455.099609375 -189.799804688 450 -190.25 c 0
 444.900390625 -190.700195312 440.349609375 -191.200195312 439.799804688 -191.349609375 c 0
 439.200195312 -191.5 439 -191.400390625 439.200195312 -191.049804688 c 0
 439.650390625 -190.349609375 440.5 -190.299804688 431.450195312 -191.5 c 0
 393.650390625 -196.5 367.799804688 -204.75 357.349609375 -215.25 c 0
 352.150390625 -220.450195312 345.25 -230.75 343.5 -236 c 0
 341.5 -242 342.5 -246.099609375 347 -250.150390625 c 0
 351.700195312 -254.400390625 364.450195312 -259.599609375 370 -259.599609375 c 0
 371.25 -259.599609375 374.849609375 -260 378 -260.5 c 0
 381.150390625 -261.049804688 384.700195312 -261.599609375 385.900390625 -261.75 c 0
 387.049804688 -261.950195312 387.900390625 -262.299804688 387.700195312 -262.549804688 c 0
 387.549804688 -262.799804688 387.75 -263 388.150390625 -263 c 0
 388.549804688 -263 393 -263.450195312 398.049804688 -264 c 0
 406.25 -264.849609375 420.200195312 -266 432.5 -266.75 c 0
 453.049804688 -268.049804688 500.950195312 -269.25 501.700195312 -268.5 c 0
 502.400390625 -267.799804688 522.150390625 -267.799804688 521.75 -268.5 c 0
 521.349609375 -269.099609375 521.5 -269.099609375 546.5 -268.5 c 0
 575.900390625 -267.799804688 598.650390625 -266.549804688 617.25 -264.700195312 c 0
 634.400390625 -263 649.799804688 -260.25 651.700195312 -258.599609375 c 0
 652.299804688 -258.099609375 654 -257.299804688 655.5 -256.75 c 0
 664.099609375 -253.900390625 673.450195312 -247.400390625 675 -243.25 c 0
 675.299804688 -242.400390625 675.5 -240.299804688 675.450195312 -238.5 c 0
 675.349609375 -236.700195312 675.450195312 -235 675.650390625 -234.650390625 c 0
 676.75 -232.900390625 669.200195312 -221.099609375 663.049804688 -215 c 0
 660 -211.950195312 657.549804688 -210.099609375 654.5 -208.400390625 c 0
 646.450195312 -204 634.150390625 -199.75 621 -196.799804688 c 0
 611.599609375 -194.75 601.400390625 -192.950195312 598.75 -192.900390625 c 0
 594.900390625 -192.849609375 579.799804688 -190.950195312 579.5 -190.5 c 0
 578.950195312 -189.599609375 553.349609375 -187.700195312 531.5 -187 c 0
523.200195312 -292.25 m 0
 507.599609375 -291.599609375 498.75 -291.650390625 497.799804688 -292.450195312 c 0
 497.5 -292.700195312 495.25 -293.049804688 492.75 -293.25 c 0
 488.150390625 -293.599609375 478.900390625 -294.75 476.299804688 -295.299804688 c 0
 475.299804688 -295.5 475 -295.450195312 475.25 -295.049804688 c 0
 475.450195312 -294.650390625 475.200195312 -294.549804688 474.400390625 -294.700195312 c 0
 473.799804688 -294.849609375 470.650390625 -295.549804688 467.5 -296.25 c 0
 455.5 -298.950195312 443.950195312 -303.549804688 436.75 -308.5 c 0
 430.700195312 -312.700195312 427.150390625 -316.900390625 423.799804688 -323.700195312 c 0
 421.349609375 -328.650390625 420.400390625 -330.099609375 417.299804688 -333.150390625 c 0
 405.950195312 -344.349609375 384.349609375 -350.599609375 348.5 -353 c 0
 343.950195312 -353.299804688 330.349609375 -353.75 318.25 -354 c 0
 305.150390625 -354.25 295.549804688 -354.650390625 294.5 -354.950195312 c 0
 293.5 -355.25 286.599609375 -355.599609375 278.5 -355.75 c 0
 259.049804688 -356.049804688 241.900390625 -358.150390625 226.25 -362.200195312 c 0
 197.400390625 -369.650390625 186.900390625 -381.650390625 196.349609375 -396.400390625 c 0
 198.849609375 -400.349609375 202.400390625 -403.950195312 205.150390625 -405.349609375 c 0
 208.349609375 -406.950195312 218.25 -409.5 220.75 -409.400390625 c 0
 223.349609375 -409.25 238.5 -411.549804688 238.200195312 -412.049804688 c 0
 237.849609375 -412.650390625 244.700195312 -413.450195312 260.75 -414.700195312 c 0
 279.299804688 -416.150390625 296.25 -416.650390625 319.450195312 -416.349609375 c 0
 342.700195312 -416.099609375 353.549804688 -415.450195312 356.25 -414.299804688 c 0
 357.099609375 -413.900390625 359.799804688 -413.450195312 362.349609375 -413.299804688 c 0
 364.849609375 -413.099609375 369.599609375 -412.549804688 372.799804688 -412 c 0
 376.049804688 -411.5 378.849609375 -411.150390625 379.049804688 -411.299804688 c 0
 379.650390625 -411.650390625 390.299804688 -409.150390625 396.599609375 -407.150390625 c 0
 419 -400.099609375 433.450195312 -390.75 450.25 -372.5 c 0
 471.549804688 -349.400390625 489.5 -337.549804688 505.549804688 -336.049804688 c 0
 510.650390625 -335.599609375 517.5 -336.049804688 521.849609375 -337.200195312 c 0
 534.349609375 -340.5 549.799804688 -350.900390625 564 -365.700195312 c 0
 584.549804688 -387.150390625 590.5 -392.5 599.849609375 -398.150390625 c 0
 612.200195312 -405.650390625 628.75 -410.849609375 641.5 -411.299804688 c 0
 650.200195312 -411.599609375 657.200195312 -412.299804688 657.400390625 -412.950195312 c 0
 657.549804688 -413.349609375 662.349609375 -413.5 674.900390625 -413.5 c 0
 713.75 -413.5 753.650390625 -409.75 779.950195312 -403.700195312 c 0
 788.299804688 -401.75 791.299804688 -400.849609375 792.5 -399.799804688 c 0
 792.900390625 -399.450195312 794.5 -398.75 796 -398.25 c 0
 797.5 -397.75 800.849609375 -396.400390625 803.400390625 -395.150390625 c 0
 811.549804688 -391.299804688 815.299804688 -386.5 813.349609375 -382.5 c 0
 812.900390625 -381.650390625 812.650390625 -380.650390625 812.799804688 -380.299804688 c 0
 813.200195312 -379.25 808.799804688 -375.75 804.349609375 -373.599609375 c 0
 789.349609375 -366.299804688 761.900390625 -361.150390625 722.75 -358.299804688 c 0
 717.5 -357.900390625 712.700195312 -357.700195312 712 -357.799804688 c 0
 709.450195312 -358.25 681.900390625 -354.549804688 666.75 -351.700195312 c 0
 639.349609375 -346.599609375 617.349609375 -338.799804688 605.75 -330 c 0
 601.549804688 -326.849609375 593.349609375 -317.700195312 593.75 -316.650390625 c 0
 594.049804688 -315.75 589.900390625 -311.849609375 585.5 -308.950195312 c 0
 571.849609375 -299.849609375 547.299804688 -293.25 523.200195312 -292.25 c 0
381.349609375 -313.099609375 m 2
 367.700195312 -302.599609375 356.5 -294 356.400390625 -294 c 0
 356.299804688 -294 347.549804688 -302.700195312 336.849609375 -313.349609375 c 2
 317.5 -332.75 l 1
 359.650390625 -332.599609375 l 2
 382.799804688 -332.549804688 402.700195312 -332.450195312 403.900390625 -332.349609375 c 2
 406.099609375 -332.25 l 1
 381.349609375 -313.099609375 l 2
503.549804688 165.75 m 0
 505.450195312 166.25 508 166.450195312 512.25 166.349609375 c 0
 517.450195312 166.200195312 518.650390625 166 521.099609375 164.900390625 c 0
 526.400390625 162.450195312 531.599609375 156.549804688 535.349609375 148.650390625 c 0
 539.450195312 140.099609375 541.150390625 130.200195312 541.700195312 112.5 c 0
 542.200195312 96.2998046875 543.700195312 88 547.5 80.0498046875 c 0
 549.849609375 75.150390625 555.650390625 68.849609375 558.25 68.400390625 c 0
 559.099609375 68.25 561.099609375 67.5498046875 562.75 66.849609375 c 0
 564.400390625 66.150390625 567.400390625 65.25 569.450195312 64.7998046875 c 0
 571.5 64.400390625 573.299804688 63.7998046875 573.5 63.5 c 0
 573.700195312 63.150390625 577.200195312 62.75 582.799804688 62.5 c 0
 596.200195312 61.7998046875 604.349609375 59.400390625 612.299804688 53.75 c 0
 629.099609375 41.75 629.099609375 20.75 612.25 8.75 c 0
 604.400390625 3.150390625 596.150390625 0.7001953125 582.75 0 c 0
 566.25 -0.849609375 560 -2.900390625 553.150390625 -9.75 c 0
 550.349609375 -12.5498046875 549.049804688 -14.349609375 547.5 -17.5498046875 c 0
 543.700195312 -25.4501953125 542.25 -33.75 541.700195312 -49.75 c 0
 541.150390625 -67.7998046875 539.450195312 -77.599609375 535.349609375 -86.150390625 c 0
 529.549804688 -98.2998046875 521.700195312 -103.950195312 510.5 -104 c 0
 494.450195312 -104.049804688 483.700195312 -91.150390625 480.25 -67.75 c 0
 479.849609375 -65 479.299804688 -56.7998046875 479 -49.5 c 0
 478.450195312 -35.9501953125 478.049804688 -32.0498046875 477.299804688 -32.5 c 0
 477.049804688 -32.650390625 476.450195312 -30.599609375 475.900390625 -28 c 0
 475.400390625 -25.400390625 474.400390625 -22.0498046875 473.75 -20.599609375 c 0
 473.099609375 -19.150390625 472.650390625 -17.650390625 472.799804688 -17.2998046875 c 0
 473.400390625 -15.7998046875 468.650390625 -9.7998046875 464.400390625 -6.7001953125 c 0
 458.700195312 -2.5 451.700195312 -0.650390625 438.5 0 c 0
 426.25 0.599609375 421.049804688 1.849609375 412.900390625 6.099609375 c 0
 407.450195312 8.900390625 400.950195312 15.25 398.650390625 20 c 0
 395.549804688 26.2998046875 394.950195312 30.599609375 396.25 36.650390625 c 0
 398.200195312 45.849609375 405.799804688 54.2998046875 415.950195312 58.5 c 0
 422.549804688 61.2001953125 427 62.0498046875 437.5 62.5 c 0
 442.849609375 62.75 449.049804688 63.2998046875 451.25 63.75 c 0
 466.549804688 66.900390625 474.700195312 76.400390625 477.700195312 94.5 c 0
 478.700195312 100.599609375 479.299804688 109.25 478.700195312 108.900390625 c 0
 478.200195312 108.549804688 478.200195312 109.099609375 479 120.450195312 c 0
 479.299804688 124.700195312 479.75 129.099609375 480.049804688 130.200195312 c 0
 480.299804688 131.349609375 481.049804688 134.700195312 481.75 137.650390625 c 0
 485.25 152.799804688 492.950195312 162.799804688 503.549804688 165.75 c 0
516.450195312 123.25 m 0
 515.650390625 138.299804688 515.150390625 144.549804688 514.650390625 145.25 c 0
 514.049804688 146.200195312 514 146.200195312 514 145.299804688 c 0
 514 144.75 513.650390625 143.950195312 513.25 143.5 c 0
 512.799804688 143 511.349609375 134.849609375 509 119.25 c 0
 504.799804688 91.599609375 503.650390625 85.4501953125 500.75 76.75 c 0
 493.349609375 54.2001953125 481.099609375 43.150390625 459.75 39.75 c 0
 457.299804688 39.349609375 449.75 38.7001953125 443 38.25 c 0
 424.5 37.099609375 418.700195312 36.349609375 418.400390625 35.25 c 0
 418.099609375 34.2998046875 423.5 32.900390625 441.700195312 29.2001953125 c 0
 465.099609375 24.5 471.25 22.4501953125 479.900390625 16.5498046875 c 0
 483.599609375 14.0498046875 488.950195312 8.7001953125 491.099609375 5.400390625 c 0
 491.950195312 4.099609375 492.799804688 3 493 3 c 0
 494 3 498.299804688 -6.900390625 499 -10.75 c 0
 499.25 -12.099609375 499.950195312 -15.150390625 500.450195312 -17.5 c 0
 502.099609375 -24.349609375 502.900390625 -33.599609375 504.5 -62.2001953125 c 0
 505.349609375 -77 506 -89.9501953125 506 -90.900390625 c 0
 506 -91.849609375 506.099609375 -92.5498046875 506.25 -92.4501953125 c 0
 506.349609375 -92.2998046875 508.5 -78.7001953125 511 -62.2001953125 c 0
 516.049804688 -29 517.200195312 -23 520.049804688 -14.25 c 0
 523.650390625 -3.2001953125 527.75 3.9501953125 534.200195312 10.25 c 0
 539.049804688 15 544.099609375 18 550.950195312 20.2998046875 c 0
 557.150390625 22.400390625 563.549804688 23.2998046875 578 24.25 c 0
 595 25.349609375 602.25 26.150390625 602.75 27.0498046875 c 0
 603.450195312 28.150390625 596.900390625 29.849609375 577 33.7001953125 c 0
 554.099609375 38.2001953125 544.549804688 41.650390625 537.849609375 47.9501953125 c 0
 525.650390625 59.4501953125 519.950195312 73.349609375 518.049804688 96.25 c 0
 517.799804688 99.5498046875 517.049804688 111.700195312 516.450195312 123.25 c 0
918.700195312 -411.099609375 m 2
 988.099609375 -340 l 1
 994.049804688 -340 l 1
 1000 -340 l 1
 1000 -344.150390625 l 1
 1000 -348.299804688 l 1
 925.950195312 -424.150390625 l 1
 851.900390625 -500 l 1
 841.849609375 -500 l 1
 831.849609375 -500 l 1
 840.549804688 -491.099609375 l 2
 845.349609375 -486.25 880.5 -450.25 918.700195312 -411.099609375 c 2
EndSplineSet
EndChar

StartChar: b
Encoding: 98 98 9
Width: 1000
Flags: H
LayerCount: 2
Fore
SplineSet
505.049804688 458 m 0
 509.349609375 458.599609375 516.349609375 458.099609375 520.950195312 456.950195312 c 0
 543.200195312 451.299804688 559.950195312 426.650390625 558.849609375 401.25 c 0
 558.349609375 389.950195312 554.799804688 381.099609375 547.25 372.299804688 c 0
 542.150390625 366.349609375 540.900390625 363.549804688 540.900390625 358 c 0
 540.950195312 353.400390625 541.900390625 349.650390625 544.450195312 344.349609375 c 0
 550.900390625 330.849609375 565.299804688 314.549804688 591.849609375 290.650390625 c 0
 608.049804688 276 618.599609375 264.599609375 630.549804688 248.650390625 c 0
 673.099609375 192.099609375 708.349609375 105.400390625 722.700195312 22 c 0
 724.700195312 10.599609375 726.549804688 -3.25 727.849609375 -16.5 c 0
 728.950195312 -27.650390625 729.099609375 -63.900390625 728.099609375 -73.25 c 0
 725.25 -99.25 719.549804688 -118.099609375 710.150390625 -132.150390625 c 0
 706.700195312 -137.349609375 703.25 -141.049804688 693.5 -150.049804688 c 0
 687.099609375 -155.950195312 683.25 -161.049804688 681.150390625 -166.349609375 c 0
 679.900390625 -169.400390625 679.799804688 -170.400390625 679.799804688 -175.75 c 0
 679.799804688 -180.900390625 680 -182.349609375 681.200195312 -186 c 0
 683.200195312 -192.049804688 687.099609375 -200 692.75 -209.5 c 0
 701.599609375 -224.400390625 705.049804688 -232.200195312 706 -239.650390625 c 0
 707.700195312 -253.299804688 700 -264.849609375 676.700195312 -283.549804688 c 0
 673.450195312 -286.150390625 658.200195312 -297.849609375 642.799804688 -309.549804688 c 2
 614.849609375 -330.75 l 1
 620.799804688 -331.099609375 l 2
 624.099609375 -331.349609375 650.849609375 -332.849609375 680.25 -334.5 c 0
 759.650390625 -338.950195312 771.75 -339.799804688 791.5 -342.549804688 c 0
 824.599609375 -347.049804688 837.799804688 -354.349609375 842.349609375 -370.5 c 0
 843.650390625 -375.25 843.650390625 -395.200195312 842.349609375 -400 c 0
 840.450195312 -407 836.75 -412.549804688 831.75 -416 c 0
 817.849609375 -425.549804688 792.299804688 -429.650390625 724 -433.25 c 0
 636.799804688 -437.849609375 604.150390625 -433.599609375 574.150390625 -413.700195312 c 0
 566.599609375 -408.700195312 559.599609375 -402.900390625 548.5 -392.450195312 c 0
 543.400390625 -387.700195312 532 -376.950195312 523.150390625 -368.650390625 c 2
 507.049804688 -353.5 l 1
 486.599609375 -376.099609375 l 2
 465.349609375 -399.549804688 462.75 -402.099609375 454.099609375 -407.450195312 c 0
 429.099609375 -422.900390625 384.099609375 -434.450195312 332.25 -438.700195312 c 0
 275.5 -443.400390625 222.799804688 -438.25 194.849609375 -425.349609375 c 0
 187 -421.700195312 179.950195312 -416.25 176.700195312 -411.200195312 c 0
 174.849609375 -408.299804688 172.200195312 -400.950195312 170.450195312 -394 c 0
 168.799804688 -387.200195312 168.75 -375.349609375 170.349609375 -370.25 c 0
 174.450195312 -357.400390625 186.349609375 -348 205.900390625 -342.299804688 c 0
 217.25 -338.950195312 229.049804688 -336.799804688 244.5 -335.299804688 c 0
 264.849609375 -333.299804688 275.150390625 -333 351.150390625 -332.549804688 c 2
 406.099609375 -332.25 l 1
 392.150390625 -321.5 l 2
 362.549804688 -298.700195312 346.549804688 -286.150390625 341.25 -281.700195312 c 0
 326.299804688 -269.200195312 319.25 -260.849609375 315.950195312 -251.700195312 c 0
 314.349609375 -247.400390625 314.349609375 -239.700195312 315.950195312 -234.200195312 c 0
 317.400390625 -229.049804688 321.599609375 -220.349609375 327.200195312 -211 c 0
 333 -201.349609375 338.150390625 -190.75 339.799804688 -185.25 c 0
 341.599609375 -179.099609375 341.700195312 -172.25 340.049804688 -167.400390625 c 0
 338.25 -162.049804688 334.549804688 -156.900390625 328.349609375 -151 c 0
 316.299804688 -139.549804688 313.599609375 -136.700195312 310.5 -132 c 0
 292.599609375 -104.75 287.200195312 -56.7998046875 295.299804688 3.5 c 0
 307.049804688 91.599609375 344.349609375 187.75 390.450195312 248.849609375 c 0
 403.75 266.5 411.950195312 275.349609375 430.25 291.75 c 0
 459.549804688 318.049804688 475.650390625 337.799804688 479.25 352 c 0
 481.099609375 359.200195312 479.549804688 365.75 474.799804688 370.950195312 c 0
 469.049804688 377.25 465.900390625 382.599609375 463.700195312 389.75 c 0
 462.400390625 394 462.299804688 394.799804688 462.299804688 403.5 c 0
 462.299804688 411.950195312 462.400390625 413.200195312 463.650390625 417.650390625 c 0
 469.549804688 439.450195312 485.799804688 455.349609375 505.049804688 458 c 0
514.549804688 429 m 0
 504.25 430.900390625 494.200195312 425.75 489.599609375 416.150390625 c 0
 487.799804688 412.299804688 487.75 412.150390625 487.75 406.25 c 0
 487.75 400.400390625 487.799804688 400.150390625 489.549804688 396.450195312 c 0
 496.450195312 382 514.849609375 378.700195312 526.450195312 389.75 c 0
 532.450195312 395.450195312 534.849609375 404.049804688 532.75 412.150390625 c 0
 531.700195312 416.25 530.400390625 418.5 527.200195312 421.950195312 c 0
 524.049804688 425.400390625 519.049804688 428.150390625 514.549804688 429 c 0
520.5 310.75 m 0
 517.599609375 311.650390625 514.849609375 312.150390625 511.75 312.25 c 0
 506.849609375 312.450195312 506.450195312 312.400390625 501.150390625 311 c 0
 491.849609375 308.5 478.150390625 300.099609375 465.900390625 289.450195312 c 0
 423.299804688 252.200195312 376.349609375 182.25 351.650390625 119.25 c 0
 340.799804688 91.599609375 325 34.099609375 319.049804688 0.75 c 0
 315.349609375 -19.900390625 314.25 -32.400390625 314.650390625 -48.9501953125 c 0
 315 -65.150390625 316.849609375 -75.849609375 321.25 -87.7998046875 c 0
 328.450195312 -107.299804688 344.049804688 -128.450195312 358.099609375 -137.799804688 c 0
 381.549804688 -153.400390625 419.75 -163.049804688 476.25 -167.599609375 c 0
 488.849609375 -168.599609375 536.400390625 -168.450195312 549.75 -167.349609375 c 0
 601.200195312 -163.049804688 639.650390625 -153.200195312 661.849609375 -138.549804688 c 0
 671.150390625 -132.400390625 682.5 -120.700195312 689.5 -110.099609375 c 0
 713.950195312 -73.150390625 712.150390625 -23.7001953125 682.700195312 78.25 c 0
 673.75 109.25 667.049804688 126.75 654.25 152.75 c 0
 644.349609375 172.799804688 634.200195312 190.599609375 622.150390625 208.950195312 c 0
 586.349609375 263.450195312 547.700195312 302.150390625 520.5 310.75 c 0
545.25 -187.5 m 0
 530.950195312 -186.799804688 503.349609375 -186.549804688 489.150390625 -187 c 0
 441.950195312 -188.549804688 400.650390625 -194.700195312 377.450195312 -203.650390625 c 0
 364 -208.849609375 358.799804688 -212.549804688 351.900390625 -221.75 c 0
 343.5 -232.900390625 340.900390625 -240.299804688 343.450195312 -245.75 c 0
 346 -251.25 354.849609375 -256.299804688 367.150390625 -259.25 c 0
 416 -271.099609375 585.150390625 -272.299804688 642.599609375 -261.200195312 c 0
 650.950195312 -259.599609375 655.450195312 -258.099609375 662.799804688 -254.5 c 0
 675.400390625 -248.349609375 679.099609375 -241.849609375 675.299804688 -232.549804688 c 0
 671.700195312 -223.700195312 662.099609375 -212.599609375 654.5 -208.400390625 c 0
 634.5 -197.450195312 595.900390625 -190.099609375 545.25 -187.5 c 0
523.200195312 -292.25 m 0
 509.599609375 -291.700195312 507.5 -291.650390625 499.5 -292.049804688 c 0
 473.349609375 -293.299804688 449.900390625 -299.450195312 436.75 -308.5 c 0
 430.700195312 -312.700195312 427.150390625 -316.900390625 423.799804688 -323.700195312 c 0
 421.349609375 -328.650390625 420.400390625 -330.099609375 417.299804688 -333.150390625 c 0
 406 -344.299804688 384.450195312 -350.549804688 348.75 -353 c 0
 344.650390625 -353.299804688 329.450195312 -353.75 315 -354 c 0
 289.650390625 -354.450195312 276.799804688 -355 265.25 -356.049804688 c 0
 208.650390625 -361.099609375 183.25 -375.950195312 196.349609375 -396.400390625 c 0
 198.849609375 -400.349609375 202.400390625 -403.950195312 205.150390625 -405.349609375 c 0
 214.650390625 -410.150390625 245.549804688 -414.349609375 283.450195312 -416.049804688 c 0
 300.799804688 -416.799804688 339.049804688 -416.400390625 351 -415.299804688 c 0
 374.900390625 -413.099609375 390.950195312 -409.75 406.5 -403.700195312 c 0
 423.099609375 -397.200195312 435.900390625 -388.049804688 450.25 -372.5 c 0
 471.549804688 -349.400390625 489.5 -337.549804688 505.549804688 -336.049804688 c 0
 520.700195312 -334.650390625 533.25 -339.5 551 -353.650390625 c 0
 553.049804688 -355.299804688 562.049804688 -364 571 -373 c 0
 580.049804688 -382.099609375 589.049804688 -390.700195312 591.349609375 -392.450195312 c 0
 606.200195312 -403.549804688 621.799804688 -409.400390625 644.5 -412.299804688 c 0
 648.900390625 -412.849609375 656.650390625 -413.150390625 670.75 -413.349609375 c 0
 716.650390625 -413.900390625 764.049804688 -408.950195312 791.25 -400.75 c 0
 809 -395.349609375 817.700195312 -388.150390625 814.25 -381.549804688 c 0
 813.049804688 -379.200195312 808.75 -375.700195312 804.400390625 -373.599609375 c 0
 788.75 -366.049804688 762 -361.150390625 718.75 -358 c 0
 673.950195312 -354.75 640.299804688 -347.849609375 618.849609375 -337.599609375 c 0
 607.599609375 -332.25 602.349609375 -328.150390625 597.849609375 -321.349609375 c 0
 592.950195312 -313.950195312 586.799804688 -308.849609375 577 -304.150390625 c 0
 563.849609375 -297.849609375 542.200195312 -293.049804688 523.200195312 -292.25 c 0
503.549804688 165.700195312 m 0
 506.75 166.549804688 513.299804688 166.700195312 516.5 165.950195312 c 0
 524.400390625 164.150390625 530.700195312 158.349609375 535.349609375 148.650390625 c 0
 539.450195312 140.099609375 541.150390625 130.200195312 541.700195312 112.5 c 0
 542.099609375 100.900390625 542.700195312 95.400390625 544.299804688 89 c 0
 546.700195312 79.599609375 551.200195312 72.599609375 557.700195312 68.4501953125 c 0
 563.599609375 64.599609375 569.650390625 63.150390625 582.75 62.5 c 0
 596.25 61.7998046875 604.349609375 59.400390625 612.299804688 53.75 c 0
 629.099609375 41.75 629.099609375 20.75 612.25 8.75 c 0
 604.400390625 3.150390625 596.150390625 0.7001953125 582.75 0 c 0
 566.25 -0.849609375 560 -2.900390625 553.150390625 -9.75 c 0
 550.349609375 -12.5498046875 549.049804688 -14.349609375 547.5 -17.5498046875 c 0
 543.700195312 -25.4501953125 542.25 -33.75 541.700195312 -49.75 c 0
 541.150390625 -67.7998046875 539.450195312 -77.599609375 535.349609375 -86.150390625 c 0
 529.549804688 -98.2998046875 521.700195312 -103.950195312 510.5 -104 c 0
 494.450195312 -104.049804688 483.75 -91.150390625 480.25 -67.75 c 0
 479.849609375 -65 479.299804688 -56.900390625 479.049804688 -49.75 c 0
 478.5 -35.5498046875 477.700195312 -29.7001953125 475.450195312 -22.75 c 0
 472.200195312 -13 466.900390625 -6.9501953125 458.599609375 -3.5 c 0
 453.700195312 -1.400390625 448.349609375 -0.5 438.5 0 c 0
 426.25 0.599609375 421.049804688 1.849609375 412.900390625 6.099609375 c 0
 409.75 7.7001953125 407.700195312 9.25 404.5 12.5 c 0
 398.299804688 18.650390625 396 23.75 396 31.25 c 0
 396 38.75 398.299804688 43.849609375 404.5 50 c 0
 407.849609375 53.400390625 409.700195312 54.75 413.25 56.599609375 c 0
 421.099609375 60.5498046875 429.049804688 62.5 437.700195312 62.5 c 0
 451.450195312 62.5 461 65.5 467.450195312 71.900390625 c 0
 471.450195312 75.849609375 473.400390625 79.150390625 475.450195312 85.25 c 0
 477.700195312 92.2001953125 478.5 98.0498046875 479.049804688 112.25 c 0
 479.299804688 119.400390625 479.849609375 127.5 480.25 130.25 c 0
 483.150390625 149.900390625 491.400390625 162.450195312 503.549804688 165.700195312 c 0
516.200195312 127.75 m 0
 515.450195312 141.799804688 514.700195312 153.400390625 514.549804688 153.599609375 c 0
 514.349609375 153.799804688 512.25 140.75 509.799804688 124.599609375 c 0
 504.75 91.0498046875 503.75 85.75 500.75 76.75 c 0
 493.349609375 54.2001953125 481.099609375 43.150390625 459.75 39.75 c 0
 457.299804688 39.349609375 449.75 38.7001953125 443 38.25 c 0
 424.5 37.099609375 418.700195312 36.349609375 418.400390625 35.25 c 0
 418.099609375 34.2998046875 423.5 32.900390625 441.700195312 29.2001953125 c 0
 451.849609375 27.150390625 462.25 24.7998046875 464.75 23.9501953125 c 0
 487.700195312 16.25 499 0.400390625 502.25 -28.7001953125 c 0
 502.900390625 -34.349609375 506 -85.9501953125 506 -90.900390625 c 0
 506 -91.849609375 506.099609375 -92.5498046875 506.25 -92.4501953125 c 0
 506.349609375 -92.2998046875 508.5 -78.7001953125 511 -62.2001953125 c 0
 516.049804688 -29 517.200195312 -23 520.049804688 -14.25 c 0
 523.650390625 -3.2001953125 527.75 3.9501953125 534.200195312 10.25 c 0
 539.049804688 15 544.099609375 18 550.950195312 20.2998046875 c 0
 557.150390625 22.400390625 563.549804688 23.2998046875 578 24.25 c 0
 595 25.349609375 602.25 26.150390625 602.75 27.0498046875 c 0
 603.450195312 28.150390625 596.950195312 29.7998046875 577 33.75 c 0
 554.049804688 38.25 546.049804688 41.2998046875 537.049804688 48.900390625 c 0
 528.349609375 56.2998046875 521.75 69.849609375 519.299804688 85.2998046875 c 0
 518.200195312 92.2998046875 517.75 98.849609375 516.200195312 127.75 c 0
EndSplineSet
EndChar

StartChar: f
Encoding: 102 102 10
Width: 1000
Flags: H
LayerCount: 2
Fore
SplineSet
253 416.200195312 m 0
 254.5 416.299804688 268.150390625 416.299804688 283.25 416.25 c 0
 304.950195312 416.150390625 312.049804688 415.950195312 316.950195312 415.299804688 c 0
 337.549804688 412.650390625 346.25 407.450195312 350.650390625 395.150390625 c 0
 352.849609375 389.150390625 353.5 383.75 354.049804688 368.25 c 0
 354.700195312 348.849609375 355.950195312 341 359.950195312 331.450195312 c 0
 365.900390625 317.349609375 378.299804688 310.150390625 391.400390625 313.25 c 0
 396.099609375 314.349609375 399.400390625 316.25 403.299804688 320.200195312 c 0
 407.599609375 324.5 410.400390625 329.349609375 412.700195312 336.5 c 0
 415.299804688 344.549804688 416 349.700195312 416.5 365 c 0
 417.200195312 385.75 418.150390625 391.799804688 421.599609375 398.650390625 c 0
 423.400390625 402.25 427.700195312 406.650390625 431.25 408.599609375 c 0
 439.299804688 412.900390625 450.700195312 414.950195312 472.5 416.049804688 c 0
 486.299804688 416.700195312 549.799804688 416.349609375 558.75 415.549804688 c 0
 589.25 412.799804688 599.349609375 406.400390625 602.75 387.849609375 c 0
 603.200195312 385.400390625 603.700195312 377.75 604 368.799804688 c 0
 604.650390625 348.900390625 605.900390625 341.049804688 609.950195312 331.450195312 c 0
 615.900390625 317.349609375 628.299804688 310.150390625 641.400390625 313.25 c 0
 646.099609375 314.349609375 649.400390625 316.25 653.299804688 320.200195312 c 0
 657.599609375 324.5 660.400390625 329.349609375 662.700195312 336.5 c 0
 665.25 344.349609375 666 349.75 666.5 364 c 0
 667.049804688 379.950195312 667.349609375 383 668.549804688 389.25 c 0
 671.650390625 404.799804688 680.5 411.950195312 700 414.700195312 c 0
 709.900390625 416.099609375 719.049804688 416.5 741.25 416.5 c 0
 769.650390625 416.5 781 415.650390625 789.75 412.950195312 c 0
 802.75 408.950195312 808.75 400.75 811 383.75 c 0
 812.450195312 372.799804688 812.950195312 344.799804688 812 329.75 c 0
 809.700195312 293.650390625 800.799804688 264.799804688 790.400390625 259.799804688 c 0
 774.299804688 252.049804688 698.400390625 246.650390625 575.25 244.450195312 c 0
 538.650390625 243.799804688 418.299804688 244.099609375 389.5 244.950195312 c 0
 296.75 247.599609375 245 251.799804688 230.950195312 257.700195312 c 0
 221.900390625 261.5 213.099609375 288.650390625 209.400390625 324 c 0
 208.349609375 333.950195312 208.549804688 375 209.650390625 382.75 c 0
 210.75 390.5 211.75 394.400390625 213.75 398.849609375 c 0
 218.849609375 410 229.349609375 414.650390625 253 416.200195312 c 0
274.299804688 227.650390625 m 2
 274.599609375 229 l 1
 512.25 229 l 1
 749.950195312 229 l 1
 750.150390625 148.650390625 l 2
 750.349609375 66.2001953125 750.400390625 63.25 752.549804688 40 c 0
 757.549804688 -15.75 770.75 -64.400390625 799.900390625 -134.5 c 0
 807.75 -153.5 813.450195312 -166.400390625 832.599609375 -209 c 0
 851.900390625 -251.900390625 860.650390625 -271.849609375 868.75 -291.25 c 0
 892.599609375 -348.549804688 899.549804688 -378.25 893.950195312 -398.5 c 0
 887.950195312 -420.200195312 865.549804688 -430.650390625 816.25 -434.75 c 0
 787 -437.150390625 761.5 -437.5 599.549804688 -437.5 c 2
 456.900390625 -437.5 l 1
 457.200195312 -434.099609375 l 2
 458.099609375 -424.700195312 462.099609375 -361.950195312 462.549804688 -350.099609375 c 0
 463.849609375 -318.549804688 460.5 -287 455.400390625 -281.900390625 c 0
 451.599609375 -278.099609375 437.099609375 -286.400390625 413.75 -305.700195312 c 0
 400.049804688 -317.049804688 391.150390625 -325.349609375 365.5 -350.75 c 0
 343.549804688 -372.450195312 333.25 -381.950195312 321 -391.799804688 c 0
 275.25 -428.400390625 234.400390625 -443.200195312 198.849609375 -435.950195312 c 0
 191.349609375 -434.450195312 185.599609375 -432.400390625 177.75 -428.5 c 0
 170 -424.650390625 164.049804688 -420.549804688 157 -414.349609375 c 0
 138.150390625 -397.799804688 119.549804688 -367.700195312 111.349609375 -340.5 c 0
 102.099609375 -309.900390625 103.950195312 -280.849609375 116.799804688 -255 c 0
 121.099609375 -246.349609375 124.549804688 -241.150390625 132.049804688 -231.75 c 0
 140.849609375 -220.799804688 145.650390625 -212.900390625 155.200195312 -193.549804688 c 0
 191.099609375 -121.049804688 237.200195312 20.2001953125 255.950195312 115 c 0
 259.099609375 131.049804688 259.099609375 131.049804688 267.25 183 c 0
 270.950195312 206.799804688 274.150390625 226.849609375 274.299804688 227.650390625 c 2
418 178.200195312 m 0
 405.75 181 395.25 178.25 387.25 170.25 c 0
 379.25 162.150390625 375.849609375 152.200195312 375 134.25 c 0
 374.650390625 127.75 374.200195312 123.549804688 373.549804688 120.900390625 c 0
 370.900390625 110.650390625 365.400390625 105.5 357.049804688 105.5 c 0
 352.150390625 105.5 348.400390625 106.5 342.75 109.200195312 c 0
 335.299804688 112.849609375 328.049804688 118.349609375 316.799804688 129 c 0
 307 138.25 301.5 141.950195312 297.599609375 142 c 0
 295.200195312 142 294.049804688 141.200195312 293 138.849609375 c 0
 290.200195312 132.349609375 291.950195312 123.700195312 298.200195312 113.099609375 c 0
 311.5 90.599609375 340.299804688 66.25 350.400390625 69 c 0
 352.950195312 69.650390625 353.900390625 71.099609375 354.450195312 75.2998046875 c 0
 354.950195312 78.599609375 356 80.5 357.349609375 80.5 c 0
 358.400390625 80.5 361.049804688 79.0498046875 363.099609375 77.2998046875 c 0
 365.900390625 74.900390625 370.5 69.2001953125 375.049804688 62.400390625 c 0
 379.599609375 55.650390625 384.099609375 50.75 386.200195312 50.2001953125 c 0
 388.349609375 49.650390625 389.950195312 50.75 391.25 53.650390625 c 0
 393.950195312 59.5498046875 394.849609375 68.7001953125 395.5 96 c 0
 396.200195312 125.299804688 397.950195312 139.099609375 402.549804688 151 c 0
 408.599609375 166.75 417.950195312 168.799804688 427.5 156.549804688 c 0
 434.299804688 147.849609375 441.400390625 130.549804688 446.200195312 110.950195312 c 0
 447.150390625 107 449.200195312 98.7001953125 450.700195312 92.5 c 0
 455.400390625 73.2998046875 459.349609375 63 463.849609375 58 c 0
 469 52.25 473.299804688 53.9501953125 480.5 64.4501953125 c 0
 484.950195312 71 490.299804688 74.9501953125 497.099609375 76.7001953125 c 0
 522.400390625 83.25 565.650390625 60.900390625 620.25 13.0498046875 c 0
 631.900390625 2.849609375 645.400390625 -10.0498046875 663.5 -28.2001953125 c 0
 687.450195312 -52.2998046875 700.700195312 -64.599609375 714.450195312 -75.599609375 c 0
 733.650390625 -90.9501953125 746.450195312 -97.2001953125 747.75 -91.849609375 c 0
 748.25 -90 746 -84.25 742.700195312 -78.7001953125 c 0
 731.5 -59.849609375 701.900390625 -24.849609375 671.75 5.25 c 0
 635.200195312 41.7998046875 591.450195312 75 559.75 90.2998046875 c 0
 551.650390625 94.2001953125 548.299804688 95.4501953125 538.25 98.25 c 0
 523.099609375 102.450195312 505.450195312 111 489.200195312 122.049804688 c 0
 476.049804688 131 464.700195312 141.099609375 455.5 152 c 0
 443.150390625 166.650390625 430.75 175.299804688 418 178.200195312 c 0
327.75 -54.5498046875 m 0
 312.75 -50.900390625 298.650390625 -59.349609375 295.549804688 -73.900390625 c 0
 295.25 -75.349609375 295 -78.650390625 295 -81.2001953125 c 0
 295 -98.099609375 307.75 -116.549804688 323.349609375 -122.299804688 c 0
 326.950195312 -123.650390625 327.75 -123.75 334.25 -123.75 c 0
 340.599609375 -123.700195312 341.549804688 -123.599609375 344.599609375 -122.400390625 c 0
 351.099609375 -119.799804688 357.099609375 -115.099609375 361.299804688 -109.200195312 c 0
 364.25 -105.099609375 365.099609375 -102.549804688 365.049804688 -98 c 0
 365.049804688 -93.150390625 364.049804688 -89.349609375 361.25 -83.650390625 c 0
 354.599609375 -70.099609375 340.150390625 -57.599609375 327.75 -54.5498046875 c 0
734.650390625 -142.150390625 m 0
 730.849609375 -138.299804688 729.700195312 -139.599609375 730.200195312 -147.200195312 c 0
 731.349609375 -165.799804688 742.950195312 -205.75 762 -256.5 c 0
 785.599609375 -319.450195312 811.849609375 -375.400390625 823.099609375 -386.599609375 c 0
 826.150390625 -389.700195312 827.700195312 -389.799804688 828.849609375 -387.099609375 c 0
 829.5 -385.599609375 829.549804688 -384.049804688 829.349609375 -379 c 0
 828.25 -356.349609375 808.950195312 -296.5 783.5 -237 c 0
 763.5 -190.200195312 743.099609375 -150.549804688 734.650390625 -142.150390625 c 0
552.650390625 -149.900390625 m 0
 551.599609375 -148.75 549.150390625 -148.75 547.25 -149.900390625 c 0
 535.349609375 -157.200195312 513.599609375 -210.950195312 505.049804688 -254.25 c 0
 502.5 -267.150390625 501.849609375 -273.049804688 501.799804688 -283 c 0
 501.75 -291.099609375 501.849609375 -292.450195312 502.650390625 -293.650390625 c 0
 503.849609375 -295.450195312 505.099609375 -295.349609375 507.450195312 -293.200195312 c 0
 512.950195312 -288.25 522.25 -269.5 531.5 -244.700195312 c 0
 548.700195312 -198.700195312 558.200195312 -156.049804688 552.650390625 -149.900390625 c 0
492.299804688 -167.200195312 m 0
 491.099609375 -166.349609375 491.150390625 -166.349609375 489.099609375 -167.25 c 0
 486.799804688 -168.25 482.049804688 -172.900390625 477.549804688 -178.5 c 0
 457.75 -203.200195312 437.900390625 -248.299804688 446.099609375 -249.900390625 c 0
 453.299804688 -251.299804688 477.650390625 -215.849609375 488.650390625 -188 c 0
 492.900390625 -177.25 494.400390625 -168.75 492.299804688 -167.200195312 c 0
241.150390625 -275.900390625 m 0
 239.549804688 -274.450195312 237.400390625 -274.25 235.950195312 -275.450195312 c 0
 234.150390625 -276.849609375 232.049804688 -281.75 230.950195312 -287.150390625 c 0
 229.950195312 -292.099609375 229 -302.799804688 229 -309.150390625 c 0
 229 -327.700195312 218.25 -356.200195312 204.150390625 -374.950195312 c 0
 202.650390625 -376.950195312 198 -382.150390625 193.849609375 -386.450195312 c 0
 177.150390625 -403.75 173.25 -409.5 175.650390625 -413.200195312 c 0
 177.200195312 -415.5 180.700195312 -416.25 190.799804688 -416.25 c 2
 199.799804688 -416.25 l 1
 204.049804688 -414.150390625 l 2
 215 -408.700195312 225.349609375 -394.75 233.200195312 -374.900390625 c 0
 238.400390625 -361.700195312 242.299804688 -344.150390625 245.099609375 -321 c 0
 245.5 -317.849609375 245.75 -310.049804688 245.75 -301.5 c 0
 245.75 -289.650390625 245.599609375 -286.700195312 244.849609375 -283.849609375 c 0
 243.900390625 -280 242.549804688 -277.150390625 241.150390625 -275.900390625 c 0
182.349609375 -281.5 m 0
 181.75 -280.25 180.849609375 -279.200195312 180.400390625 -279.099609375 c 0
 178.549804688 -278.75 175.700195312 -283.200195312 172.450195312 -291.349609375 c 0
 165.450195312 -309 151.5 -327.799804688 138 -337.849609375 c 0
 132.599609375 -341.900390625 130.799804688 -343.650390625 130.049804688 -345.650390625 c 0
 129.299804688 -347.599609375 129.349609375 -347.700195312 130.799804688 -349.450195312 c 0
 132.549804688 -351.549804688 137.200195312 -352.900390625 145.099609375 -353.549804688 c 0
 163.25 -355.099609375 174.950195312 -349.799804688 181 -337.299804688 c 0
 185.099609375 -328.849609375 186.5 -318.200195312 185.599609375 -302.549804688 c 0
 184.900390625 -291.200195312 183.950195312 -284.700195312 182.349609375 -281.5 c 0
EndSplineSet
EndChar

StartChar: d
Encoding: 100 100 11
Width: 1000
Flags: H
LayerCount: 2
Fore
SplineSet
250.25 416 m 0
 253.299804688 416.200195312 268.150390625 416.349609375 283.25 416.25 c 0
 304.849609375 416.150390625 312.099609375 415.900390625 316.950195312 415.299804688 c 0
 337.549804688 412.650390625 346.25 407.450195312 350.650390625 395.150390625 c 0
 352.849609375 389.150390625 353.5 383.75 354.049804688 368.25 c 0
 354.700195312 348.849609375 355.950195312 341 359.950195312 331.450195312 c 0
 365.900390625 317.349609375 378.299804688 310.150390625 391.400390625 313.25 c 0
 396.099609375 314.349609375 399.400390625 316.25 403.299804688 320.200195312 c 0
 407.599609375 324.5 410.400390625 329.349609375 412.700195312 336.5 c 0
 415.299804688 344.549804688 416 349.700195312 416.5 365 c 0
 417.200195312 385.75 418.150390625 391.799804688 421.599609375 398.650390625 c 0
 423.400390625 402.25 427.700195312 406.650390625 431.25 408.599609375 c 0
 439.299804688 412.900390625 450.700195312 414.950195312 472.5 416.049804688 c 0
 486.299804688 416.700195312 549.799804688 416.349609375 558.75 415.549804688 c 0
 589.25 412.799804688 599.349609375 406.400390625 602.75 387.849609375 c 0
 603.200195312 385.400390625 603.700195312 377.75 604 368.799804688 c 0
 604.650390625 348.900390625 605.900390625 341.049804688 609.950195312 331.450195312 c 0
 615.900390625 317.349609375 628.299804688 310.150390625 641.400390625 313.25 c 0
 646.099609375 314.349609375 649.400390625 316.25 653.299804688 320.200195312 c 0
 657.599609375 324.5 660.400390625 329.349609375 662.700195312 336.5 c 0
 665.25 344.349609375 666 349.75 666.5 364 c 0
 667.049804688 379.950195312 667.349609375 383 668.549804688 389.25 c 0
 672.200195312 407.650390625 682.799804688 413.950195312 713.650390625 416.049804688 c 0
 726.049804688 416.900390625 769.849609375 416.400390625 777.75 415.299804688 c 0
 799.799804688 412.349609375 807.549804688 405.400390625 810.700195312 385.75 c 0
 812.349609375 375.25 813.049804688 347.099609375 812 333.700195312 c 0
 809.599609375 304 800.400390625 274.400390625 788.5 258.099609375 c 0
 787.200195312 256.25 783.400390625 252.150390625 780.150390625 249 c 0
 771.900390625 241.049804688 767.450195312 234.799804688 762.5 224.400390625 c 0
 754 206.299804688 748.799804688 182.349609375 746.950195312 152.5 c 0
 746.200195312 140.349609375 746.650390625 105.549804688 747.700195312 92.25 c 0
 752.950195312 28.349609375 767.900390625 -40 792 -109.75 c 0
 802.900390625 -141.349609375 811.150390625 -161.400390625 834.700195312 -213.700195312 c 0
 867.950195312 -287.5 880.799804688 -318.75 888.5 -344.5 c 0
 907.5 -408 891.099609375 -428.5 816.25 -434.75 c 0
 787 -437.150390625 761.5 -437.5 599.549804688 -437.5 c 2
 456.900390625 -437.5 l 1
 457.200195312 -434.150390625 l 2
 458.099609375 -424.700195312 462.099609375 -361.950195312 462.549804688 -350.099609375 c 0
 463.849609375 -318.549804688 460.5 -287 455.400390625 -281.900390625 c 0
 451.5 -278 436.849609375 -286.5 412.5 -306.799804688 c 0
 399.700195312 -317.450195312 389.75 -326.75 366.25 -350 c 0
 343.549804688 -372.450195312 333.25 -381.950195312 321 -391.799804688 c 0
 275.25 -428.400390625 234.400390625 -443.200195312 198.849609375 -435.950195312 c 0
 191.349609375 -434.450195312 185.599609375 -432.400390625 177.75 -428.5 c 0
 170 -424.650390625 164.049804688 -420.549804688 157 -414.349609375 c 0
 138.150390625 -397.799804688 119.549804688 -367.700195312 111.349609375 -340.5 c 0
 102.099609375 -309.900390625 103.950195312 -280.849609375 116.799804688 -255 c 0
 121.150390625 -246.25 124.5 -241.150390625 132.450195312 -231.25 c 0
 140.049804688 -221.75 146.099609375 -211.75 154.75 -194.25 c 0
 195.400390625 -112.099609375 246.349609375 48.849609375 260.200195312 138.75 c 0
 268.150390625 190.400390625 266.049804688 217.099609375 252.450195312 236.5 c 0
 251.049804688 238.549804688 246.299804688 243.75 242 248 c 0
 237.099609375 252.799804688 233.150390625 257.200195312 231.599609375 259.549804688 c 0
 220.150390625 276.75 211.450195312 304.599609375 208.950195312 332.099609375 c 0
 208.150390625 341.150390625 208.650390625 375.299804688 209.700195312 383 c 0
 211.25 393.900390625 213.700195312 400.650390625 217.900390625 405.150390625 c 0
 224.049804688 411.75 232.700195312 414.650390625 250.25 416 c 0
298.75 394.950195312 m 0
 292.25 395.700195312 277.75 396 270.450195312 395.5 c 0
 248.650390625 394.099609375 237.650390625 387.900390625 232.700195312 374.299804688 c 0
 228.799804688 363.599609375 228.099609375 344.700195312 231 328.5 c 0
 235.799804688 301.849609375 247.650390625 277.75 258.849609375 271.849609375 c 0
 280.700195312 260.450195312 347.150390625 252.849609375 450 249.950195312 c 0
 474.799804688 249.25 546.150390625 249.25 571 249.950195312 c 0
 675.349609375 252.900390625 744 260.950195312 763.25 272.549804688 c 0
 774.049804688 279.049804688 786.25 305.299804688 790.299804688 330.75 c 0
 791.349609375 337.549804688 791.799804688 354.450195312 791.049804688 361 c 0
 788.700195312 381.099609375 780.799804688 390.25 762.650390625 393.950195312 c 0
 748.5 396.849609375 723.349609375 396.25 711.25 392.75 c 0
 700.549804688 389.650390625 693.75 382.950195312 690.549804688 372.25 c 0
 688.700195312 366.150390625 688 359.25 687.5 344 c 0
 686.900390625 323.400390625 685.5 315.349609375 681.25 307.75 c 0
 679.5 304.599609375 675.049804688 300 671.950195312 298.099609375 c 0
 669.049804688 296.349609375 663.599609375 294.450195312 658.349609375 293.450195312 c 0
 648.549804688 291.549804688 630.75 291.150390625 618.25 292.549804688 c 0
 600.549804688 294.549804688 591.150390625 300.950195312 586.849609375 314 c 0
 584.650390625 320.650390625 583.950195312 326.25 583.450195312 342.5 c 0
 583.200195312 350.900390625 582.75 359.799804688 582.450195312 362.25 c 0
 579.900390625 383.400390625 571.5 391.049804688 547.5 394.200195312 c 0
 536.849609375 395.599609375 512.700195312 396.25 494.849609375 395.549804688 c 0
 486.299804688 395.25 477.349609375 394.75 475 394.5 c 0
 457.25 392.400390625 447.549804688 387.599609375 442.799804688 378.549804688 c 0
 439.099609375 371.400390625 438.099609375 365.150390625 437.5 344.75 c 0
 436.900390625 323.400390625 435.549804688 315.450195312 431.25 307.75 c 0
 429.5 304.599609375 425.049804688 300 421.950195312 298.099609375 c 0
 419.049804688 296.349609375 413.599609375 294.450195312 408.349609375 293.450195312 c 0
 398.549804688 291.549804688 380.75 291.150390625 368.25 292.549804688 c 0
 350.549804688 294.549804688 341.200195312 300.900390625 336.799804688 314.049804688 c 0
 334.700195312 320.299804688 334 326.25 333.5 341.5 c 0
 332.950195312 357.849609375 332.400390625 363.799804688 330.75 370.25 c 0
 326.900390625 385.400390625 317.400390625 392.75 298.75 394.950195312 c 0
729 91.4501953125 m 2
 729 229 l 1
 511.5 229 l 2
 329.5 229 294 228.900390625 294 228.349609375 c 0
 294 227.25 280.650390625 133.049804688 278.700195312 120.25 c 0
 262.599609375 15.349609375 217.150390625 -137.799804688 179.700195312 -213.299804688 c 0
 169.549804688 -233.75 163.950195312 -242.049804688 152.950195312 -253 c 0
 148.650390625 -257.25 144.25 -261.849609375 143.150390625 -263.25 c 0
 137.700195312 -270 131.799804688 -280.950195312 129.049804688 -289.25 c 0
 122.650390625 -308.75 125.150390625 -325.599609375 135.349609375 -331.099609375 c 0
 138.200195312 -332.650390625 143.25 -333.700195312 145.900390625 -333.200195312 c 0
 154.099609375 -331.75 163.400390625 -321.700195312 169.299804688 -307.900390625 c 0
 170.299804688 -305.599609375 172.299804688 -299.450195312 173.849609375 -294.25 c 0
 178.549804688 -278 180.650390625 -275.049804688 182.5 -282 c 0
 184.400390625 -289.150390625 185.650390625 -314.299804688 184.5 -323.299804688 c 0
 182.700195312 -337.75 177.200195312 -349.400390625 170.549804688 -352.700195312 c 0
 169.150390625 -353.400390625 166.849609375 -354 164.549804688 -354.200195312 c 0
 160 -354.599609375 157.25 -355.75 155.150390625 -358.150390625 c 0
 151 -362.849609375 152.650390625 -370.599609375 159.849609375 -380.25 c 0
 165.349609375 -387.650390625 171.150390625 -392.450195312 176.599609375 -394.299804688 c 0
 179.849609375 -395.349609375 186.349609375 -395.049804688 189.25 -393.700195312 c 0
 198.25 -389.5 205.900390625 -380.5 213.950195312 -364.5 c 0
 221.200195312 -350.099609375 223.400390625 -344.049804688 238.299804688 -296.349609375 c 0
 244.049804688 -277.950195312 248.799804688 -263.150390625 248.900390625 -263.400390625 c 0
 249 -263.700195312 246.450195312 -282.099609375 243.299804688 -304.299804688 c 0
 240.150390625 -326.549804688 237.200195312 -348 236.75 -352 c 0
 232.849609375 -389.299804688 235.599609375 -416.5 243.25 -416.5 c 0
 247.599609375 -416.5 262.599609375 -404.599609375 289.200195312 -380 c 0
 311.099609375 -359.75 347.5 -323.700195312 375.5 -294.5 c 0
 438.900390625 -228.299804688 477.349609375 -192.5 485 -192.5 c 0
 486.75 -192.5 486.200195312 -194.75 482.299804688 -202.950195312 c 0
 478.150390625 -211.650390625 475.599609375 -218.849609375 473.900390625 -226.549804688 c 0
 472.950195312 -231 472.799804688 -233.25 472.75 -242 c 0
 472.75 -251.200195312 472.849609375 -252.700195312 473.950195312 -256.700195312 c 0
 475.700195312 -263.400390625 478 -268.450195312 482.200195312 -274.75 c 0
 488 -283.450195312 493.150390625 -288.099609375 496.099609375 -287.349609375 c 0
 498.400390625 -286.75 499.099609375 -284.5 499.799804688 -275.5 c 0
 501 -259.900390625 503.900390625 -246.950195312 511.099609375 -225 c 0
 522.25 -191.049804688 538.599609375 -158.150390625 547.650390625 -151.5 c 0
 550.200195312 -149.650390625 552.650390625 -149.5 553.700195312 -151.150390625 c 0
 557.75 -157.25 550 -191.849609375 534.099609375 -239 c 0
 529.549804688 -252.450195312 527.75 -257.349609375 517.349609375 -285.25 c 0
 493.75 -348.549804688 477.75 -397.599609375 479.349609375 -401.75 c 0
 479.5 -402.200195312 480.700195312 -403.099609375 482.049804688 -403.799804688 c 0
 492.299804688 -409 526 -412.950195312 582.5 -415.549804688 c 0
 600.099609375 -416.349609375 696.349609375 -416.700195312 717.900390625 -416.049804688 c 0
 749.150390625 -415.049804688 765.549804688 -413.450195312 778.650390625 -410.200195312 c 0
 808.75 -402.650390625 814.75 -387.299804688 802.25 -349.75 c 0
 797.200195312 -334.5 791.349609375 -320.400390625 776 -286.25 c 0
 763.900390625 -259.299804688 758.099609375 -245.599609375 752.150390625 -229.75 c 0
 738.950195312 -194.549804688 730.849609375 -165.75 730.200195312 -151.5 c 0
 729.900390625 -145.450195312 730.400390625 -143.849609375 732.700195312 -143.599609375 c 0
 733.900390625 -143.450195312 734.599609375 -143.900390625 736.700195312 -146.150390625 c 0
 746.450195312 -156.450195312 766.799804688 -195.849609375 788 -245.5 c 0
 814.349609375 -307.150390625 832.450195312 -362.150390625 832.5 -380.5 c 0
 832.5 -382 832.849609375 -385.400390625 833.25 -388 c 0
 835.299804688 -401.700195312 841.349609375 -412.049804688 849.349609375 -415.599609375 c 0
 851.25 -416.450195312 852.400390625 -416.599609375 855.700195312 -416.400390625 c 0
 864.400390625 -415.950195312 869.400390625 -411.650390625 872.349609375 -402.25 c 0
 873.75 -397.650390625 873.599609375 -383 872.049804688 -374.349609375 c 0
 869.450195312 -359.5 863.400390625 -339.700195312 855.349609375 -319.75 c 0
 829 -254.049804688 780.549804688 -172.349609375 727.299804688 -103.75 c 0
 697.950195312 -65.9501953125 670.799804688 -36.5498046875 639.5 -8.75 c 0
 568.450195312 54.400390625 527.200195312 81.4501953125 501.900390625 81.5 c 0
 489.349609375 81.5 480.299804688 74.2998046875 474.5 59.5498046875 c 0
 472.650390625 54.900390625 470.900390625 52.5 469.400390625 52.5 c 0
 464.049804688 52.5 456.799804688 68.650390625 450.5 94.5498046875 c 0
 444.150390625 120.700195312 438.25 137.599609375 431.099609375 150.25 c 0
 418.200195312 173.099609375 408.700195312 171.849609375 401.25 146.25 c 0
 397.650390625 133.799804688 396.150390625 120.25 395.5 95.2001953125 c 0
 394.849609375 68.5498046875 393.900390625 59.5 391.25 53.650390625 c 0
 389.950195312 50.75 388.349609375 49.650390625 386.200195312 50.2001953125 c 0
 384.099609375 50.75 379.599609375 55.650390625 375.049804688 62.400390625 c 0
 368.450195312 72.2001953125 363.549804688 77.650390625 359.549804688 79.7001953125 c 0
 356.349609375 81.400390625 354.849609375 79.9501953125 354.299804688 74.650390625 c 0
 353.950195312 71.25 352.849609375 69.650390625 350.400390625 69 c 0
 340.299804688 66.25 311.5 90.599609375 298.200195312 113.099609375 c 0
 293.450195312 121.150390625 291.049804688 128.950195312 291.75 134.200195312 c 0
 292.200195312 137.450195312 293.650390625 140.75 294.900390625 141.450195312 c 0
 298.849609375 143.549804688 305.549804688 139.849609375 316.25 129.5 c 0
 334.549804688 111.900390625 343.950195312 106 353.700195312 106 c 0
 358 106 361.299804688 107.400390625 364.799804688 110.599609375 c 0
 370.700195312 116.049804688 375.099609375 125.200195312 380.200195312 142.799804688 c 0
 381.700195312 148 383.599609375 154 384.450195312 156.150390625 c 0
 391.650390625 174.25 404.150390625 187.5 414.049804688 187.5 c 0
 420.400390625 187.5 429.599609375 181.849609375 439.049804688 172.150390625 c 0
 446.650390625 164.349609375 452.450195312 156.349609375 459.5 143.799804688 c 0
 466.75 131.049804688 481.25 118 496.25 110.75 c 0
 505.25 106.400390625 510.849609375 104.900390625 521.75 104.049804688 c 0
 528.849609375 103.450195312 533.400390625 102.349609375 541.200195312 99.2998046875 c 0
 566.400390625 89.4501953125 604.049804688 64.7998046875 636.75 36.7001953125 c 0
 640.349609375 33.650390625 662.299804688 13.900390625 685.599609375 -7.150390625 c 0
 708.900390625 -28.2001953125 728.200195312 -45.5498046875 728.5 -45.75 c 0
 728.849609375 -45.9501953125 729 -1.2001953125 729 91.4501953125 c 2
313.049804688 -54.7998046875 m 0
 316.200195312 -53.9501953125 324.200195312 -53.7998046875 327.5 -54.5 c 0
 342.299804688 -57.75 360.25 -75.7001953125 364.25 -91.25 c 0
 365.299804688 -95.2001953125 365.299804688 -101.150390625 364.299804688 -103.950195312 c 0
 362.549804688 -108.700195312 356.5 -115.599609375 350.799804688 -119.25 c 0
 345.700195312 -122.5 342 -123.599609375 335.5 -123.900390625 c 0
 329.25 -124.099609375 325.799804688 -123.5 320.75 -121.25 c 0
 310.200195312 -116.599609375 300.200195312 -104.450195312 296.450195312 -91.7001953125 c 0
 295.150390625 -87.25 294.650390625 -78.650390625 295.450195312 -74.400390625 c 0
 297.299804688 -65.0498046875 304.349609375 -57.150390625 313.049804688 -54.7998046875 c 0
EndSplineSet
EndChar

StartChar: k
Encoding: 107 107 12
Width: 1000
Flags: H
LayerCount: 2
Fore
SplineSet
482.349609375 478.200195312 m 0
 488.799804688 479.200195312 516.599609375 479.25 523.25 478.25 c 0
 539.650390625 475.799804688 551.599609375 469.849609375 557.049804688 461.400390625 c 0
 559.599609375 457.450195312 560.349609375 454.900390625 561.200195312 447.5 c 0
 562.299804688 437.700195312 564.900390625 432 570.75 426.25 c 0
 576.700195312 420.400390625 581.599609375 418.349609375 592.950195312 416.950195312 c 0
 601.599609375 415.849609375 604.700195312 414.900390625 608.650390625 412.299804688 c 0
 615.599609375 407.700195312 620.599609375 399.450195312 623.650390625 387.75 c 0
 625.799804688 379.450195312 626.150390625 375.599609375 625.849609375 362.150390625 c 0
 625.650390625 352 625.400390625 348.849609375 624.549804688 344.849609375 c 0
 622.099609375 333.700195312 618.150390625 325.700195312 612.400390625 320.200195312 c 0
 606.950195312 315 603.5 313.5 593.700195312 312.299804688 c 0
 585.450195312 311.25 581.700195312 310 577.900390625 307.049804688 c 0
 573.700195312 303.849609375 570.400390625 299.700195312 567.75 294.25 c 0
 562.400390625 283.299804688 560.549804688 269.450195312 561.5 247.700195312 c 0
 562.099609375 232.5 562.700195312 226.75 564.25 220.75 c 0
 568 205.950195312 576.200195312 200.650390625 591.599609375 203.200195312 c 0
 602.200195312 204.950195312 612.450195312 209.049804688 637 221.299804688 c 0
 662.75 234.150390625 672.200195312 238.099609375 695.599609375 245.75 c 0
 730.150390625 257.049804688 763.650390625 264.950195312 793.75 268.849609375 c 0
 803.5 270.099609375 834.650390625 270.099609375 845.849609375 268.849609375 c 0
 888.450195312 264.049804688 921.200195312 249.700195312 945.150390625 225.349609375 c 0
 969.900390625 200.150390625 985.799804688 164.049804688 992.25 118.349609375 c 0
 996.650390625 87.400390625 997.099609375 48.25 993.5 18.2001953125 c 0
 988.950195312 -19.349609375 977.150390625 -50.0498046875 953.25 -86.599609375 c 0
 946.549804688 -96.75 940.75 -104.900390625 928.650390625 -121.099609375 c 0
 903.75 -154.450195312 892 -172.349609375 881.549804688 -193 c 0
 873.25 -209.349609375 867.75 -224.650390625 864.799804688 -239.5 c 0
 862.099609375 -252.950195312 862.150390625 -252.349609375 862.549804688 -298 c 0
 862.700195312 -315.650390625 862.650390625 -317.150390625 861.599609375 -323.25 c 0
 858.799804688 -339.450195312 854.099609375 -352.75 846.700195312 -365.349609375 c 0
 840.700195312 -375.650390625 837 -380.200195312 819.799804688 -398.5 c 0
 803.799804688 -415.549804688 796.549804688 -422.599609375 791.200195312 -426.400390625 c 0
 769.900390625 -441.599609375 727.400390625 -448.900390625 642 -452 c 0
 578.950195312 -454.299804688 438.900390625 -454.549804688 377 -452.5 c 0
 292.599609375 -449.700195312 248.5 -443.799804688 224.700195312 -432.200195312 c 0
 213.75 -426.900390625 208.549804688 -422.299804688 186.150390625 -398.5 c 0
 168.5 -379.700195312 166 -376.599609375 159.849609375 -366.299804688 c 0
 151.950195312 -352.900390625 147.25 -339.849609375 144.450195312 -323.25 c 0
 143.25 -316.200195312 143.049804688 -306 143.549804688 -270.25 c 0
 143.700195312 -259.200195312 143.549804688 -253.450195312 143.099609375 -250.25 c 0
 137.599609375 -212 121.200195312 -179.549804688 78.849609375 -123.099609375 c 0
 27.5 -54.650390625 13.5498046875 -20.5 10.4501953125 44.5 c 0
 9 75.25 11.2998046875 109.049804688 16.75 135.75 c 0
 26.5 183.75 48.4501953125 220.049804688 81.0498046875 242.150390625 c 0
 104 257.700195312 133.599609375 266.950195312 168.25 269.5 c 0
 178.299804688 270.200195312 199 270.099609375 207.5 269.25 c 0
 240.299804688 266.049804688 288 254.349609375 327.950195312 239.650390625 c 0
 342.150390625 234.450195312 347.25 232.150390625 367 222.25 c 0
 392.549804688 209.450195312 403.700195312 204.950195312 414.349609375 203.200195312 c 0
 429.799804688 200.650390625 438 205.900390625 441.75 220.75 c 0
 443.299804688 226.799804688 443.900390625 232.599609375 444.5 247.849609375 c 0
 445.799804688 278.599609375 441.099609375 296.400390625 429.099609375 306.25 c 0
 425.150390625 309.549804688 422 310.799804688 415.299804688 311.799804688 c 0
 402.950195312 313.599609375 399.950195312 314.650390625 395.099609375 318.650390625 c 0
 388 324.5 382.799804688 335.650390625 380.799804688 349.150390625 c 0
 379.849609375 355.349609375 379.700195312 373.650390625 380.549804688 379.150390625 c 0
 382.349609375 391.299804688 386.599609375 401.700195312 392.299804688 407.950195312 c 0
 394.599609375 410.5 400 414.150390625 403.099609375 415.200195312 c 0
 404.349609375 415.599609375 408.849609375 416.400390625 413.099609375 416.950195312 c 0
 417.299804688 417.450195312 422.099609375 418.349609375 423.700195312 418.950195312 c 0
 432.5 422.049804688 440 429.549804688 443.099609375 438.400390625 c 0
 443.650390625 439.950195312 444.400390625 444.049804688 444.799804688 447.5 c 0
 445.75 455.349609375 446.049804688 456.549804688 448.25 460.25 c 0
 450.599609375 464.150390625 452.950195312 466.549804688 457.299804688 469.450195312 c 0
 463.349609375 473.549804688 472.299804688 476.650390625 482.349609375 478.200195312 c 0
513.700195312 457.25 m 0
 509.25 458.200195312 496.450195312 458.200195312 492 457.200195312 c 0
 490.200195312 456.849609375 486.849609375 455.599609375 484.5 454.450195312 c 0
 474.150390625 449.299804688 467.049804688 438.150390625 467 426.950195312 c 0
 467 416.150390625 459.549804688 404.599609375 449.5 399.650390625 c 0
 444.150390625 397.049804688 440.299804688 396.049804688 433.25 395.5 c 0
 430.25 395.25 426.5 394.700195312 425 394.200195312 c 0
 414.75 391.099609375 406.299804688 383.099609375 403.349609375 373.75 c 0
 401.799804688 368.700195312 401.799804688 359.650390625 403.400390625 354.950195312 c 0
 405.299804688 349.400390625 409.049804688 344.450195312 414.549804688 340.200195312 c 0
 419.950195312 336.049804688 424.599609375 334.450195312 434.299804688 333.5 c 0
 444.049804688 332.549804688 447.400390625 331.099609375 452.400390625 325.75 c 0
 458.25 319.5 462.349609375 308.75 464.450195312 294 c 0
 465.75 285 466.400390625 274.549804688 467 252 c 0
 467.900390625 218 469.5 199.299804688 473 182.599609375 c 0
 476.049804688 168 478.5 162.150390625 483.25 158.349609375 c 0
 487.049804688 155.299804688 492.150390625 152.75 495.849609375 152 c 0
 497.450195312 151.700195312 499.200195312 151.25 499.75 151 c 0
 501.900390625 150.099609375 503.150390625 150.150390625 508.549804688 151.549804688 c 0
 518.299804688 154.099609375 524.799804688 158.549804688 527.75 164.75 c 0
 529.849609375 169.099609375 532.549804688 179.349609375 534.200195312 189.349609375 c 0
 537.349609375 208.450195312 537.700195312 213.700195312 539.5 266.75 c 0
 540.650390625 300.700195312 544.650390625 316.700195312 554.450195312 326.549804688 c 0
 558.900390625 330.950195312 561.700195312 332.299804688 568.5 333.049804688 c 0
 581.849609375 334.650390625 585.799804688 335.849609375 591.450195312 340.200195312 c 0
 596.950195312 344.450195312 600.849609375 349.700195312 602.799804688 355.5 c 0
 604.099609375 359.299804688 604.099609375 369 602.799804688 373.25 c 0
 600.400390625 381.25 594.549804688 387.950195312 586.5 392 c 0
 582.299804688 394.099609375 578.799804688 395 572.75 395.5 c 0
 561.799804688 396.349609375 554.75 399.25 548.549804688 405.400390625 c 0
 542.349609375 411.599609375 539.799804688 417.450195312 539 427.400390625 c 0
 538.400390625 434.150390625 537 438.650390625 533.950195312 443.299804688 c 0
 529.549804688 450.099609375 521.549804688 455.599609375 513.700195312 457.25 c 0
200.799804688 240.549804688 m 0
 192.299804688 241.700195312 169.5 242.25 162.049804688 241.5 c 0
 144.349609375 239.650390625 123.700195312 231.900390625 109 221.599609375 c 0
 76.349609375 198.75 53.7001953125 159.450195312 45.25 111 c 0
 42.25 93.849609375 41.7998046875 87.5 41.7998046875 64.25 c 0
 41.7998046875 47.099609375 41.9501953125 41.2001953125 42.650390625 35 c 0
 46 5 52.4501953125 -17.5 65 -43.25 c 0
 75.5 -64.7001953125 86.400390625 -81.599609375 108.5 -110.5 c 0
 128.049804688 -136.049804688 138.349609375 -151.650390625 147.900390625 -170 c 0
 159.950195312 -193.200195312 166.349609375 -212.849609375 172.25 -245 c 0
 174.900390625 -259.5 175.150390625 -263.700195312 174.75 -284.75 c 0
 174.400390625 -305 174.849609375 -314.299804688 176.450195312 -319.400390625 c 0
 177 -321.150390625 178.650390625 -324.650390625 180.150390625 -327.150390625 c 0
 184.450195312 -334.450195312 186.150390625 -338.150390625 189.700195312 -348 c 0
 193.450195312 -358.450195312 194.75 -361.5 195.5 -361.5 c 0
 196.450195312 -361.5 197.5 -358.150390625 201.299804688 -343.5 c 0
 206.200195312 -324.25 209.299804688 -315.450195312 215.25 -303.5 c 0
 219.049804688 -295.900390625 221.700195312 -291.450195312 225.549804688 -286.450195312 c 0
 229.5 -281.349609375 230.150390625 -279.400390625 229.799804688 -273.950195312 c 0
 228.400390625 -254.549804688 212.450195312 -219.299804688 185.849609375 -177 c 0
 169.349609375 -150.700195312 162.849609375 -139.25 151.299804688 -115.75 c 0
 137.349609375 -87.4501953125 125.799804688 -59.900390625 116.5 -32.75 c 0
 107.549804688 -6.5498046875 105.549804688 6.400390625 106.150390625 34.25 c 0
 106.5 48.9501953125 107.349609375 56.099609375 110.200195312 67.0498046875 c 0
 114.450195312 83.7001953125 121.349609375 96 132.150390625 106.349609375 c 0
 140.25 114.049804688 149.049804688 119.200195312 161 123.049804688 c 0
 174.299804688 127.400390625 184.200195312 128.700195312 200.799804688 128.400390625 c 0
 212 128.150390625 212.400390625 128.099609375 219 126.349609375 c 0
 258.599609375 115.900390625 315.299804688 79.7001953125 368 31.2998046875 c 0
 412.5 -9.599609375 447.25 -52.349609375 466.799804688 -90.25 c 0
 474.400390625 -104.950195312 475.799804688 -108.75 487.450195312 -146 c 0
 496.099609375 -173.75 501.5 -191.599609375 501.5 -192.549804688 c 0
 501.5 -193.75 502.549804688 -196.5 503 -196.5 c 0
 503.200195312 -196.5 503.650390625 -195.450195312 503.950195312 -194.099609375 c 0
 505.5 -187.950195312 525.75 -122.650390625 529.25 -112.5 c 0
 537.900390625 -87.7001953125 559.75 -53.099609375 586.700195312 -21.5 c 0
 608.599609375 4.150390625 637.75 32.4501953125 666.25 55.7998046875 c 0
 713.950195312 94.849609375 764.5 123.299804688 794 127.75 c 0
 799.650390625 128.650390625 815.349609375 128.75 822.400390625 127.950195312 c 0
 837.099609375 126.349609375 852.450195312 121.549804688 862.25 115.400390625 c 0
 879.049804688 104.849609375 890.400390625 88.4501953125 895.900390625 66.75 c 0
 899.099609375 54.0498046875 900.049804688 45.2998046875 900.049804688 27.9501953125 c 0
 900 3.5 898.400390625 -5.849609375 889.75 -31.75 c 0
 879.700195312 -61.9501953125 863.650390625 -99.2998046875 847.25 -130.549804688 c 0
 838 -148.150390625 834.900390625 -153.5 819.650390625 -177.75 c 0
 799.849609375 -209.299804688 786.75 -235.25 780.049804688 -256.200195312 c 0
 777.299804688 -264.849609375 776.5 -269.049804688 776.5 -275.099609375 c 0
 776.5 -281.049804688 776.849609375 -282.049804688 780.849609375 -287.099609375 c 0
 784.349609375 -291.5 786.549804688 -295.099609375 790.049804688 -302.099609375 c 0
 796.549804688 -315.049804688 799.700195312 -324 804.700195312 -343.5 c 0
 808.450195312 -358.049804688 809.549804688 -361.5 810.450195312 -361.5 c 0
 811.25 -361.5 812.049804688 -359.599609375 816 -348.75 c 0
 819.849609375 -338.150390625 821.5 -334.5 825.799804688 -327.25 c 0
 827.25 -324.75 828.900390625 -321.349609375 829.450195312 -319.650390625 c 0
 831.099609375 -314.650390625 831.650390625 -305.549804688 831.299804688 -288.5 c 0
 830.900390625 -267.75 831.450195312 -257.349609375 833.75 -245 c 0
 839.650390625 -213 845.349609375 -195.25 857 -172.25 c 0
 866.900390625 -152.700195312 876.799804688 -137.549804688 897.5 -110.5 c 0
 919.599609375 -81.599609375 930.599609375 -64.599609375 941 -43.25 c 0
 953.549804688 -17.5 960 5.099609375 963.349609375 35 c 0
 964.599609375 46.2001953125 964.599609375 81.400390625 963.349609375 92.5 c 0
 959.950195312 122.700195312 952.700195312 148 941 170.400390625 c 0
 922.450195312 205.849609375 894.299804688 229.5 860.25 238.299804688 c 0
 847.75 241.5 845.799804688 241.75 828.75 241.700195312 c 0
 812.150390625 241.700195312 809.950195312 241.5 791.75 238.450195312 c 0
 718.75 226.25 614.150390625 187.950195312 564 155.150390625 c 0
 552.900390625 147.849609375 549.049804688 144.599609375 536.25 131.799804688 c 0
 520.200195312 115.700195312 519.75 115.400390625 507.450195312 114.049804688 c 0
 504.150390625 113.700195312 501.299804688 113.700195312 498.200195312 114.049804688 c 0
 486.25 115.450195312 485.700195312 115.75 469.75 131.799804688 c 0
 462 139.549804688 455.450195312 145.650390625 452.5 147.849609375 c 0
 402.049804688 185.25 282.25 229.349609375 200.799804688 240.549804688 c 0
199.400390625 94.25 m 0
 194.049804688 95.2001953125 185.599609375 95.5498046875 181.700195312 95 c 0
 163.200195312 92.400390625 151.599609375 79.0498046875 147.400390625 55.5 c 0
 146.099609375 48.2001953125 145.650390625 31.900390625 146.450195312 22.4501953125 c 0
 150.200195312 -20.599609375 168.849609375 -73.75 197.400390625 -122.5 c 0
 204.75 -135 233.950195312 -179.549804688 245.349609375 -195.599609375 c 0
 256.799804688 -211.700195312 267.200195312 -223.299804688 276.25 -230.150390625 c 0
 281.549804688 -234.200195312 293.400390625 -240.150390625 300.5 -242.400390625 c 0
 309.150390625 -245.150390625 318.450195312 -246.799804688 333.75 -248.299804688 c 0
 350 -249.900390625 430.450195312 -250.049804688 447 -248.5 c 0
 463.150390625 -247 470.599609375 -244.099609375 473.299804688 -238.299804688 c 0
 474.299804688 -236.200195312 474.5 -234.950195312 474.5 -231.200195312 c 0
 474.5 -225.75 473.75 -221.599609375 470.450195312 -208.25 c 0
 459.5 -164.549804688 450.400390625 -138.900390625 435.549804688 -110.25 c 0
 413.75 -68.150390625 385.650390625 -33.5498046875 336.599609375 11.599609375 c 0
 298.650390625 46.5 274.099609375 65.25 251.150390625 76.7001953125 c 0
 236.150390625 84.150390625 214 91.7001953125 199.400390625 94.25 c 0
828.25 94.25 m 0
 824.549804688 95 816.450195312 95.5498046875 813.5 95.2001953125 c 0
 807.799804688 94.5498046875 803.400390625 93.7001953125 796.75 92 c 0
 768.849609375 84.75 748.150390625 75.150390625 726 59.099609375 c 0
 694.200195312 36.0498046875 643.450195312 -10.75 617.549804688 -41 c 0
 585.5 -78.349609375 563.400390625 -117.349609375 548.25 -163.25 c 0
 543.25 -178.299804688 534.400390625 -211.099609375 532.299804688 -222.450195312 c 0
 531.349609375 -227.400390625 531.25 -234.349609375 532.099609375 -237.150390625 c 0
 534 -243.450195312 542.200195312 -246.900390625 559.25 -248.599609375 c 0
 568.549804688 -249.549804688 659.799804688 -249.549804688 669.75 -248.599609375 c 0
 693.349609375 -246.400390625 705.150390625 -243.549804688 718.25 -237.049804688 c 0
 732 -230.200195312 741.849609375 -220.950195312 756.900390625 -200.75 c 0
 762.299804688 -193.549804688 790.5 -151.450195312 800.299804688 -136 c 0
 833.25 -84.150390625 855.650390625 -24.25 859.549804688 22.4501953125 c 0
 860.349609375 32.2998046875 859.900390625 48 858.549804688 55.7001953125 c 0
 857.349609375 62.400390625 854.75 70.75 852.5 74.9501953125 c 0
 847.049804688 85.099609375 838.150390625 92.150390625 828.25 94.25 c 0
550.5 -278.5 m 0
 534.349609375 -278.099609375 478.849609375 -277.950195312 461.5 -278.349609375 c 0
 366.599609375 -280.299804688 287.049804688 -290.549804688 257.200195312 -304.700195312 c 0
 248 -309.099609375 244.099609375 -312.549804688 240.349609375 -319.900390625 c 0
 233.450195312 -333.25 230.549804688 -346.799804688 231.150390625 -363.150390625 c 0
 231.450195312 -371.200195312 232 -374.650390625 234.049804688 -380.849609375 c 0
 234.900390625 -383.450195312 235.599609375 -384.450195312 238.549804688 -387.200195312 c 0
 253.950195312 -401.799804688 310.700195312 -412.599609375 398.75 -417.700195312 c 0
 452.549804688 -420.849609375 527.5 -421.400390625 582 -419 c 0
 685 -414.5 750.5 -403.25 767.599609375 -387.099609375 c 0
 770.75 -384.150390625 771.099609375 -383.549804688 772.299804688 -379.799804688 c 0
 775.549804688 -369.400390625 775.900390625 -354.549804688 773.200195312 -341 c 0
 771.200195312 -331 765.299804688 -317.450195312 761.049804688 -312.849609375 c 0
 743.900390625 -294.450195312 664.150390625 -281.450195312 550.5 -278.5 c 0
EndSplineSet
EndChar

StartChar: n
Encoding: 110 110 13
Width: 1000
Flags: H
LayerCount: 2
Fore
SplineSet
410.450195312 435.5 m 0
 413.5 436.049804688 418.5 435.599609375 421.700195312 434.5 c 0
 434.349609375 430.150390625 445.5 418.549804688 457.5 397.299804688 c 0
 463.650390625 386.450195312 470.349609375 378.549804688 479.5 371.450195312 c 0
 493.700195312 360.400390625 506.599609375 355.200195312 522.75 354.049804688 c 0
 530.75 353.450195312 535.349609375 352.400390625 543.5 349.150390625 c 0
 569.650390625 338.849609375 607.349609375 311.650390625 652 270.849609375 c 0
 664.200195312 259.650390625 700.799804688 222.950195312 712.849609375 209.75 c 0
 766 151.549804688 806.200195312 96.5498046875 827.75 52.75 c 0
 860.599609375 -14.150390625 901.150390625 -156.5 923.700195312 -284.25 c 0
 928.650390625 -312.299804688 932.049804688 -336.349609375 935.25 -366.75 c 0
 936.849609375 -381.599609375 937.150390625 -389.450195312 937.349609375 -423.200195312 c 2
 937.599609375 -458.599609375 l 1
 720.650390625 -458.349609375 l 2
 486.450195312 -458.049804688 449.549804688 -457.700195312 395.75 -455.25 c 0
 331.549804688 -452.299804688 301 -446.549804688 293.900390625 -436.150390625 c 0
 291.650390625 -432.950195312 291.25 -430.25 292.25 -425.400390625 c 0
 296.450195312 -404.700195312 326.049804688 -351.400390625 367 -291 c 0
 374.349609375 -280.150390625 383.299804688 -266.75 386.849609375 -261.25 c 0
 431.799804688 -191.849609375 461.700195312 -130.299804688 470.049804688 -90 c 0
 471.849609375 -81.349609375 472.5 -69.849609375 471.549804688 -64.2001953125 c 0
 468.099609375 -44.2001953125 449.049804688 -45.4501953125 419.25 -67.599609375 c 0
 399.099609375 -82.599609375 378.349609375 -102.549804688 348 -136.25 c 0
 268.700195312 -224.200195312 208.299804688 -261.150390625 159.349609375 -251.5 c 0
 132.400390625 -246.200195312 109.200195312 -227.099609375 87.2998046875 -192.099609375 c 0
 69.900390625 -164.349609375 62.599609375 -138.650390625 65.0498046875 -113.700195312 c 0
 66.599609375 -97.5498046875 71.25 -82.75 80.5498046875 -64 c 0
 87.849609375 -49.400390625 96.4501953125 -35.599609375 109.5 -17.75 c 0
 120.349609375 -2.900390625 124.549804688 3.599609375 133.599609375 19.5 c 0
 176.299804688 94.400390625 227.200195312 226.25 244.200195312 306 c 0
 248.099609375 324.349609375 249.400390625 334.200195312 250 350.049804688 c 0
 250.5 363.349609375 251.349609375 370.599609375 253.25 377.849609375 c 0
 255.75 387.299804688 259.150390625 394.150390625 263.650390625 398.900390625 c 0
 265.900390625 401.25 269.599609375 404 270.450195312 404 c 0
 270.849609375 404 271 396.450195312 271 379.150390625 c 0
 270.950195312 347.950195312 270.349609375 329.700195312 269 319.25 c 0
 257.799804688 232.700195312 202.75 79.7001953125 152 -6 c 0
 145.549804688 -16.900390625 139.450195312 -26.0498046875 130.549804688 -38.25 c 0
 108.75 -68.2001953125 91.0498046875 -98.25 85.2998046875 -115.049804688 c 0
 83.7998046875 -119.5 83.5 -121 83.5 -124.650390625 c 0
 83.5 -132.549804688 85.7001953125 -138.849609375 89.75 -142.400390625 c 0
 97.400390625 -149.099609375 110.400390625 -144.799804688 120.299804688 -132.299804688 c 0
 125.299804688 -126.049804688 128.950195312 -118.150390625 132.25 -106.599609375 c 0
 136.599609375 -91.2998046875 138.700195312 -88.099609375 140.599609375 -93.849609375 c 0
 143.049804688 -101.150390625 144.099609375 -129.700195312 142.349609375 -139.5 c 0
 140.650390625 -148.599609375 138.150390625 -155.200195312 134.299804688 -160.450195312 c 0
 132.200195312 -163.25 128.599609375 -165.849609375 126.299804688 -166.200195312 c 0
 125.450195312 -166.349609375 123.200195312 -166.650390625 121.349609375 -166.950195312 c 0
 114.450195312 -167.950195312 111.25 -171.349609375 111.349609375 -177.5 c 0
 111.349609375 -180 111.700195312 -181.549804688 112.900390625 -184.150390625 c 0
 116.599609375 -192.299804688 125 -201.799804688 131.5 -205.25 c 0
 135.150390625 -207.200195312 135.400390625 -207.25 140.25 -207.25 c 0
 145.049804688 -207.25 145.450195312 -207.150390625 149 -205.400390625 c 0
 151.049804688 -204.349609375 154.150390625 -202.299804688 155.849609375 -200.75 c 0
 162.25 -195 169.900390625 -183.150390625 175.700195312 -170.049804688 c 0
 181.700195312 -156.349609375 183.150390625 -152.049804688 201.5 -93.150390625 c 0
 204.650390625 -83.150390625 207.25 -75.099609375 207.349609375 -75.150390625 c 0
 207.400390625 -75.25 204.900390625 -93.5498046875 201.75 -115.849609375 c 0
 198.599609375 -138.150390625 195.650390625 -159.5 195.200195312 -163.299804688 c 0
 194.150390625 -172.75 193.700195312 -197.650390625 194.450195312 -205.349609375 c 0
 196.049804688 -220.900390625 199.650390625 -229 205 -229 c 0
 211.75 -229 231.599609375 -213.400390625 259.75 -185.950195312 c 0
 311.799804688 -135.25 375.549804688 -64.0498046875 441.25 16.7001953125 c 0
 462.849609375 43.25 477.400390625 59 482.75 61.599609375 c 0
 487.200195312 63.75 487 61.349609375 482 50.25 c 0
 478.099609375 41.599609375 476.700195312 37.900390625 474.950195312 31.150390625 c 0
 470.549804688 14.0498046875 471.200195312 -1.900390625 476.799804688 -15.150390625 c 0
 478.950195312 -20.25 485.150390625 -29.599609375 488.950195312 -33.400390625 c 0
 493.549804688 -38 496.349609375 -38.599609375 498.200195312 -35.4501953125 c 0
 498.900390625 -34.2998046875 499.299804688 -31.900390625 499.75 -25.7998046875 c 0
 500.549804688 -16.400390625 501 -13.2001953125 503.049804688 -3.849609375 c 0
 510.75 31.4501953125 532.75 84.2001953125 545.25 97.2998046875 c 0
 548.549804688 100.799804688 550.349609375 101.549804688 552.200195312 100.299804688 c 0
 558.400390625 96.25 551.150390625 61.25 532.150390625 3.75 c 0
 498.700195312 -97.5498046875 446.75 -219.5 416.099609375 -268.799804688 c 0
 413.849609375 -272.400390625 409.150390625 -279.299804688 405.599609375 -284.049804688 c 0
 383.150390625 -314.5 355.150390625 -356.549804688 341.950195312 -379.700195312 c 0
 339.900390625 -383.25 332.150390625 -397.650390625 324.700195312 -411.700195312 c 2
 311.150390625 -437.25 l 1
 468.200195312 -437.400390625 l 2
 618.450195312 -437.549804688 690.799804688 -437.150390625 727.5 -436 c 0
 814.599609375 -433.25 846.950195312 -427.400390625 853 -413.349609375 c 0
 854.099609375 -410.849609375 854.150390625 -410.349609375 853.849609375 -401.25 c 0
 851.75 -337.75 808.5 -136.5 776 -38.900390625 c 0
 770.75 -23.099609375 765.950195312 -11.150390625 760.700195312 -0.5 c 0
 741.400390625 38.650390625 728.849609375 80.150390625 730.200195312 100.599609375 c 0
 730.75 109.599609375 732.099609375 113 735.049804688 113 c 0
 750.75 113 803.5 -33.400390625 835.700195312 -166.25 c 0
 845.75 -207.799804688 851.400390625 -236.200195312 857.5 -275.75 c 0
 869.700195312 -354.849609375 886.700195312 -424.5 896.450195312 -435.650390625 c 0
 898.25 -437.700195312 899.400390625 -437.900390625 903.5 -436.950195312 c 0
 916.799804688 -433.950195312 918.5 -411.900390625 909.950195312 -353.5 c 0
 903.799804688 -311.599609375 887.25 -221.799804688 878.200195312 -181.349609375 c 0
 844.450195312 -30.349609375 790.400390625 81.25 704.900390625 176.5 c 0
 682.099609375 201.900390625 658.950195312 224.400390625 626.75 252.549804688 c 0
 558.75 311.900390625 518.950195312 335.75 495.900390625 330.950195312 c 0
 486.650390625 329 479.5 321.950195312 474.700195312 310.049804688 c 0
 472.700195312 305.099609375 470.849609375 302.5 469.450195312 302.5 c 0
 464.150390625 302.5 456.75 318.75 450.75 343.549804688 c 0
 444.25 370.5 440.150390625 383.150390625 434.150390625 395.200195312 c 0
 425 413.549804688 415.5 418.950195312 407.599609375 410.299804688 c 0
 400.200195312 402.150390625 395.799804688 383.400390625 394.5 354.5 c 0
 393.650390625 335.599609375 393 326.549804688 391.950195312 319.349609375 c 0
 390.450195312 308.950195312 388.099609375 302.5 385.799804688 302.5 c 0
 384.75 302.5 383.75 303.950195312 380.950195312 309.5 c 0
 378.849609375 313.700195312 377.599609375 315.450195312 374.799804688 318.299804688 c 0
 371.099609375 321.950195312 368.200195312 323.650390625 363.950195312 324.549804688 c 0
 360.900390625 325.200195312 358.75 324.849609375 354.400390625 322.950195312 c 0
 350.299804688 321.150390625 347.450195312 321.099609375 343 322.650390625 c 0
 333.799804688 325.900390625 322.450195312 335.049804688 311.799804688 347.849609375 c 0
 307.099609375 353.400390625 272.25 402.5 271.900390625 403.950195312 c 0
 271.450195312 405.849609375 281.049804688 406.650390625 286.049804688 405.200195312 c 0
 295.150390625 402.5 302.900390625 396.450195312 315 382.5 c 0
 339.549804688 354.200195312 355.799804688 348.849609375 368.099609375 365 c 0
 372.799804688 371.150390625 376.599609375 380.25 381.200195312 396.400390625 c 0
 384.549804688 408 387.049804688 414 391.400390625 420.75 c 0
 396.700195312 429.049804688 403.450195312 434.25 410.450195312 435.5 c 0
316.150390625 196 m 0
 319.049804688 196.5 324.549804688 196.200195312 328 195.400390625 c 0
 331.200195312 194.650390625 337.799804688 191.5 341.549804688 188.950195312 c 0
 345.849609375 186.049804688 352.450195312 179.599609375 356.049804688 174.849609375 c 0
 359.400390625 170.400390625 363.150390625 163.099609375 364.25 158.75 c 0
 365.299804688 154.799804688 365.299804688 148.849609375 364.299804688 146.049804688 c 0
 361.799804688 139.150390625 353.049804688 130.950195312 344.599609375 127.599609375 c 0
 341.549804688 126.400390625 340.650390625 126.299804688 334 126.299804688 c 0
 326.950195312 126.25 326.650390625 126.299804688 322.75 127.849609375 c 0
 317.650390625 129.950195312 313.700195312 132.599609375 309.349609375 136.849609375 c 0
 303.150390625 142.950195312 298.099609375 151.700195312 296.049804688 159.950195312 c 0
 294.799804688 164.900390625 294.650390625 172.849609375 295.700195312 176.75 c 0
 298.450195312 187.150390625 305.900390625 194.150390625 316.150390625 196 c 0
EndSplineSet
EndChar

StartChar: l
Encoding: 108 108 14
Width: 1000
Flags: H
LayerCount: 2
Fore
SplineSet
497 478.5 m 0
 499.049804688 478.75 506.150390625 478.849609375 512.75 478.75 c 0
 522.150390625 478.650390625 526 478.400390625 530.5 477.599609375 c 0
 547.099609375 474.599609375 558.200195312 468 562.799804688 458.349609375 c 0
 564.349609375 455.049804688 564.650390625 453.799804688 565.049804688 448.900390625 c 0
 565.650390625 441.799804688 566.549804688 438.299804688 568.799804688 434 c 0
 572.900390625 426.200195312 580.700195312 420.049804688 589.25 417.799804688 c 0
 590.900390625 417.400390625 594.950195312 416.799804688 598.25 416.549804688 c 0
 607.700195312 415.75 612.75 413.450195312 618.25 407.400390625 c 0
 626.549804688 398.200195312 631.200195312 380.099609375 630.299804688 360.200195312 c 0
 629.549804688 342.299804688 625 328.650390625 617.25 320.799804688 c 0
 611.849609375 315.299804688 606.950195312 313.200195312 598 312.5 c 0
 588.5 311.799804688 583.400390625 309.5 577.700195312 303.400390625 c 0
 572.599609375 297.950195312 568.5 288.700195312 566.75 278.599609375 c 0
 564.299804688 264.950195312 565.150390625 243.650390625 568.549804688 232.650390625 c 0
 571.849609375 221.950195312 578.400390625 214.950195312 587.5 212.299804688 c 0
 603.150390625 207.700195312 630.299804688 216.049804688 671.049804688 238.049804688 c 0
 680.650390625 243.25 688.099609375 246.400390625 700.5 250.5 c 0
 727.75 259.599609375 759 265.700195312 795.75 269.099609375 c 0
 805.200195312 269.950195312 838.200195312 269.950195312 846.5 269.099609375 c 0
 880.75 265.5 905.150390625 257.599609375 927.75 242.799804688 c 0
 968.25 216.25 991.650390625 169.75 998.200195312 102.75 c 0
 1000.09960938 83.4501953125 1000.45019531 51.0498046875 999 32.5 c 0
 995.25 -14.7001953125 983.700195312 -47 955.349609375 -89.4501953125 c 0
 948.25 -100.099609375 943.549804688 -106.599609375 928.299804688 -127 c 0
 910.299804688 -151 901.849609375 -163.549804688 892.400390625 -180 c 0
 876.950195312 -206.950195312 868.849609375 -230.349609375 866.450195312 -255.25 c 0
 865.799804688 -261.75 866.049804688 -277.650390625 867 -291.75 c 0
 867.950195312 -305.700195312 866.5 -322.200195312 863.25 -335 c 0
 856.849609375 -360.25 841.950195312 -382.799804688 818.75 -402.349609375 c 0
 796.549804688 -421.049804688 772.450195312 -428.799804688 723.5 -432.950195312 c 0
 682.099609375 -436.5 645.299804688 -437.25 510.5 -437.25 c 0
 404.150390625 -437.25 376.349609375 -436.950195312 340.25 -435.5 c 0
 266.049804688 -432.5 234.049804688 -425.650390625 209.5 -407.450195312 c 0
 200.200195312 -400.599609375 188.400390625 -389.299804688 181.349609375 -380.5 c 0
 167.450195312 -363.150390625 158.900390625 -343.049804688 155.650390625 -320.25 c 0
 154.599609375 -313.049804688 154.5 -292.799804688 155.450195312 -278.5 c 0
 158 -238.950195312 146.450195312 -204.099609375 115.349609375 -157.549804688 c 0
 108.25 -146.900390625 103.299804688 -140 89.75 -122 c 0
 66.7998046875 -91.5498046875 54.599609375 -72.650390625 44.7001953125 -52.25 c 0
 29.5 -21 23.150390625 7.650390625 22.0498046875 49.5 c 0
 20.5498046875 108.299804688 28.349609375 152.950195312 46.25 188.349609375 c 0
 57.900390625 211.299804688 73.2998046875 228.950195312 93.5 242.400390625 c 0
 115.299804688 256.950195312 139.900390625 265.150390625 173 268.849609375 c 0
 184 270.099609375 215.900390625 270.049804688 229 268.849609375 c 0
 263.549804688 265.549804688 295.799804688 259.150390625 322.349609375 250.200195312 c 0
 333.799804688 246.349609375 340.25 243.549804688 354.400390625 236.099609375 c 0
 385.849609375 219.599609375 406.099609375 212.150390625 422.099609375 211.200195312 c 0
 441.099609375 210.049804688 451.599609375 219.849609375 455.299804688 242.25 c 0
 456.700195312 250.5 456.599609375 270.049804688 455.099609375 278 c 0
 451 300.200195312 440 312.450195312 424 312.5 c 0
 416.5 312.549804688 410.099609375 315.25 404.75 320.700195312 c 0
 395.75 329.849609375 391.549804688 343.650390625 391.5 364.150390625 c 0
 391.5 374.450195312 392.150390625 380.450195312 394.049804688 387.950195312 c 0
 397.200195312 400.599609375 403.450195312 409.700195312 411.700195312 413.75 c 0
 415.400390625 415.599609375 417.849609375 416.099609375 426.549804688 416.950195312 c 0
 435.25 417.75 441.5 420.599609375 447.299804688 426.400390625 c 0
 453 432.049804688 455.799804688 438.400390625 456.5 447.5 c 0
 457.049804688 454.400390625 458.200195312 457.950195312 461.200195312 462.150390625 c 0
 467.200195312 470.599609375 479.950195312 476.400390625 497 478.5 c 0
265.75 123.599609375 m 0
 260.5 124.700195312 248.25 125.200195312 242.5 124.5 c 0
 224.599609375 122.299804688 206.75 114.799804688 190.599609375 102.799804688 c 0
 162.599609375 81.900390625 141.700195312 47.9501953125 133.75 10.5 c 0
 130.75 -3.849609375 129.75 -20 131.25 -30.5498046875 c 0
 136 -64 161.849609375 -121.650390625 195.049804688 -172.849609375 c 0
 208.650390625 -193.75 217.450195312 -209.099609375 226 -226.700195312 c 0
 236.799804688 -248.849609375 242.200195312 -265.799804688 241.349609375 -274.950195312 c 0
 241.049804688 -278.75 240.049804688 -280.5 237.099609375 -282.650390625 c 0
 230.150390625 -287.650390625 224.400390625 -301.849609375 221.25 -322 c 0
 219.5 -333.049804688 219.75 -359.75 221.799804688 -376.049804688 c 0
 222.650390625 -383 223.450195312 -385.700195312 224.799804688 -385.900390625 c 0
 226.650390625 -386.150390625 228.650390625 -381.049804688 233.25 -364.299804688 c 0
 237.099609375 -350.25 241.450195312 -339.049804688 248.5 -325 c 0
 255.400390625 -311.25 261.599609375 -301.400390625 266.75 -296.25 c 0
 279.650390625 -283.200195312 323.799804688 -275.799804688 408.5 -272.5 c 0
 461.349609375 -270.450195312 581.25 -270.450195312 628.25 -272.5 c 0
 683.599609375 -274.950195312 714.75 -279.700195312 736.599609375 -289.150390625 c 0
 747.400390625 -293.799804688 754.950195312 -298.900390625 761.849609375 -306.200195312 c 0
 773.549804688 -318.549804688 779.549804688 -331.5 788.299804688 -363.450195312 c 0
 793.25 -381.400390625 794.950195312 -386 796.799804688 -386 c 0
 799.200195312 -386 801 -372.849609375 801.799804688 -349 c 0
 802.549804688 -327.150390625 798.950195312 -306.400390625 791.900390625 -292 c 0
 790.200195312 -288.599609375 789 -286.950195312 785.650390625 -283.700195312 c 0
 783.400390625 -281.5 781.25 -279 780.950195312 -278.200195312 c 0
 780 -275.849609375 780.25 -268.799804688 781.5 -263.5 c 0
 786.5 -242.299804688 801.900390625 -211.25 825.75 -174.25 c 0
 834.5 -160.75 838.150390625 -154.799804688 843.349609375 -145.75 c 0
 867.549804688 -103.599609375 885.700195312 -59.75 890.299804688 -32.25 c 0
 892 -22.0498046875 891.099609375 -5.2998046875 888 10 c 0
 876.799804688 65.650390625 835.950195312 112.349609375 789.450195312 122.700195312 c 0
 770.549804688 126.900390625 755.599609375 125.25 735.799804688 116.75 c 0
 665.549804688 86.7001953125 569.599609375 -17.0498046875 537.849609375 -97.2998046875 c 0
 532.650390625 -110.400390625 531.349609375 -115.700195312 522.950195312 -157.450195312 c 0
 518.599609375 -179.299804688 514.950195312 -197.25 514.849609375 -197.299804688 c 0
 514.75 -197.400390625 509 -179.099609375 502.099609375 -156.650390625 c 0
 487.150390625 -108.299804688 485.049804688 -102.5 476.200195312 -84 c 0
 462.349609375 -55.25 440.450195312 -21.7998046875 416.25 7.5 c 0
 364.700195312 69.9501953125 306.5 114.900390625 265.75 123.599609375 c 0
240.150390625 100.299804688 m 0
 244.650390625 101.150390625 254.799804688 100.900390625 260 99.7998046875 c 0
 279.599609375 95.599609375 300.900390625 82.2998046875 330.5 55.849609375 c 0
 338.75 48.400390625 370.25 17.099609375 381 5.5 c 0
 442 -60 462.75 -99 486.200195312 -192.299804688 c 0
 491.299804688 -212.75 492.599609375 -219.549804688 492.650390625 -226.25 c 0
 492.700195312 -232.049804688 492.099609375 -234.5 489.849609375 -237.799804688 c 0
 485.849609375 -243.75 477.849609375 -246.700195312 460.75 -248.5 c 0
 446.25 -250 356.849609375 -250.400390625 338.25 -249 c 0
 292.200195312 -245.650390625 274.799804688 -235.099609375 243.900390625 -191.900390625 c 0
 236.099609375 -180.950195312 213.150390625 -146.700195312 203.650390625 -131.75 c 0
 172.599609375 -82.9501953125 159.150390625 -53.75 155.700195312 -27.75 c 0
 154.200195312 -16.75 155.299804688 -3.25 158.5 7.5498046875 c 0
 162.450195312 20.75 170.900390625 36.599609375 183.099609375 53.75 c 0
 203.950195312 83 220.599609375 96.5498046875 240.150390625 100.299804688 c 0
764.5 100.299804688 m 0
 770.200195312 101.299804688 779.599609375 100.900390625 785.75 99.2998046875 c 0
 803 94.849609375 819.5 80.650390625 838.549804688 53.900390625 c 0
 856.599609375 28.5 865 9.099609375 866.400390625 -10.2998046875 c 0
 868.400390625 -37.7998046875 857.599609375 -67.400390625 827.599609375 -116.5 c 0
 811.75 -142.450195312 784.5 -183.200195312 771.400390625 -200.599609375 c 0
 746.299804688 -233.950195312 728.950195312 -244.450195312 692.75 -248.200195312 c 0
 678.400390625 -249.700195312 656.450195312 -250.150390625 614.5 -249.849609375 c 0
 592.349609375 -249.700195312 571.099609375 -249.299804688 567.25 -249.049804688 c 0
 544.599609375 -247.299804688 534.900390625 -243.900390625 530.849609375 -236.349609375 c 0
 529.799804688 -234.400390625 529.75 -233.650390625 529.799804688 -225 c 0
 529.799804688 -215.950195312 529.849609375 -215.549804688 531.900390625 -206.75 c 0
 535.25 -192.400390625 542.25 -166.349609375 546.5 -152.25 c 0
 564 -94.2001953125 583.450195312 -59.2998046875 623.950195312 -13 c 0
 644.150390625 10.0498046875 674.150390625 40.5498046875 694.049804688 58.2998046875 c 0
 722.700195312 83.7998046875 744.200195312 96.650390625 764.5 100.299804688 c 0
EndSplineSet
EndChar

StartChar: m
Encoding: 109 109 15
Width: 1000
Flags: H
LayerCount: 2
Fore
SplineSet
410.450195312 435.5 m 0
 413.5 436.049804688 418.5 435.599609375 421.700195312 434.5 c 0
 434.349609375 430.150390625 445.5 418.549804688 457.5 397.299804688 c 0
 463.650390625 386.450195312 470.349609375 378.549804688 479.5 371.450195312 c 0
 493.700195312 360.400390625 506.599609375 355.200195312 522.75 354.049804688 c 0
 526.599609375 353.75 531.549804688 353.049804688 533.75 352.5 c 0
 557.099609375 346.349609375 594.599609375 321.599609375 636.75 284.549804688 c 0
 657.849609375 265.950195312 693.650390625 230.799804688 712.849609375 209.75 c 0
 766 151.549804688 806.200195312 96.5498046875 827.75 52.75 c 0
 860.599609375 -14.150390625 901.150390625 -156.5 923.700195312 -284.25 c 0
 928.650390625 -312.299804688 932.049804688 -336.349609375 935.25 -366.75 c 0
 936.849609375 -381.599609375 937.150390625 -389.450195312 937.349609375 -423.200195312 c 2
 937.599609375 -458.599609375 l 1
 720.650390625 -458.349609375 l 2
 486.450195312 -458.049804688 449.549804688 -457.700195312 395.75 -455.25 c 0
 331.549804688 -452.299804688 301 -446.549804688 293.900390625 -436.150390625 c 0
 291.650390625 -432.950195312 291.25 -430.25 292.25 -425.400390625 c 0
 294.900390625 -412.25 309.349609375 -383 330.950195312 -347 c 0
 341.75 -329.099609375 351.900390625 -313.25 367 -291 c 0
 374.349609375 -280.150390625 383.299804688 -266.75 386.849609375 -261.25 c 0
 431.799804688 -191.849609375 461.700195312 -130.299804688 470.049804688 -90 c 0
 471.849609375 -81.349609375 472.5 -69.849609375 471.549804688 -64.2001953125 c 0
 468.099609375 -44.2001953125 449 -45.4501953125 419.25 -67.599609375 c 0
 399.150390625 -82.5498046875 378.25 -102.700195312 348 -136.25 c 0
 268.700195312 -224.200195312 208.299804688 -261.150390625 159.349609375 -251.5 c 0
 132.400390625 -246.200195312 109.200195312 -227.099609375 87.2998046875 -192.099609375 c 0
 69.900390625 -164.349609375 62.599609375 -138.650390625 65.0498046875 -113.700195312 c 0
 66.599609375 -97.5498046875 71.25 -82.75 80.5498046875 -64 c 0
 87.849609375 -49.400390625 96.4501953125 -35.599609375 109.5 -17.75 c 0
 120.349609375 -2.900390625 124.549804688 3.599609375 133.599609375 19.5 c 0
 182.700195312 105.650390625 239.599609375 260.150390625 248.799804688 332.200195312 c 0
 249.200195312 335.549804688 249.75 343.700195312 250 350.299804688 c 0
 250.5 363.349609375 251.349609375 370.650390625 253.25 377.849609375 c 0
 258.099609375 396.299804688 267.150390625 406 279.5 406 c 0
 290.5 406 300.150390625 399.599609375 315 382.5 c 0
 339.549804688 354.200195312 355.799804688 348.849609375 368.099609375 365 c 0
 372.799804688 371.150390625 376.599609375 380.25 381.200195312 396.400390625 c 0
 384.549804688 408 387.049804688 414 391.400390625 420.75 c 0
 396.700195312 429.049804688 403.450195312 434.25 410.450195312 435.5 c 0
327.75 195.450195312 m 0
 312.950195312 199.049804688 299.549804688 191.25 295.700195312 176.75 c 0
 294.650390625 172.849609375 294.799804688 164.900390625 296.049804688 159.950195312 c 0
 298.099609375 151.700195312 303.150390625 142.950195312 309.349609375 136.849609375 c 0
 313.700195312 132.599609375 317.650390625 129.950195312 322.75 127.900390625 c 0
 326.599609375 126.299804688 327 126.25 334 126.25 c 0
 340.650390625 126.25 341.5 126.400390625 344.599609375 127.599609375 c 0
 351.150390625 130.200195312 357.099609375 134.900390625 361.299804688 140.799804688 c 0
 364.25 144.900390625 365.099609375 147.450195312 365.049804688 152 c 0
 365.049804688 156.849609375 364.049804688 160.650390625 361.25 166.349609375 c 0
 354.599609375 179.900390625 340.150390625 192.400390625 327.75 195.450195312 c 0
736.349609375 113.549804688 m 0
 734.299804688 114.75 733.900390625 114.75 732.650390625 113.400390625 c 0
 730.900390625 111.5 730.299804688 108.25 730.299804688 101 c 0
 730.299804688 93.25 731.25 87.400390625 734.75 73.4501953125 c 0
 741.099609375 48.2998046875 752.349609375 15.900390625 766.25 -17 c 0
 773.549804688 -34.2998046875 776.150390625 -41.099609375 781.150390625 -55.7998046875 c 0
 798.849609375 -107.950195312 817.25 -181.200195312 829.5 -248.25 c 0
 830.849609375 -255.650390625 833.650390625 -272.099609375 835.75 -284.75 c 0
 840.150390625 -311.549804688 843.799804688 -331.900390625 847.950195312 -352.5 c 0
 856.849609375 -396.849609375 864.900390625 -425.650390625 869.150390625 -428.200195312 c 0
 870.200195312 -428.849609375 870.700195312 -428.299804688 871.650390625 -425.25 c 0
 872.5 -422.349609375 872.349609375 -399.799804688 871.299804688 -386.5 c 0
 868.549804688 -351.049804688 862.200195312 -300.349609375 854.75 -254.75 c 0
 844.25 -190.549804688 820.099609375 -98.7998046875 790.299804688 -10.25 c 0
 767 59.099609375 745.799804688 107.75 736.349609375 113.549804688 c 0
552.650390625 100.099609375 m 0
 551.599609375 101.25 549.150390625 101.25 547.25 100.099609375 c 0
 535.349609375 92.7998046875 513.599609375 39.0498046875 505.049804688 -4.25 c 0
 502.5 -17.150390625 501.849609375 -23.0498046875 501.799804688 -33 c 0
 501.75 -41.099609375 501.849609375 -42.4501953125 502.650390625 -43.650390625 c 0
 503.849609375 -45.4501953125 505.099609375 -45.349609375 507.450195312 -43.2001953125 c 0
 512.950195312 -38.25 522.25 -19.5 531.5 5.2998046875 c 0
 548.700195312 51.2998046875 558.200195312 93.9501953125 552.650390625 100.099609375 c 0
492.299804688 82.7998046875 m 0
 491.099609375 83.650390625 491.150390625 83.650390625 489.099609375 82.75 c 0
 486.799804688 81.75 482.049804688 77.099609375 477.549804688 71.5 c 0
 457.75 46.7998046875 437.900390625 1.7001953125 446.099609375 0.099609375 c 0
 453.299804688 -1.2998046875 477.650390625 34.150390625 488.650390625 62 c 0
 492.900390625 72.75 494.400390625 81.25 492.299804688 82.7998046875 c 0
139.900390625 -92.5498046875 m 0
 138.75 -91.25 138.450195312 -91.25 136.849609375 -92.5498046875 c 0
 135.450195312 -93.599609375 132.900390625 -98.5498046875 129.5 -106.75 c 0
 122.849609375 -122.650390625 108.849609375 -141.150390625 96.5 -150.200195312 c 0
 91.7001953125 -153.75 88.7001953125 -156.849609375 88.2001953125 -158.75 c 0
 87 -163.5 94.25 -166.099609375 108.75 -166.150390625 c 0
 117.799804688 -166.150390625 122.200195312 -165.299804688 127.549804688 -162.450195312 c 0
 135.349609375 -158.299804688 140.450195312 -150.599609375 142.849609375 -139.5 c 0
 143.599609375 -135.950195312 143.75 -132.950195312 143.75 -121.75 c 0
 143.75 -104.700195312 142.5 -95.2998046875 139.900390625 -92.5498046875 c 0
205.25 -96.650390625 m 0
 202.75 -92.900390625 198.099609375 -97.849609375 191.799804688 -111.099609375 c 0
 187.299804688 -120.5 183.650390625 -130 177.950195312 -147 c 0
 170.75 -168.650390625 166.599609375 -184.950195312 164.150390625 -201 c 0
 163.099609375 -208.099609375 162.950195312 -221.849609375 163.900390625 -224.599609375 c 0
 166.5 -231.849609375 171.700195312 -230.200195312 178.25 -220.099609375 c 0
 187.299804688 -206.049804688 194.849609375 -183.200195312 201.200195312 -150.599609375 c 0
 206.849609375 -121.900390625 208.349609375 -101.400390625 205.25 -96.650390625 c 0
EndSplineSet
EndChar

StartChar: o
Encoding: 111 111 16
Width: 1000
Flags: H
LayerCount: 2
Fore
SplineSet
488.75 351.25 m 0
 495.049804688 352.400390625 508.75 351.950195312 515.5 350.349609375 c 0
 534.950195312 345.75 554.349609375 332.849609375 573.5 311.75 c 0
 598.900390625 283.849609375 604.849609375 269.099609375 598.5 249.900390625 c 0
 596.599609375 244.200195312 593.549804688 238.25 586.849609375 227 c 0
 578.549804688 213.150390625 575 204.700195312 575 199 c 0
 575 193.700195312 578.25 188.75 583.950195312 185.299804688 c 0
 587.200195312 183.299804688 595.549804688 179.849609375 602.700195312 177.5 c 0
 621.799804688 171.200195312 652.849609375 149.950195312 672.75 129.450195312 c 0
 681.400390625 120.549804688 694.700195312 105.849609375 697.799804688 101.75 c 0
 706.299804688 90.4501953125 704.75 85.099609375 690.900390625 78.400390625 c 0
 682.5 74.2998046875 669.299804688 69.7998046875 626.25 56.25 c 0
 607.049804688 50.2001953125 604.049804688 49 600.700195312 45.9501953125 c 0
 595.299804688 40.9501953125 595.099609375 35.400390625 599.950195312 25.25 c 0
 605.25 14.150390625 616.150390625 -0.150390625 641.5 -29.5 c 0
 651.950195312 -41.5498046875 657.200195312 -47.9501953125 663.799804688 -56.75 c 0
 680.700195312 -79.150390625 693.25 -102 699.75 -122.099609375 c 0
 710.700195312 -155.950195312 707.099609375 -186.75 689.049804688 -213.799804688 c 0
 683.299804688 -222.400390625 678.200195312 -228.25 667.950195312 -238.049804688 c 0
 644.099609375 -260.799804688 641.150390625 -263.950195312 638.200195312 -269.950195312 c 0
 635.25 -276.049804688 635.450195312 -281.349609375 639.049804688 -288.5 c 0
 643.099609375 -296.599609375 649.650390625 -304.400390625 672 -328 c 0
 688.849609375 -345.75 695.5 -353.75 703.700195312 -366 c 0
 714.599609375 -382.25 720.599609375 -395.799804688 721.349609375 -405.75 c 0
 721.700195312 -410.75 721 -413.450195312 718.700195312 -415.950195312 c 0
 709.650390625 -426 659.849609375 -432.950195312 571.75 -436.549804688 c 0
 550.799804688 -437.400390625 473.700195312 -437.700195312 448.5 -437.049804688 c 0
 372 -435.049804688 316.099609375 -429.599609375 292.5 -421.900390625 c 0
 288.5 -420.599609375 283.150390625 -417.950195312 281.650390625 -416.549804688 c 0
 272.849609375 -408.200195312 283.299804688 -381.150390625 306.75 -351.650390625 c 0
 311.400390625 -345.799804688 316.349609375 -340.299804688 328 -328 c 0
 350.450195312 -304.299804688 356.900390625 -296.599609375 360.950195312 -288.5 c 0
 364.549804688 -281.349609375 364.75 -276.049804688 361.799804688 -269.950195312 c 0
 358.849609375 -263.950195312 355.650390625 -260.5 332.099609375 -238.099609375 c 0
 321.75 -228.200195312 316.599609375 -222.299804688 310.950195312 -213.799804688 c 0
 281.900390625 -170.099609375 290.299804688 -118.049804688 336.150390625 -56.75 c 0
 342.200195312 -48.7001953125 347.450195312 -42.2998046875 358.5 -29.5 c 0
 384.400390625 0.5 394.900390625 14.349609375 400.25 25.650390625 c 0
 404.900390625 35.4501953125 404.650390625 41 399.299804688 45.9501953125 c 0
 398 47.099609375 395.5 48.75 393.849609375 49.5 c 0
 392.150390625 50.25 377.849609375 54.9501953125 362.099609375 59.9501953125 c 0
 325.25 71.599609375 312.75 76.0498046875 306 79.900390625 c 0
 295.25 86.0498046875 294.25 91.099609375 301.849609375 101.25 c 0
 307.950195312 109.400390625 329.049804688 131.849609375 338 139.700195312 c 0
 359.150390625 158.299804688 381.150390625 172 400 178.450195312 c 0
 411.099609375 182.25 416.549804688 185 420.349609375 188.75 c 0
 422.849609375 191.25 423.599609375 192.349609375 424.25 194.75 c 0
 426.299804688 201.700195312 423.599609375 209.5 413.150390625 227 c 0
 410.099609375 232.099609375 406.599609375 238.299804688 405.400390625 240.75 c 0
 393.349609375 264.799804688 397.849609375 280.099609375 426.099609375 311.349609375 c 0
 446.700195312 334.150390625 467.25 347.25 488.75 351.25 c 0
524.75 210 m 0
 520.099609375 210.25 508.25 210.450195312 498.5 210.400390625 c 0
 461.450195312 210.299804688 444.5 207.900390625 444.5 202.799804688 c 0
 444.5 202.25 445.700195312 200.650390625 447.200195312 199.200195312 c 0
 452.400390625 194.150390625 466.299804688 188.5 481 185.450195312 c 0
 490.700195312 183.400390625 502.900390625 182.950195312 512.099609375 184.25 c 0
 528.849609375 186.650390625 546.549804688 193.150390625 552.900390625 199.25 c 0
 554.400390625 200.75 555.5 202.25 555.5 202.849609375 c 0
 555.5 206.599609375 546.450195312 208.700195312 524.75 210 c 0
531.5 85.5 m 0
 484.799804688 86.7998046875 425.700195312 84.900390625 415.25 81.75 c 0
 409.75 80.099609375 409.150390625 78.2998046875 412.950195312 74.900390625 c 0
 421.299804688 67.400390625 449.049804688 59.2001953125 478 55.650390625 c 0
 487.049804688 54.5498046875 510.700195312 54.400390625 519.75 55.400390625 c 0
 541.349609375 57.7998046875 563.700195312 63.400390625 576.799804688 69.7001953125 c 0
 585.75 74 589.150390625 78.0498046875 585.75 80.2998046875 c 0
 581.599609375 83.0498046875 566 84.5 531.5 85.5 c 0
542.25 -246.5 m 0
 495.950195312 -245.450195312 440.049804688 -246.450195312 414.75 -248.799804688 c 0
 400.799804688 -250.049804688 396.450195312 -251.799804688 398.700195312 -255.200195312 c 0
 402.75 -261.450195312 429.150390625 -269.650390625 459 -273.950195312 c 0
 474.400390625 -276.200195312 482.5 -276.75 501.5 -276.700195312 c 0
 521 -276.700195312 528.599609375 -276.200195312 546 -273.700195312 c 0
 583.799804688 -268.299804688 615.75 -256.950195312 607.75 -251.700195312 c 0
 603.599609375 -249 584.099609375 -247.450195312 542.25 -246.5 c 0
EndSplineSet
EndChar

StartChar: p
Encoding: 112 112 17
Width: 1000
Flags: H
LayerCount: 2
Fore
SplineSet
488.75 351.25 m 0
 495.049804688 352.400390625 508.75 351.950195312 515.5 350.349609375 c 0
 534.950195312 345.75 554.349609375 332.849609375 573.599609375 311.650390625 c 0
 598.849609375 283.849609375 604.849609375 269.049804688 598.5 249.900390625 c 0
 596.599609375 244.200195312 593.549804688 238.25 586.849609375 227 c 0
 578.549804688 213.150390625 575 204.700195312 575 199 c 0
 575 193.700195312 578.25 188.75 583.950195312 185.299804688 c 0
 587.150390625 183.349609375 595.549804688 179.849609375 602.5 177.549804688 c 0
 621.950195312 171.150390625 652.599609375 150.150390625 672.75 129.450195312 c 0
 681.400390625 120.549804688 694.700195312 105.849609375 697.799804688 101.75 c 0
 704.700195312 92.5498046875 704.799804688 87.5498046875 698.049804688 82.4501953125 c 0
 691.200195312 77.349609375 681.299804688 73.650390625 636.25 59.400390625 c 0
 621.400390625 54.75 607.849609375 50.25 606.150390625 49.5 c 0
 604.5 48.75 602 47.099609375 600.700195312 45.9501953125 c 0
 595.299804688 40.9501953125 595.099609375 35.400390625 599.950195312 25.25 c 0
 605.25 14.150390625 616.150390625 -0.150390625 641.5 -29.5 c 0
 651.950195312 -41.5498046875 657.200195312 -47.9501953125 663.799804688 -56.75 c 0
 680.700195312 -79.150390625 693.25 -102 699.75 -122.099609375 c 0
 710.700195312 -155.950195312 707.099609375 -186.75 689.049804688 -213.799804688 c 0
 683.299804688 -222.400390625 678.200195312 -228.299804688 667.900390625 -238.099609375 c 0
 644.349609375 -260.5 641.150390625 -263.950195312 638.200195312 -269.950195312 c 0
 635.25 -276.049804688 635.450195312 -281.349609375 639.049804688 -288.5 c 0
 643.099609375 -296.599609375 649.650390625 -304.400390625 672 -328 c 0
 688.849609375 -345.75 695.5 -353.75 703.700195312 -366 c 0
 714.599609375 -382.25 720.599609375 -395.799804688 721.349609375 -405.75 c 0
 721.700195312 -410.75 721 -413.450195312 718.700195312 -415.950195312 c 0
 709.650390625 -426 659.849609375 -432.950195312 571.75 -436.549804688 c 0
 550.799804688 -437.400390625 473.700195312 -437.700195312 448.5 -437.049804688 c 0
 372 -435.049804688 316.099609375 -429.599609375 292.5 -421.900390625 c 0
 288.5 -420.599609375 283.150390625 -417.950195312 281.650390625 -416.549804688 c 0
 272.849609375 -408.200195312 283.299804688 -381.150390625 306.75 -351.650390625 c 0
 311.400390625 -345.799804688 316.349609375 -340.299804688 328 -328 c 0
 350.450195312 -304.299804688 356.900390625 -296.599609375 360.950195312 -288.5 c 0
 364.549804688 -281.349609375 364.75 -276.049804688 361.799804688 -269.950195312 c 0
 358.849609375 -263.950195312 355.650390625 -260.5 332.099609375 -238.099609375 c 0
 321.75 -228.200195312 316.599609375 -222.299804688 310.950195312 -213.799804688 c 0
 281.900390625 -170.099609375 290.299804688 -118.049804688 336.150390625 -56.75 c 0
 342.200195312 -48.7001953125 347.450195312 -42.2998046875 358.5 -29.5 c 0
 384.400390625 0.5 394.900390625 14.349609375 400.25 25.650390625 c 0
 404.900390625 35.4501953125 404.650390625 41 399.299804688 45.9501953125 c 0
 398 47.099609375 395.5 48.75 393.849609375 49.5 c 0
 392.150390625 50.25 377.849609375 54.9501953125 362.099609375 59.9501953125 c 0
 325.25 71.599609375 312.75 76.0498046875 306 79.900390625 c 0
 295.25 86.0498046875 294.25 91.099609375 301.849609375 101.25 c 0
 307.950195312 109.400390625 329.049804688 131.849609375 338 139.700195312 c 0
 359.150390625 158.299804688 381.150390625 172 400 178.450195312 c 0
 411.099609375 182.25 416.549804688 185 420.349609375 188.75 c 0
 422.849609375 191.25 423.599609375 192.349609375 424.25 194.75 c 0
 426.299804688 201.700195312 423.599609375 209.5 413.150390625 227 c 0
 410.099609375 232.099609375 406.599609375 238.299804688 405.400390625 240.75 c 0
 393.299804688 264.849609375 397.900390625 280.349609375 426.5 311.75 c 0
 447.099609375 334.450195312 467.299804688 347.25 488.75 351.25 c 0
507.700195312 327.799804688 m 0
 504.599609375 328.950195312 499.450195312 329.650390625 497 329.200195312 c 0
 490.349609375 328 482.549804688 323.200195312 470.849609375 313.099609375 c 0
 440.049804688 286.650390625 429.700195312 273 429.849609375 259.200195312 c 0
 429.950195312 251.5 434.099609375 243 442 234.349609375 c 0
 451.950195312 223.450195312 470.900390625 213.299804688 488 209.650390625 c 0
 494 208.400390625 506.700195312 208.400390625 512.25 209.650390625 c 0
 534 214.700195312 552.900390625 226.25 563.099609375 240.75 c 0
 577.5 261.099609375 570.900390625 276.650390625 534.25 308.700195312 c 0
 520.150390625 321.049804688 514.150390625 325.349609375 507.700195312 327.799804688 c 0
511.599609375 178 m 0
 483.75 179.849609375 457.25 175.450195312 433.900390625 165.049804688 c 0
 384.599609375 143.099609375 343.700195312 112.200195312 346.200195312 98.7998046875 c 0
 347.5 91.9501953125 360.700195312 87.900390625 388.75 85.7998046875 c 0
 412.099609375 84 426.700195312 83.75 500 83.75 c 0
 573.299804688 83.75 587.900390625 84 611.25 85.7998046875 c 0
 635.049804688 87.599609375 648.599609375 90.900390625 652.349609375 95.849609375 c 0
 655.099609375 99.4501953125 654 104.099609375 648.700195312 111.150390625 c 0
 644.950195312 116.049804688 629.299804688 131.349609375 623 136.200195312 c 0
 591.549804688 160.5 552.400390625 175.200195312 511.599609375 178 c 0
505 61.400390625 m 0
 500.150390625 62.900390625 496.650390625 62.349609375 490.349609375 59.2001953125 c 0
 451.849609375 39.900390625 346.549804688 -78.150390625 319.349609375 -132.5 c 0
 312.75 -145.599609375 311.599609375 -150.700195312 313.400390625 -157.799804688 c 0
 318.299804688 -176.849609375 342.799804688 -211.349609375 359 -221.950195312 c 0
 382.099609375 -237.049804688 418.150390625 -246.450195312 468.5 -250.599609375 c 0
 479.099609375 -251.450195312 521.650390625 -251.450195312 532.25 -250.599609375 c 0
 582.150390625 -246.5 617.950195312 -237.099609375 640.799804688 -222.049804688 c 0
 657.950195312 -210.75 679.400390625 -183.450195312 685.849609375 -164.75 c 0
 686.950195312 -161.5 687.200195312 -159.849609375 687.200195312 -156 c 0
 687.200195312 -151.849609375 687 -150.599609375 685.349609375 -145.849609375 c 0
 679 -127.299804688 658.349609375 -95.5498046875 627.700195312 -57.25 c 0
 579.25 3.349609375 525.75 55.0498046875 505 61.400390625 c 0
518.799804688 -271.5 m 0
 511.349609375 -270.900390625 487.549804688 -270.950195312 480.349609375 -271.549804688 c 0
 444.650390625 -274.5 418.650390625 -285.200195312 390.25 -308.700195312 c 0
 379.299804688 -317.75 359 -338.75 342.950195312 -357.549804688 c 0
 325.5 -378.049804688 312.099609375 -397.650390625 312.599609375 -402 c 0
 313.549804688 -410.299804688 393.5 -416.5 500 -416.5 c 0
 588.099609375 -416.5 661.200195312 -412.150390625 681.450195312 -405.75 c 0
 686 -404.299804688 687.5 -403.299804688 687.5 -401.799804688 c 0
 687.5 -397.049804688 674 -377.450195312 657.049804688 -357.549804688 c 0
 642.549804688 -340.549804688 622.549804688 -319.650390625 612.25 -310.75 c 0
 583.75 -286.150390625 555.700195312 -274.349609375 518.799804688 -271.5 c 0
EndSplineSet
EndChar

StartChar: q
Encoding: 113 113 18
Width: 1000
Flags: H
LayerCount: 2
Fore
SplineSet
514.950195312 414.099609375 m 0
 518.650390625 415.549804688 524.799804688 415.150390625 529 413.099609375 c 0
 534.700195312 410.349609375 540.900390625 405.150390625 553.799804688 392.25 c 0
 570.950195312 375.150390625 576.900390625 367.400390625 579.799804688 358.25 c 0
 583.700195312 345.950195312 581.049804688 335.650390625 568.5 314.450195312 c 0
 560.650390625 301.200195312 557.25 292.700195312 554.799804688 280.5 c 0
 552.849609375 270.650390625 552.349609375 264.650390625 552.349609375 251.25 c 0
 552.349609375 229.5 555 207.400390625 562.049804688 170 c 0
 566.25 147.799804688 587.200195312 43.25 590.75 27 c 0
 594.849609375 8 599.950195312 -12.5498046875 602.299804688 -19.75 c 0
 605.700195312 -30.2998046875 609.200195312 -36 612.200195312 -36 c 0
 614.549804688 -36 617.150390625 -33.349609375 622.349609375 -25.5 c 0
 630.700195312 -13.0498046875 636.150390625 -0.2998046875 640.450195312 16.7998046875 c 0
 643.650390625 29.400390625 644.599609375 36.4501953125 646 56.25 c 0
 646.599609375 65.2998046875 648 73.4501953125 651 85.25 c 0
 656.099609375 105.299804688 663.25 124.75 673 145 c 0
 676.25 151.75 679.650390625 159.299804688 680.650390625 161.75 c 0
 687 178.049804688 691.799804688 198.599609375 693.700195312 217.099609375 c 0
 695.400390625 234 695.200195312 244.950195312 692.799804688 259.599609375 c 0
 690.5 273.5 690.049804688 283.200195312 691 294.5 c 0
 693.650390625 325.099609375 706.450195312 349.200195312 724.799804688 358.400390625 c 0
 733.099609375 362.549804688 743.349609375 362.700195312 752.25 358.75 c 0
 759.75 355.450195312 768.700195312 347.549804688 773.900390625 339.75 c 0
 781.5 328.299804688 787 312.799804688 789.75 295 c 0
 790.849609375 287.75 791.299804688 271.200195312 790.549804688 263.75 c 0
 788.599609375 244.5 782.950195312 229.099609375 774.099609375 218.75 c 0
 770.799804688 214.900390625 768.200195312 209.650390625 765.049804688 200.25 c 0
 757.700195312 178.349609375 749.849609375 140.400390625 744.25 99.599609375 c 0
 742.5 86.9501953125 737.650390625 44.5 735.299804688 20.75 c 0
 731.849609375 -13.150390625 731.549804688 -28.7998046875 734.299804688 -29.849609375 c 0
 737.349609375 -31 741.400390625 -25 757.299804688 4.099609375 c 0
 769.599609375 26.599609375 776.5 38 789.150390625 57 c 0
 804.349609375 79.75 818.25 98.25 831 112.75 c 0
 846.450195312 130.299804688 856.450195312 144.950195312 866.049804688 164.099609375 c 0
 872.799804688 177.650390625 875.849609375 185.849609375 878.75 198.75 c 0
 881.950195312 212.900390625 889.400390625 226.950195312 898.5 236 c 0
 905.950195312 243.450195312 912.400390625 246.25 921.5 246.200195312 c 0
 927.599609375 246.200195312 930.599609375 245.25 935.650390625 241.799804688 c 0
 939.75 239 943.049804688 234.849609375 946 228.75 c 0
 950 220.599609375 951.549804688 213 951.549804688 201.599609375 c 0
 951.549804688 188.450195312 948.75 176.900390625 942.700195312 165 c 0
 940.950195312 161.549804688 938 156.75 936.150390625 154.299804688 c 0
 924.900390625 139.549804688 920.900390625 132.950195312 910.900390625 112.700195312 c 0
 867.75 25.400390625 805.5 -161.5 784.799804688 -266 c 0
 783.599609375 -272.200195312 781.650390625 -283.099609375 780.5 -290.25 c 0
 773.950195312 -331.299804688 772.049804688 -341.5 768.400390625 -355.75 c 0
 762.299804688 -379.799804688 753.450195312 -397.25 742.400390625 -407.299804688 c 0
 722.150390625 -425.599609375 693.349609375 -433 630.5 -436 c 0
 585.099609375 -438.150390625 471.650390625 -437.849609375 421.25 -435.5 c 0
 370.200195312 -433.099609375 335.950195312 -428.700195312 315.349609375 -421.950195312 c 0
 307 -419.25 301.950195312 -416.5 297.900390625 -412.5 c 0
 295 -409.599609375 294.150390625 -408.25 290.849609375 -401.450195312 c 0
 284.599609375 -388.650390625 278.400390625 -370.200195312 272.75 -347.5 c 0
 267.700195312 -327.299804688 265.450195312 -316.200195312 261 -289.299804688 c 0
 255.200195312 -254.200195312 247 -219.200195312 233.200195312 -170.5 c 0
 197.299804688 -43.900390625 144.5 95.7001953125 115.599609375 140.5 c 0
 114.099609375 142.849609375 110.950195312 147.200195312 108.549804688 150.25 c 0
 100.349609375 160.700195312 95.4501953125 170.450195312 92.5 182.200195312 c 0
 87.650390625 201.349609375 89.9501953125 221.450195312 98.400390625 233.849609375 c 0
 104.400390625 242.650390625 112.599609375 246.950195312 122 246.349609375 c 0
 130.349609375 245.799804688 136.150390625 242.900390625 143.299804688 235.799804688 c 0
 148.5 230.549804688 153.349609375 223.549804688 156.950195312 216 c 0
 160.099609375 209.400390625 161.599609375 204.849609375 163.549804688 196.150390625 c 0
 167.25 179.700195312 176.299804688 160.150390625 189.349609375 140.299804688 c 0
 196.25 129.799804688 200.549804688 124.25 211.5 111.75 c 0
 229.700195312 91.0498046875 254.400390625 56 272.5 25.25 c 0
 274.75 21.400390625 280 12.099609375 284.099609375 4.5 c 0
 296.75 -18.7001953125 300 -24.0498046875 303.650390625 -27.849609375 c 0
 307.099609375 -31.4501953125 308.200195312 -30.7001953125 309.049804688 -24.5 c 0
 309.799804688 -18.9501953125 308.599609375 0.25 306 24.75 c 0
 299.349609375 86.900390625 297.5 101.75 292.950195312 128.599609375 c 0
 286.450195312 167.299804688 278.400390625 199.200195312 271.900390625 212.25 c 0
 271.049804688 213.900390625 269 216.950195312 267.25 219.099609375 c 0
 259.25 228.950195312 254.200195312 241.599609375 251.700195312 258.25 c 0
 250.349609375 267.25 250.450195312 285.25 251.950195312 295 c 0
 256.25 323.299804688 267 344.400390625 282.5 354.849609375 c 0
 302.049804688 368.049804688 323.099609375 361.75 337.5 338.25 c 0
 345.799804688 324.799804688 350.299804688 307.700195312 350.849609375 287.700195312 c 0
 351.150390625 276.549804688 350.700195312 270.549804688 348.599609375 258.5 c 0
 347.349609375 251.25 347.25 249.799804688 347.25 235.75 c 0
 347.299804688 223.099609375 347.450195312 219.450195312 348.400390625 212.700195312 c 0
 351.849609375 187.200195312 357.799804688 166.900390625 367.5 147.5 c 0
 379.450195312 123.650390625 389.049804688 95.7998046875 393.75 71.599609375 c 0
 395 65.099609375 395.349609375 61.349609375 396.5 45.0498046875 c 0
 397.75 27.400390625 403 6.5 410.200195312 -9.5 c 0
 413.099609375 -15.9501953125 420.599609375 -28.2001953125 423.900390625 -32 c 0
 426.099609375 -34.5 428.25 -36 429.700195312 -36 c 0
 431.200195312 -36 434.049804688 -32.849609375 435.700195312 -29.2998046875 c 0
 441.849609375 -16.349609375 448.599609375 12.9501953125 468.950195312 115.75 c 0
 483.650390625 190.049804688 485.849609375 202.799804688 488.349609375 227.5 c 0
 489.549804688 239.950195312 489.549804688 263.349609375 488.299804688 272.150390625 c 0
 486 288.599609375 481.900390625 300.049804688 472.950195312 314.799804688 c 0
 452.650390625 348.349609375 455.349609375 360.900390625 490.150390625 394.799804688 c 0
 502.650390625 406.950195312 508.400390625 411.450195312 514.950195312 414.099609375 c 0
527.599609375 369.299804688 m 0
 513.900390625 371.900390625 498.75 366.799804688 492.349609375 357.400390625 c 0
 489.349609375 352.950195312 488.349609375 349.150390625 488.650390625 343 c 0
 488.900390625 337.150390625 490.099609375 333.150390625 493.049804688 328.200195312 c 0
 495.25 324.549804688 500.150390625 319.549804688 503.849609375 317.349609375 c 0
 510.5 313.299804688 519.700195312 311.599609375 526 313.200195312 c 0
 536.950195312 316 548 324.950195312 552.599609375 334.849609375 c 0
 559.349609375 349.25 547.599609375 365.450195312 527.599609375 369.299804688 c 0
310.400390625 326.200195312 m 0
 305.5 328.650390625 300.5 327.450195312 293.700195312 322.25 c 0
 285 315.549804688 280.200195312 307.900390625 277.150390625 295.700195312 c 0
 275.849609375 290.650390625 275.75 289.5 275.75 280.25 c 0
 275.799804688 271.549804688 275.900390625 269.650390625 276.900390625 265.799804688 c 0
 278.299804688 260.299804688 280.849609375 253.75 283.950195312 247.75 c 0
 287 241.849609375 292.099609375 236.5 295.650390625 235.5 c 0
 300.200195312 234.25 304.849609375 235.849609375 310.849609375 240.599609375 c 0
 316.400390625 245 319.849609375 249.200195312 322.799804688 255.25 c 0
 330.599609375 271.299804688 330.799804688 290.650390625 323.299804688 308.150390625 c 0
 318.950195312 318.349609375 314.950195312 323.950195312 310.400390625 326.200195312 c 0
747.900390625 326.200195312 m 0
 743 328.650390625 738 327.450195312 731.200195312 322.25 c 0
 722.5 315.549804688 717.700195312 307.900390625 714.650390625 295.700195312 c 0
 713.349609375 290.650390625 713.25 289.5 713.25 280.25 c 0
 713.299804688 271.549804688 713.400390625 269.650390625 714.400390625 265.799804688 c 0
 715.799804688 260.299804688 718.349609375 253.75 721.450195312 247.75 c 0
 724.5 241.849609375 729.599609375 236.5 733.150390625 235.5 c 0
 737.700195312 234.25 742.349609375 235.849609375 748.349609375 240.599609375 c 0
 753.900390625 245 757.349609375 249.200195312 760.299804688 255.25 c 0
 768.099609375 271.299804688 768.299804688 290.650390625 760.799804688 308.150390625 c 0
 756.450195312 318.349609375 752.450195312 323.950195312 747.900390625 326.200195312 c 0
131.25 207 m 0
 123.349609375 209.700195312 115.049804688 207.900390625 112.400390625 202.849609375 c 0
 109.700195312 197.700195312 111.650390625 190.950195312 118.599609375 181.75 c 0
 125.299804688 172.900390625 132.450195312 166.950195312 136.5 166.799804688 c 0
 140.900390625 166.700195312 144.299804688 172.75 145.5 182.700195312 c 0
 146.900390625 194.450195312 141.650390625 203.450195312 131.25 207 c 0
522.799804688 207.549804688 m 0
 521.950195312 208.049804688 521.150390625 208.5 521 208.450195312 c 0
 514.650390625 207.700195312 506.25 187 498.799804688 153.75 c 0
 495.650390625 139.700195312 493 124.849609375 489.75 102.5 c 0
 478.650390625 25.9501953125 471.400390625 -9.599609375 462.5 -32.0498046875 c 0
 455.700195312 -49.0498046875 448 -57.900390625 437 -61.2001953125 c 0
 429.950195312 -63.349609375 418.650390625 -62.5498046875 412.25 -59.5 c 0
 407.450195312 -57.2001953125 402 -51.7001953125 398.349609375 -45.5 c 0
 388.150390625 -27.9501953125 380.849609375 -1.4501953125 364.25 79 c 0
 362.700195312 86.5498046875 360.299804688 97.150390625 358.950195312 102.5 c 0
 342.349609375 168.75 323.599609375 176.349609375 321.700195312 117.5 c 0
 321.150390625 100.25 322.349609375 81.5498046875 326.5 44 c 0
 330.849609375 4.5 330.700195312 6.599609375 330.75 -18.75 c 0
 330.75 -41.2001953125 330.700195312 -41.849609375 329.599609375 -45.650390625 c 0
 327.349609375 -53.4501953125 324.700195312 -57.099609375 319.349609375 -59.75 c 0
 315.049804688 -61.849609375 309.099609375 -62.75 302.400390625 -62.349609375 c 0
 289.349609375 -61.5 277.75 -54.9501953125 273.200195312 -45.75 c 0
 271.75 -42.7998046875 271.25 -41.0498046875 270.700195312 -36.599609375 c 0
 269.849609375 -29.4501953125 268.200195312 -24.650390625 263.200195312 -14.4501953125 c 0
 254.799804688 2.650390625 239.549804688 25.849609375 224.299804688 44.75 c 0
 216.400390625 54.599609375 166.5 114.049804688 166.5 113.650390625 c 0
 166.5 113.450195312 185.25 62.0498046875 208.200195312 -0.5 c 2
 249.849609375 -114.25 l 1
 520.799804688 -114.349609375 l 1
 791.75 -114.5 l 1
 827.5 -16.849609375 l 2
 847.150390625 36.7998046875 865.950195312 88.25 869.349609375 97.4501953125 c 0
 873.950195312 110.150390625 875.150390625 113.900390625 874.299804688 112.950195312 c 0
 872.549804688 111.099609375 822.900390625 51.650390625 817.150390625 44.5 c 0
 799.650390625 22.75 782.5 -4.2001953125 775.349609375 -21.0498046875 c 0
 772.349609375 -28.0498046875 771.549804688 -30.849609375 771 -36.349609375 c 0
 770.75 -38.849609375 770.049804688 -42.150390625 769.450195312 -43.7001953125 c 0
 766.549804688 -51.5498046875 758.099609375 -58.25 747.599609375 -61.099609375 c 0
 742.799804688 -62.400390625 731.299804688 -62.650390625 727 -61.5498046875 c 0
 715.450195312 -58.650390625 710.900390625 -49.849609375 710.200195312 -29.25 c 0
 709.650390625 -12.9501953125 710.900390625 5.650390625 715.25 44.75 c 0
 719.400390625 82.2001953125 720.25 95.849609375 719.849609375 116 c 0
 719.400390625 138 717.150390625 150.049804688 712.650390625 155.049804688 c 0
 710.450195312 157.5 708.700195312 157.900390625 706.049804688 156.5 c 0
 699.900390625 153.400390625 692.75 138.450195312 685.75 114.049804688 c 0
 682.650390625 103.25 679.950195312 91.400390625 675 67.5 c 0
 660.549804688 -2.599609375 652.25 -31.599609375 642.099609375 -47.5 c 0
 639.5 -51.5498046875 634.150390625 -56.849609375 630.75 -58.75 c 0
 626.5 -61.099609375 623.049804688 -62 617 -62.349609375 c 0
 592.950195312 -63.650390625 581 -47.849609375 569.549804688 0.400390625 c 0
 564.349609375 22.2998046875 559.200195312 52.150390625 551.75 103.5 c 0
 547.700195312 131.349609375 544.349609375 148.950195312 539.75 166.75 c 0
 534 189.099609375 527.5 204.700195312 522.799804688 207.549804688 c 0
923.599609375 207.400390625 m 0
 914.200195312 210.549804688 901.950195312 205 897.599609375 195.650390625 c 0
 895.099609375 190.150390625 895.599609375 179.5 898.75 172.599609375 c 0
 900.349609375 169.099609375 901.650390625 167.700195312 903.799804688 167 c 0
 905.25 166.5 905.849609375 166.599609375 908.099609375 167.650390625 c 0
 913.049804688 169.950195312 919.900390625 176.799804688 925.25 184.75 c 0
 928.75 189.950195312 930.049804688 193.049804688 930.349609375 196.799804688 c 0
 930.799804688 201.900390625 928.299804688 205.849609375 923.599609375 207.400390625 c 0
564.25 -126 m 0
 544.5 -125.450195312 495 -125.450195312 475 -126.049804688 c 0
 348.849609375 -129.599609375 284.450195312 -147.150390625 272.700195312 -181.25 c 0
 271.450195312 -184.799804688 271.299804688 -186.099609375 271.099609375 -193.349609375 c 0
 270.700195312 -209.599609375 273.150390625 -218.049804688 279.400390625 -222.049804688 c 0
 283.450195312 -224.650390625 286.349609375 -225.25 294.75 -225.200195312 c 0
 306.099609375 -225.150390625 310.650390625 -224.400390625 354.75 -215.299804688 c 0
 379.400390625 -210.200195312 413.349609375 -205.650390625 450 -202.549804688 c 0
 507.650390625 -197.599609375 552.450195312 -198.200195312 615.25 -204.799804688 c 0
 647.400390625 -208.150390625 669.400390625 -211.549804688 697.25 -217.450195312 c 0
 726.549804688 -223.650390625 736.299804688 -225.200195312 747 -225.200195312 c 0
 756.150390625 -225.25 760.049804688 -224.200195312 763.849609375 -220.799804688 c 0
 768.700195312 -216.450195312 770.5 -209.799804688 770.650390625 -195.75 c 0
 770.75 -186.349609375 770.25 -183.5 767.5 -177.549804688 c 0
 752.650390625 -145.700195312 688.450195312 -129.450195312 564.25 -126 c 0
538 -217.5 m 0
 499.799804688 -215.849609375 460.700195312 -219.599609375 408.5 -230 c 0
 329.25 -245.799804688 304 -253.5 292.099609375 -265.5 c 0
 283.150390625 -274.549804688 282.650390625 -287.799804688 290.049804688 -323.450195312 c 0
 299.099609375 -367.200195312 310.950195312 -386.450195312 336.25 -398.75 c 0
 356.549804688 -408.599609375 382.849609375 -412.950195312 438 -415.549804688 c 0
 455.5 -416.349609375 548.299804688 -416.700195312 572 -416.049804688 c 0
 647.5 -413.900390625 693.549804688 -408 713.700195312 -397.900390625 c 0
 719.849609375 -394.849609375 722.700195312 -392.349609375 726.200195312 -387.099609375 c 0
 740.349609375 -365.75 753.75 -324.099609375 756.599609375 -292.700195312 c 0
 758.299804688 -274.099609375 753.150390625 -264.799804688 736.75 -256.75 c 0
 725 -251 709.400390625 -246.400390625 677.25 -239.25 c 0
 612.700195312 -224.950195312 575.650390625 -219.150390625 538 -217.5 c 0
EndSplineSet
EndChar

StartChar: r
Encoding: 114 114 19
Width: 1000
Flags: H
LayerCount: 2
Fore
SplineSet
250.25 416 m 0
 253.299804688 416.200195312 268.150390625 416.349609375 283.25 416.25 c 0
 304.849609375 416.150390625 312.099609375 415.900390625 316.950195312 415.299804688 c 0
 337.549804688 412.650390625 346.25 407.450195312 350.650390625 395.150390625 c 0
 352.849609375 389.150390625 353.5 383.75 354.049804688 368.25 c 0
 354.700195312 348.849609375 355.950195312 341 359.950195312 331.450195312 c 0
 365.900390625 317.349609375 378.299804688 310.150390625 391.400390625 313.25 c 0
 396.099609375 314.349609375 399.400390625 316.25 403.299804688 320.200195312 c 0
 407.599609375 324.5 410.400390625 329.349609375 412.700195312 336.5 c 0
 415.299804688 344.549804688 416 349.700195312 416.5 365 c 0
 417.200195312 385.75 418.150390625 391.799804688 421.599609375 398.650390625 c 0
 423.400390625 402.25 427.700195312 406.650390625 431.25 408.599609375 c 0
 439.299804688 412.900390625 450.700195312 414.950195312 472.5 416.049804688 c 0
 486.299804688 416.700195312 549.799804688 416.349609375 558.75 415.549804688 c 0
 589.25 412.799804688 599.349609375 406.400390625 602.75 387.849609375 c 0
 603.200195312 385.400390625 603.700195312 377.75 604 368.799804688 c 0
 604.650390625 348.900390625 605.900390625 341.049804688 609.950195312 331.450195312 c 0
 615.900390625 317.349609375 628.299804688 310.150390625 641.400390625 313.25 c 0
 646.099609375 314.349609375 649.400390625 316.25 653.299804688 320.200195312 c 0
 657.599609375 324.5 660.400390625 329.349609375 662.700195312 336.5 c 0
 665.25 344.349609375 666 349.75 666.5 364 c 0
 667.049804688 379.950195312 667.349609375 383 668.549804688 389.25 c 0
 672.200195312 407.650390625 682.799804688 413.950195312 713.650390625 416.049804688 c 0
 726.049804688 416.900390625 769.849609375 416.400390625 777.75 415.299804688 c 0
 799.799804688 412.349609375 807.549804688 405.400390625 810.700195312 385.75 c 0
 812.349609375 375.25 813.049804688 347.099609375 812 333.700195312 c 0
 809.650390625 304.450195312 800.400390625 274.349609375 788.849609375 258.5 c 0
 787.75 257 784.349609375 253.150390625 781.25 250 c 0
 774.849609375 243.400390625 771.950195312 239 768.400390625 230.650390625 c 0
 747.5 181.349609375 745.950195312 63.650390625 764.299804688 -75 c 0
 766.799804688 -94 768.400390625 -104.599609375 774.299804688 -141.75 c 0
 788.75 -232.5 798.049804688 -294.700195312 811.400390625 -388.849609375 c 2
 818.299804688 -437.5 l 1
 510.400390625 -437.5 l 1
 202.450195312 -437.5 l 1
 202.75 -435.900390625 l 2
 202.900390625 -435 206.849609375 -407.25 211.549804688 -374.25 c 0
 223.150390625 -292.299804688 233.049804688 -226.5 246.450195312 -142.25 c 0
 254.349609375 -92.5 257.599609375 -69.5 261 -38.5 c 0
 266.599609375 12.900390625 269.099609375 54.5 269.099609375 98.5 c 0
 269.150390625 151 265.299804688 189.150390625 257.150390625 217.200195312 c 0
 252.549804688 233.150390625 247.799804688 241.849609375 239.049804688 250.5 c 0
 232.75 256.75 229.150390625 261.950195312 224.450195312 271.700195312 c 0
 216.700195312 287.849609375 210.849609375 310.400390625 208.950195312 331.900390625 c 0
 208.150390625 341.25 208.650390625 375.200195312 209.700195312 383 c 0
 211.25 393.900390625 213.700195312 400.650390625 217.900390625 405.150390625 c 0
 224.049804688 411.75 232.700195312 414.650390625 250.25 416 c 0
298.75 394.950195312 m 0
 292.25 395.700195312 277.75 396 270.450195312 395.5 c 0
 248.650390625 394.099609375 237.650390625 387.900390625 232.700195312 374.299804688 c 0
 228.799804688 363.599609375 228.099609375 344.700195312 231 328.5 c 0
 235.799804688 301.849609375 247.650390625 277.75 258.849609375 271.849609375 c 0
 280.700195312 260.450195312 347.25 252.849609375 450 249.950195312 c 0
 474.799804688 249.25 546.150390625 249.25 571 249.950195312 c 0
 675.349609375 252.900390625 744 260.950195312 763.25 272.549804688 c 0
 774.049804688 279.049804688 786.25 305.299804688 790.299804688 330.75 c 0
 791.349609375 337.549804688 791.799804688 354.450195312 791.049804688 361 c 0
 788.700195312 381.099609375 780.799804688 390.25 762.650390625 393.950195312 c 0
 748.5 396.849609375 723.349609375 396.25 711.25 392.75 c 0
 700.549804688 389.650390625 693.75 382.950195312 690.549804688 372.25 c 0
 688.700195312 366.150390625 688 359.25 687.5 344 c 0
 686.900390625 323.400390625 685.5 315.349609375 681.25 307.75 c 0
 679.5 304.599609375 675.049804688 300 671.950195312 298.099609375 c 0
 669.049804688 296.349609375 663.599609375 294.450195312 658.349609375 293.450195312 c 0
 648.549804688 291.549804688 630.75 291.150390625 618.25 292.549804688 c 0
 600.549804688 294.549804688 591.150390625 300.950195312 586.849609375 314 c 0
 584.650390625 320.650390625 583.950195312 326.25 583.450195312 342.5 c 0
 583.200195312 350.900390625 582.75 359.799804688 582.450195312 362.25 c 0
 579.900390625 383.400390625 571.5 391.049804688 547.5 394.200195312 c 0
 536.849609375 395.599609375 512.700195312 396.25 494.849609375 395.549804688 c 0
 486.299804688 395.25 477.349609375 394.75 475 394.5 c 0
 457.25 392.400390625 447.549804688 387.599609375 442.799804688 378.549804688 c 0
 439.099609375 371.400390625 438.099609375 365.150390625 437.5 344.75 c 0
 436.900390625 323.400390625 435.549804688 315.450195312 431.25 307.75 c 0
 429.5 304.599609375 425.049804688 300 421.950195312 298.099609375 c 0
 419.049804688 296.349609375 413.599609375 294.450195312 408.349609375 293.450195312 c 0
 398.549804688 291.549804688 380.75 291.150390625 368.25 292.549804688 c 0
 350.549804688 294.549804688 341.200195312 300.900390625 336.799804688 314.049804688 c 0
 334.700195312 320.299804688 334 326.25 333.5 341.5 c 0
 332.950195312 357.849609375 332.400390625 363.799804688 330.75 370.25 c 0
 326.900390625 385.400390625 317.400390625 392.75 298.75 394.950195312 c 0
726 227.599609375 m 2
 726 229 l 1
 510.549804688 229 l 1
 295.099609375 229 l 1
 294.799804688 224.400390625 l 2
 294.599609375 221.849609375 293.900390625 206.599609375 293.25 190.5 c 0
 292.549804688 174.400390625 291.200195312 143.150390625 290.25 121 c 0
 286.349609375 30.2001953125 285.950195312 16.7001953125 285.950195312 -26.5 c 0
 285.900390625 -68.599609375 287.099609375 -90.400390625 289.549804688 -95.099609375 c 0
 290.950195312 -97.75 312.849609375 -100 352 -101.5 c 0
 452.900390625 -105.400390625 635.75 -104.5 702.25 -99.75 c 0
 722.200195312 -98.2998046875 729.799804688 -97 731.25 -94.7998046875 c 0
 732.200195312 -93.349609375 733.299804688 -85.900390625 734 -76 c 0
 734.900390625 -63.849609375 735.200195312 -11.0498046875 734.549804688 15.25 c 0
 733.849609375 44.650390625 733.700195312 47.849609375 729.5 145.75 c 0
 727.549804688 190 726 226.849609375 726 227.599609375 c 2
577.75 -126 m 0
 552 -125.450195312 466.049804688 -125.450195312 439.25 -126.049804688 c 0
 352.349609375 -127.950195312 292.799804688 -133.299804688 285.299804688 -139.900390625 c 0
 281.200195312 -143.599609375 272.099609375 -175.549804688 263.799804688 -215.650390625 c 0
 261.5 -226.599609375 245.5 -311.099609375 245.5 -312.150390625 c 0
 245.5 -312.349609375 364.75 -312.5 510.5 -312.5 c 2
 775.5 -312.5 l 1
 775.25 -311.349609375 l 2
 775.099609375 -310.75 771.650390625 -292.25 767.5 -270.25 c 0
 757.299804688 -215.700195312 755 -204.5 749.200195312 -181.25 c 0
 742.150390625 -153.150390625 737.900390625 -141 734.400390625 -139.200195312 c 0
 721.5 -132.5 667.25 -127.950195312 577.75 -126 c 0
649.75 -334 m 0
 616.5 -333.450195312 400.75 -333.5 366.25 -334.049804688 c 0
 271.549804688 -335.599609375 240.75 -340.599609375 232.599609375 -355.900390625 c 0
 229.950195312 -360.799804688 229.349609375 -364.549804688 229.349609375 -375 c 0
 229.349609375 -381.900390625 229.549804688 -385.099609375 230.150390625 -387.650390625 c 0
 235 -407.549804688 256 -412.700195312 343.25 -415.549804688 c 0
 353.450195312 -415.900390625 410.450195312 -416.200195312 485.25 -416.349609375 c 0
 606.450195312 -416.599609375 661.25 -416.25 693.25 -415 c 0
 767.25 -412.150390625 787.25 -406.299804688 790.799804688 -386.549804688 c 0
 791.700195312 -381.450195312 791.700195312 -368.099609375 790.799804688 -363.299804688 c 0
 788.5 -351.450195312 780.700195312 -345.5 762 -341.299804688 c 0
 742.5 -337 712.400390625 -335.049804688 649.75 -334 c 0
EndSplineSet
EndChar

StartChar: t
Encoding: 116 116 20
Width: 1000
Flags: H
LayerCount: 2
Fore
SplineSet
250.25 416 m 0
 253.299804688 416.200195312 268.150390625 416.349609375 283.25 416.25 c 0
 304.849609375 416.150390625 312.099609375 415.900390625 316.950195312 415.299804688 c 0
 337.549804688 412.650390625 346.25 407.450195312 350.650390625 395.150390625 c 0
 352.849609375 389.150390625 353.5 383.75 354.049804688 368.25 c 0
 354.700195312 348.849609375 355.950195312 341 359.950195312 331.450195312 c 0
 365.900390625 317.349609375 378.299804688 310.150390625 391.400390625 313.25 c 0
 396.099609375 314.349609375 399.400390625 316.25 403.299804688 320.200195312 c 0
 407.599609375 324.5 410.400390625 329.349609375 412.700195312 336.5 c 0
 415.299804688 344.549804688 416 349.700195312 416.5 365 c 0
 417.200195312 385.75 418.150390625 391.799804688 421.599609375 398.650390625 c 0
 423.400390625 402.25 427.700195312 406.650390625 431.25 408.599609375 c 0
 439.299804688 412.900390625 450.700195312 414.950195312 472.5 416.049804688 c 0
 486.299804688 416.700195312 549.799804688 416.349609375 558.75 415.549804688 c 0
 589.25 412.799804688 599.349609375 406.400390625 602.75 387.849609375 c 0
 603.200195312 385.400390625 603.700195312 377.75 604 368.799804688 c 0
 604.650390625 348.900390625 605.900390625 341.049804688 609.950195312 331.450195312 c 0
 615.900390625 317.349609375 628.299804688 310.150390625 641.400390625 313.25 c 0
 646.099609375 314.349609375 649.400390625 316.25 653.299804688 320.200195312 c 0
 657.599609375 324.5 660.400390625 329.349609375 662.700195312 336.5 c 0
 665.25 344.349609375 666 349.75 666.5 364 c 0
 667.049804688 379.950195312 667.349609375 383 668.549804688 389.25 c 0
 672.200195312 407.650390625 682.799804688 413.950195312 713.650390625 416.049804688 c 0
 726.049804688 416.900390625 769.849609375 416.400390625 777.75 415.299804688 c 0
 799.799804688 412.349609375 807.549804688 405.400390625 810.700195312 385.75 c 0
 812.349609375 375.25 813.049804688 347.099609375 812 333.700195312 c 0
 810.400390625 313.75 805.450195312 292.5 798.650390625 276.5 c 0
 793.799804688 265.099609375 789.549804688 258.549804688 781.299804688 250 c 0
 774.549804688 243 771.849609375 238.900390625 768.200195312 230.150390625 c 0
 747.5 180.849609375 746 63 764.299804688 -75 c 0
 766.799804688 -94 768.400390625 -104.599609375 774.299804688 -141.75 c 0
 788.75 -232.5 798.049804688 -294.700195312 811.400390625 -388.849609375 c 2
 818.299804688 -437.5 l 1
 510.400390625 -437.5 l 1
 202.450195312 -437.5 l 1
 202.75 -435.900390625 l 2
 202.900390625 -435 206.849609375 -407.25 211.549804688 -374.25 c 0
 223.150390625 -292.299804688 233.049804688 -226.5 246.450195312 -142.25 c 0
 254.349609375 -92.5 257.599609375 -69.5 261 -38.5 c 0
 266.599609375 12.900390625 269.099609375 54.5 269.099609375 98.5 c 0
 269.150390625 151 265.299804688 189.150390625 257.150390625 217.200195312 c 0
 252.549804688 233.150390625 247.799804688 241.849609375 239.049804688 250.5 c 0
 232.75 256.75 229.150390625 261.950195312 224.450195312 271.700195312 c 0
 216.700195312 287.849609375 210.849609375 310.400390625 208.950195312 331.900390625 c 0
 208.150390625 341.25 208.650390625 375.200195312 209.700195312 383 c 0
 211.25 393.900390625 213.700195312 400.650390625 217.900390625 405.150390625 c 0
 224.049804688 411.75 232.700195312 414.650390625 250.25 416 c 0
562.5 249.5 m 0
 535.849609375 250.049804688 483.349609375 250.049804688 455 249.450195312 c 0
 361.75 247.599609375 300 240.700195312 292.549804688 231.200195312 c 0
 291.200195312 229.5 291.25 228.900390625 292.799804688 227.049804688 c 0
 300.700195312 217.650390625 357.150390625 211.200195312 452 208.950195312 c 0
 479.5 208.299804688 568.849609375 208.599609375 591 209.450195312 c 0
 644.75 211.5 678.599609375 214.200195312 702.150390625 218.299804688 c 0
 737.450195312 224.450195312 738.099609375 233.5 703.75 239.75 c 0
 675.549804688 244.900390625 628.5 248.150390625 562.5 249.5 c 0
585.5 -105 m 0
 574.349609375 -104.75 547.599609375 -104.450195312 526 -104.299804688 c 0
 373.5 -103.450195312 269.799804688 -111.950195312 271.099609375 -125.150390625 c 0
 271.950195312 -133.599609375 313.75 -140.099609375 389.5 -143.5 c 0
 457.299804688 -146.549804688 562.450195312 -146.549804688 631.5 -143.5 c 0
 702.700195312 -140.349609375 745.150390625 -134.200195312 749.5 -126.349609375 c 0
 750.150390625 -125.150390625 750.150390625 -124.849609375 749.5 -123.599609375 c 0
 744.200195312 -114.150390625 684.400390625 -107.349609375 585.5 -105 c 0
579.25 -313 m 0
 543.900390625 -312.450195312 473.900390625 -312.5 436.5 -313.049804688 c 0
 311.450195312 -314.900390625 233.299804688 -322.200195312 229.450195312 -332.349609375 c 0
 228.5 -334.900390625 231.299804688 -337.099609375 238.5 -339.400390625 c 0
 252.849609375 -344.099609375 287.549804688 -348 336.5 -350.5 c 0
 342.150390625 -350.75 349.099609375 -351.099609375 352 -351.25 c 0
 391.599609375 -353.25 455.150390625 -354.150390625 532.25 -353.849609375 c 0
 595.099609375 -353.599609375 612.950195312 -353.299804688 649.5 -352 c 0
 750.799804688 -348.400390625 801.849609375 -340.599609375 789.700195312 -330.599609375 c 0
 783.549804688 -325.5 756.799804688 -321.049804688 714.5 -318 c 0
 677.700195312 -315.400390625 637.349609375 -313.900390625 579.25 -313 c 0
EndSplineSet
EndChar

StartChar: v
Encoding: 118 118 21
Width: 1000
Flags: H
LayerCount: 2
Fore
SplineSet
505.049804688 458 m 0
 509.349609375 458.599609375 516.349609375 458.099609375 520.950195312 456.950195312 c 0
 543.200195312 451.299804688 559.950195312 426.650390625 558.849609375 401.25 c 0
 558.349609375 389.950195312 554.799804688 381.099609375 547.25 372.299804688 c 0
 542.150390625 366.349609375 540.900390625 363.549804688 540.900390625 358 c 0
 540.950195312 353.400390625 541.900390625 349.650390625 544.450195312 344.349609375 c 0
 550.900390625 330.849609375 565.299804688 314.549804688 591.849609375 290.650390625 c 0
 608.049804688 276 618.599609375 264.599609375 630.549804688 248.650390625 c 0
 673.099609375 192.099609375 708.349609375 105.400390625 722.700195312 22 c 0
 724.700195312 10.599609375 726.549804688 -3.25 727.849609375 -16.5 c 0
 728.950195312 -27.650390625 729.099609375 -63.900390625 728.099609375 -73.25 c 0
 725.25 -99.25 719.549804688 -118.099609375 710.150390625 -132.150390625 c 0
 706.700195312 -137.349609375 703.25 -141.049804688 693.5 -150.049804688 c 0
 687.099609375 -155.950195312 683.25 -161.049804688 681.150390625 -166.349609375 c 0
 679.900390625 -169.400390625 679.799804688 -170.400390625 679.799804688 -175.75 c 0
 679.799804688 -180.900390625 680 -182.349609375 681.200195312 -186 c 0
 683.200195312 -192.049804688 687.099609375 -200 692.75 -209.5 c 0
 701.599609375 -224.400390625 705.049804688 -232.200195312 706 -239.650390625 c 0
 707.099609375 -248.599609375 704.25 -256.150390625 696.150390625 -265.650390625 c 0
 689.25 -273.799804688 681 -280.549804688 641.549804688 -310.5 c 0
 616.700195312 -329.349609375 615 -330.75 616.549804688 -330.849609375 c 0
 617.5 -330.950195312 630.299804688 -331.650390625 645 -332.5 c 0
 737 -337.650390625 748.650390625 -338.349609375 765.25 -339.75 c 0
 782.049804688 -341.150390625 793 -342.5 802.5 -344.299804688 c 0
 827.700195312 -349 838.299804688 -355.950195312 842.349609375 -370.5 c 0
 843.650390625 -375.25 843.650390625 -395.200195312 842.349609375 -400 c 0
 840.450195312 -407 836.75 -412.549804688 831.75 -416 c 0
 817.849609375 -425.549804688 792.299804688 -429.650390625 724 -433.25 c 0
 636.799804688 -437.849609375 604.150390625 -433.599609375 574.150390625 -413.700195312 c 0
 568.549804688 -410 562 -404.900390625 557.25 -400.549804688 c 0
 553.400390625 -397.049804688 515.25 -361.25 510.950195312 -357.099609375 c 2
 507.099609375 -353.450195312 l 1
 486.599609375 -376.099609375 l 2
 474.650390625 -389.299804688 464.650390625 -399.900390625 462.650390625 -401.450195312 c 0
 439 -420.200195312 391.099609375 -433.900390625 332.25 -438.700195312 c 0
 275.5 -443.400390625 222.799804688 -438.25 194.849609375 -425.349609375 c 0
 187 -421.700195312 179.950195312 -416.25 176.700195312 -411.200195312 c 0
 174.849609375 -408.299804688 172.200195312 -400.950195312 170.450195312 -394 c 0
 168.799804688 -387.200195312 168.75 -375.349609375 170.349609375 -370.25 c 0
 174.450195312 -357.400390625 186.349609375 -348 205.900390625 -342.299804688 c 0
 217.25 -338.950195312 229.049804688 -336.799804688 244.5 -335.299804688 c 0
 264.849609375 -333.299804688 275.150390625 -333 351.150390625 -332.549804688 c 2
 406.099609375 -332.25 l 1
 380.200195312 -312.25 l 2
 336 -278.099609375 329.849609375 -272.900390625 322.349609375 -263.099609375 c 0
 316.950195312 -256.099609375 314.75 -250.400390625 314.799804688 -243.25 c 0
 314.799804688 -234.599609375 317.900390625 -226.549804688 327.200195312 -211 c 0
 333 -201.349609375 338.150390625 -190.75 339.799804688 -185.25 c 0
 341.599609375 -179.099609375 341.700195312 -172.25 340.049804688 -167.400390625 c 0
 338.25 -162.049804688 334.549804688 -156.900390625 328.349609375 -151 c 0
 316.299804688 -139.549804688 313.599609375 -136.700195312 310.5 -132 c 0
 292.599609375 -104.75 287.200195312 -56.7998046875 295.299804688 3.5 c 0
 307.049804688 91.599609375 344.349609375 187.75 390.450195312 248.849609375 c 0
 403.75 266.5 411.950195312 275.349609375 430.25 291.75 c 0
 459.549804688 318.049804688 475.650390625 337.799804688 479.25 352 c 0
 481.099609375 359.200195312 479.549804688 365.75 474.799804688 370.950195312 c 0
 469.049804688 377.25 465.900390625 382.599609375 463.700195312 389.75 c 0
 462.400390625 394 462.299804688 394.799804688 462.299804688 403.5 c 0
 462.299804688 411.950195312 462.400390625 413.200195312 463.650390625 417.650390625 c 0
 469.549804688 439.450195312 485.799804688 455.349609375 505.049804688 458 c 0
516.5 165.950195312 m 0
 512.900390625 166.799804688 506.150390625 166.549804688 502.900390625 165.549804688 c 0
 490.849609375 161.700195312 483.049804688 149.450195312 480.25 130 c 0
 479.849609375 127.099609375 479.299804688 119.150390625 479 112.25 c 0
 478.5 97.849609375 477.400390625 90.2998046875 474.849609375 83.599609375 c 0
 469.400390625 69.0498046875 457.900390625 62.5 437.75 62.5 c 0
 428.900390625 62.5 420.799804688 60.5 412.900390625 56.4501953125 c 0
 409.75 54.7998046875 407.700195312 53.25 404.5 50 c 0
 398.299804688 43.849609375 396 38.75 396 31.25 c 0
 396 23.75 398.299804688 18.650390625 404.5 12.5 c 0
 407.700195312 9.25 409.75 7.7001953125 412.900390625 6.099609375 c 0
 421.049804688 1.849609375 426.25 0.599609375 438.5 0 c 0
 451.700195312 -0.650390625 458.700195312 -2.4501953125 464.450195312 -6.75 c 0
 474.450195312 -14.0498046875 478.099609375 -24.849609375 479 -49.75 c 0
 479.299804688 -56.599609375 479.849609375 -64.599609375 480.25 -67.5 c 0
 483.599609375 -90.900390625 494.400390625 -104.049804688 510.200195312 -104 c 0
 515.150390625 -103.950195312 517.849609375 -103.400390625 521.549804688 -101.549804688 c 0
 527.5 -98.599609375 531.599609375 -94.0498046875 535.349609375 -86.150390625 c 0
 539.450195312 -77.5498046875 541.200195312 -67.650390625 541.700195312 -50.25 c 0
 542.049804688 -38.4501953125 542.650390625 -32.9501953125 544.299804688 -26.5 c 0
 546.700195312 -17.099609375 551.200195312 -10.099609375 557.700195312 -5.9501953125 c 0
 563.599609375 -2.099609375 569.650390625 -0.650390625 582.75 0 c 0
 593 0.5 598.799804688 1.75 605.25 4.7001953125 c 0
 631.400390625 16.7998046875 631.5 45.349609375 605.450195312 57.75 c 0
 599.25 60.7001953125 593.049804688 62 582.75 62.5 c 0
 569.650390625 63.150390625 563.599609375 64.599609375 557.700195312 68.4501953125 c 0
 551.200195312 72.599609375 546.700195312 79.599609375 544.299804688 89 c 0
 542.650390625 95.4501953125 542.049804688 100.950195312 541.700195312 112.75 c 0
 541.200195312 130.150390625 539.450195312 140.049804688 535.349609375 148.650390625 c 0
 530.700195312 158.349609375 524.400390625 164.150390625 516.5 165.950195312 c 0
530 -167.5 m 0
 490.849609375 -166.650390625 439.450195312 -167.099609375 414.5 -168.5 c 0
 394.75 -169.599609375 386.450195312 -171 386.099609375 -173.400390625 c 0
 385.950195312 -174.349609375 386.450195312 -174.75 389.599609375 -176.25 c 0
 399.849609375 -181.049804688 429.900390625 -186.049804688 464.75 -188.700195312 c 0
 496.450195312 -191.150390625 532 -191.150390625 562 -188.75 c 0
 597.900390625 -185.799804688 624.099609375 -179.950195312 622.299804688 -175.25 c 0
 620.75 -171.150390625 593.700195312 -168.849609375 530 -167.5 c 0
572.25 -267.950195312 m 0
 562.200195312 -267.5 486.099609375 -266.950195312 473 -267.299804688 c 0
 447.25 -267.950195312 423.099609375 -269.400390625 416.25 -270.75 c 0
 410.5 -271.849609375 408.799804688 -272.799804688 410 -274.25 c 0
 412.75 -277.599609375 438.450195312 -281.75 472.200195312 -284.299804688 c 0
 486.099609375 -285.349609375 523.450195312 -285.799804688 537.799804688 -285.049804688 c 0
 577.799804688 -283 612.25 -277.650390625 612.25 -273.450195312 c 0
 612.25 -270.900390625 601.200195312 -269.349609375 572.25 -267.950195312 c 0
EndSplineSet
EndChar

StartChar: w
Encoding: 119 119 22
Width: 1000
Flags: H
LayerCount: 2
Fore
SplineSet
514.950195312 414.099609375 m 0
 518.650390625 415.549804688 524.799804688 415.150390625 529 413.099609375 c 0
 534.700195312 410.349609375 540.900390625 405.150390625 553.799804688 392.25 c 0
 570.950195312 375.150390625 576.900390625 367.400390625 579.799804688 358.25 c 0
 583.700195312 345.950195312 581.049804688 335.650390625 568.5 314.450195312 c 0
 560.650390625 301.200195312 557.25 292.700195312 554.799804688 280.5 c 0
 552.849609375 270.650390625 552.349609375 264.650390625 552.349609375 251.25 c 0
 552.349609375 229.5 555 207.400390625 562.049804688 170 c 0
 566.25 147.799804688 587.200195312 43.25 590.75 27 c 0
 594.849609375 8 599.950195312 -12.5498046875 602.299804688 -19.75 c 0
 605.700195312 -30.2998046875 609.200195312 -36 612.200195312 -36 c 0
 614.549804688 -36 617.150390625 -33.349609375 622.349609375 -25.5 c 0
 630.700195312 -13.0498046875 636.150390625 -0.2998046875 640.450195312 16.7998046875 c 0
 643.650390625 29.400390625 644.599609375 36.4501953125 646 56.25 c 0
 646.599609375 65.2998046875 648 73.4501953125 651 85.25 c 0
 656.099609375 105.299804688 663.25 124.75 673 145 c 0
 676.25 151.75 679.650390625 159.299804688 680.650390625 161.75 c 0
 687 178.049804688 691.799804688 198.599609375 693.700195312 217.099609375 c 0
 695.400390625 234 695.200195312 244.950195312 692.799804688 259.599609375 c 0
 690.5 273.5 690.049804688 283.200195312 691 294.5 c 0
 693.650390625 325.099609375 706.450195312 349.200195312 724.799804688 358.400390625 c 0
 733.099609375 362.549804688 743.349609375 362.700195312 752.25 358.75 c 0
 759.75 355.450195312 768.700195312 347.549804688 773.900390625 339.75 c 0
 781.5 328.299804688 787 312.799804688 789.75 295 c 0
 790.849609375 287.75 791.299804688 271.200195312 790.549804688 263.75 c 0
 788.599609375 244.5 782.950195312 229.099609375 774.099609375 218.75 c 0
 770.799804688 214.900390625 768.200195312 209.650390625 765.049804688 200.25 c 0
 757.700195312 178.349609375 749.849609375 140.400390625 744.25 99.599609375 c 0
 742.5 86.9501953125 737.650390625 44.5 735.299804688 20.75 c 0
 731.849609375 -13.150390625 731.549804688 -28.7998046875 734.299804688 -29.849609375 c 0
 737.349609375 -31 741.400390625 -25 757.299804688 4.099609375 c 0
 769.599609375 26.599609375 776.5 38 789.150390625 57 c 0
 804.349609375 79.75 818.25 98.25 831 112.75 c 0
 846.450195312 130.299804688 856.450195312 144.950195312 866.049804688 164.099609375 c 0
 872.799804688 177.650390625 875.849609375 185.849609375 878.75 198.75 c 0
 881.950195312 212.900390625 889.400390625 226.950195312 898.5 236 c 0
 905.950195312 243.450195312 912.400390625 246.25 921.5 246.200195312 c 0
 927.599609375 246.200195312 930.599609375 245.25 935.650390625 241.799804688 c 0
 939.75 239 943.049804688 234.849609375 946 228.75 c 0
 950 220.599609375 951.549804688 213 951.549804688 201.599609375 c 0
 951.549804688 188.450195312 948.75 176.900390625 942.700195312 165 c 0
 940.950195312 161.549804688 938 156.75 936.150390625 154.299804688 c 0
 924.900390625 139.549804688 920.900390625 132.950195312 910.900390625 112.700195312 c 0
 867.75 25.400390625 805.5 -161.5 784.799804688 -266 c 0
 783.599609375 -272.200195312 781.650390625 -283.099609375 780.5 -290.25 c 0
 775.599609375 -320.75 774.349609375 -328.299804688 772.450195312 -337.75 c 0
 763.150390625 -384.25 751.099609375 -405.400390625 726.5 -418.400390625 c 0
 707.049804688 -428.700195312 680.299804688 -433.549804688 630.25 -436 c 0
 585.950195312 -438.150390625 471.400390625 -437.849609375 421.25 -435.5 c 0
 370.200195312 -433.099609375 335.950195312 -428.700195312 315.349609375 -421.950195312 c 0
 307 -419.25 301.950195312 -416.5 297.900390625 -412.5 c 0
 295 -409.599609375 294.150390625 -408.25 290.849609375 -401.450195312 c 0
 284.599609375 -388.650390625 278.400390625 -370.200195312 272.75 -347.5 c 0
 267.700195312 -327.299804688 265.450195312 -316.200195312 261 -289.299804688 c 0
 255.200195312 -254.200195312 247 -219.200195312 233.200195312 -170.5 c 0
 197.299804688 -43.900390625 144.5 95.7001953125 115.599609375 140.5 c 0
 114.099609375 142.849609375 110.950195312 147.200195312 108.549804688 150.25 c 0
 100.349609375 160.700195312 95.4501953125 170.450195312 92.5 182.200195312 c 0
 87.650390625 201.349609375 89.9501953125 221.450195312 98.400390625 233.849609375 c 0
 104.400390625 242.650390625 112.599609375 246.950195312 122 246.349609375 c 0
 130.349609375 245.799804688 136.150390625 242.900390625 143.299804688 235.799804688 c 0
 148.5 230.549804688 153.349609375 223.549804688 156.950195312 216 c 0
 160.099609375 209.400390625 161.599609375 204.849609375 163.549804688 196.150390625 c 0
 167.25 179.700195312 176.299804688 160.150390625 189.349609375 140.299804688 c 0
 196.25 129.799804688 200.549804688 124.25 211.5 111.75 c 0
 229.700195312 91.0498046875 254.400390625 56 272.5 25.25 c 0
 274.75 21.400390625 280 12.099609375 284.099609375 4.5 c 0
 296.75 -18.7001953125 300 -24.0498046875 303.650390625 -27.849609375 c 0
 307.099609375 -31.4501953125 308.200195312 -30.7001953125 309.049804688 -24.5 c 0
 309.799804688 -18.9501953125 308.599609375 0.25 306 24.75 c 0
 299.349609375 86.900390625 297.5 101.75 292.950195312 128.599609375 c 0
 286.450195312 167.299804688 278.400390625 199.200195312 271.900390625 212.25 c 0
 271.049804688 213.900390625 269 216.950195312 267.25 219.099609375 c 0
 259.25 228.950195312 254.200195312 241.599609375 251.700195312 258.25 c 0
 250.349609375 267.25 250.450195312 285.25 251.950195312 295 c 0
 256.25 323.299804688 267 344.400390625 282.5 354.849609375 c 0
 302.049804688 368.049804688 323.099609375 361.75 337.5 338.25 c 0
 345.799804688 324.799804688 350.299804688 307.700195312 350.849609375 287.700195312 c 0
 351.150390625 276.549804688 350.700195312 270.549804688 348.599609375 258.5 c 0
 347.349609375 251.25 347.25 249.799804688 347.25 235.75 c 0
 347.299804688 223.099609375 347.450195312 219.450195312 348.400390625 212.700195312 c 0
 351.849609375 187.200195312 357.799804688 166.900390625 367.5 147.5 c 0
 379.450195312 123.650390625 389.049804688 95.7998046875 393.75 71.599609375 c 0
 395 65.099609375 395.349609375 61.349609375 396.5 45.0498046875 c 0
 397.75 27.400390625 403 6.5 410.200195312 -9.5 c 0
 413.099609375 -15.9501953125 420.599609375 -28.2001953125 423.900390625 -32 c 0
 426.099609375 -34.5 428.25 -36 429.700195312 -36 c 0
 431.200195312 -36 434.049804688 -32.849609375 435.700195312 -29.2998046875 c 0
 441.849609375 -16.349609375 448.599609375 12.9501953125 468.950195312 115.75 c 0
 483.650390625 190.049804688 485.849609375 202.799804688 488.349609375 227.5 c 0
 489.549804688 239.950195312 489.549804688 263.349609375 488.299804688 272.150390625 c 0
 486 288.599609375 481.900390625 300.049804688 472.950195312 314.799804688 c 0
 452.650390625 348.349609375 455.349609375 360.900390625 490.150390625 394.799804688 c 0
 502.650390625 406.950195312 508.400390625 411.450195312 514.950195312 414.099609375 c 0
581.75 -110 m 0
 559 -109.299804688 501.099609375 -109 479.150390625 -109.5 c 0
 402.599609375 -111.200195312 331.599609375 -116.349609375 303.599609375 -122.25 c 0
 299.400390625 -123.099609375 296.5 -124.25 296.5 -124.950195312 c 0
 296.5 -128.049804688 321.400390625 -130.799804688 366.5 -132.75 c 0
 451.700195312 -136.349609375 600.349609375 -136.25 681.25 -132.5 c 0
 722.700195312 -130.549804688 745 -127.950195312 745 -124.950195312 c 0
 745 -123.599609375 737.450195312 -121.75 724 -119.799804688 c 0
 693.200195312 -115.400390625 641.900390625 -111.849609375 581.75 -110 c 0
543 -191.799804688 m 0
 534.599609375 -191 517.900390625 -190.5 512 -190.799804688 c 0
 479.849609375 -192.5 452.25 -198.099609375 374 -219 c 0
 335.150390625 -229.349609375 310.400390625 -236.650390625 307.099609375 -238.799804688 c 0
 306.5 -239.200195312 306.099609375 -239.799804688 306.299804688 -240.099609375 c 0
 307 -241.200195312 320.5 -239.849609375 349.650390625 -235.75 c 0
 394.700195312 -229.400390625 439.549804688 -225 485.5 -222.400390625 c 0
 499.700195312 -221.650390625 543.5 -221.650390625 556.75 -222.400390625 c 0
 606.549804688 -225.400390625 644.849609375 -229.150390625 690.25 -235.5 c 0
 701.799804688 -237.099609375 714.5 -238.799804688 718.5 -239.25 c 0
 727.400390625 -240.25 735.049804688 -240.450195312 735.349609375 -239.700195312 c 0
 735.900390625 -238.099609375 717.549804688 -232.349609375 675.5 -221.049804688 c 0
 601.299804688 -201.099609375 570.650390625 -194.349609375 543 -191.799804688 c 0
EndSplineSet
EndChar

